<svg xmlns="http://www.w3.org/2000/svg" viewBox="0 0 62.9 58.77"><defs><style>.cls-1{fill:#4e55a0;}</style></defs><title>Asset 17</title><g id="Layer_2" data-name="Layer 2"><g id="Layer_1-2" data-name="Layer 1"><path class="cls-1" d="M5.61,58.77h51.6a5.7,5.7,0,0,0,5.69-5.7V23.58a5.76,5.76,0,0,0-2.55-4.76l-6-4.08V12.53a4.76,4.76,0,0,0-4.84-4.76H44.37l-.08-.09L34.51.88A5.52,5.52,0,0,0,28.39,1L19,7.51a.66.66,0,0,0-.34.34H13.35A4.83,4.83,0,0,0,8.5,12.61v2.21L2.64,18.9A5.46,5.46,0,0,0,0,23.66V53.24A5.54,5.54,0,0,0,5.61,58.77ZM7,55.37,30.52,35.48a1.16,1.16,0,0,1,1.61,0L55.76,55.37ZM54.32,18.82l4.08,2.8a2.13,2.13,0,0,1,1,1.53l-5,4.25V18.82Zm5.1,8.75v25.5a2.67,2.67,0,0,1-.17.77l-15.47-13ZM30.18,3.77a2.64,2.64,0,0,1,2.38-.08l5.86,4.08H24.31ZM11.82,12.53a1.36,1.36,0,0,1,1.44-1.36h36.3A1.41,1.41,0,0,1,51,12.53V30.38l-9.77,8.24-6.72-5.69a4.72,4.72,0,0,0-6,0l-6.72,5.69-9.94-8.33Zm-7.4,9.09,4-2.8v8.67l-5-4.25A2.13,2.13,0,0,1,4.42,21.62Zm-1.1,5.95L19,40.75,3.49,53.92a2.38,2.38,0,0,1-.17-.85Z"/><path class="cls-1" d="M20.32,20.52h22.1a1.7,1.7,0,0,0,0-3.4H20.32a1.7,1.7,0,0,0,0,3.4Z"/><path class="cls-1" d="M44.12,26.47a1.7,1.7,0,0,0-1.7-1.7H20.32a1.7,1.7,0,1,0,0,3.4h22.1A1.71,1.71,0,0,0,44.12,26.47Z"/></g></g></svg>