<svg xmlns="http://www.w3.org/2000/svg" viewBox="0 0 94.65 94.65"><defs><style>.cls-1{fill:#b0d31e;}.cls-2{fill:#1d1d1b;}</style></defs><title>Asset 11</title><g id="Layer_2" data-name="Layer 2"><g id="Layer_1-2" data-name="Layer 1"><path class="cls-1" d="M66.69,38a1.49,1.49,0,0,0-1.44,1.45v2.85a5.74,5.74,0,0,1-11.47,0V39.46a1.44,1.44,0,1,0-2.87,0v2.85a8.61,8.61,0,0,0,17.21,0V39.46A1.48,1.48,0,0,0,66.69,38Z"/><path class="cls-1" d="M0,0V94.65H94.65V0ZM53.06,28H58.8l.47,5.73H53.06ZM30.12,21.51a10.76,10.76,0,0,1,21.51,0V33.7H48.76V21.51a7.89,7.89,0,1,0-15.77,0v15a1.44,1.44,0,1,1-2.87,0ZM19.36,71,23,28h5.73v5.76A3.53,3.53,0,0,0,28,35.85a3.59,3.59,0,1,0,7.17,0,3.48,3.48,0,0,0-.72-2.12V28H47.33V33.7h-2L45.18,35,42.31,66.55l-.14,1.57h20L62.39,71Zm24.38-4.3,2.87-31.55H72.43l2.86,31.55Z"/><path class="cls-2" d="M15.11,77.91h3.08a4.47,4.47,0,0,1,2,.44,3.33,3.33,0,0,1,1.36,1.24A3.52,3.52,0,0,1,22,81.44a3.48,3.48,0,0,1-.48,1.84,3.26,3.26,0,0,1-1.36,1.24,4.47,4.47,0,0,1-2,.44H15.11Zm3,5.94a3.1,3.1,0,0,0,1.37-.29,2.11,2.11,0,0,0,.9-.85,2.7,2.7,0,0,0,0-2.55,2.15,2.15,0,0,0-.9-.84,3,3,0,0,0-1.37-.3H16.42v4.83Z"/><path class="cls-2" d="M23.43,77.91h1.31v7H23.43Z"/><path class="cls-2" d="M31.25,85,29.81,82.9H28v2H26.64v-7h2.9a3.81,3.81,0,0,1,1.6.31,2.34,2.34,0,0,1,1,.86,2.44,2.44,0,0,1,.36,1.34A2.27,2.27,0,0,1,31,82.65L32.66,85Zm-.47-5.58a2,2,0,0,0-1.3-.36H28v2.81h1.53a2,2,0,0,0,1.3-.37,1.28,1.28,0,0,0,.44-1A1.29,1.29,0,0,0,30.78,79.38Z"/><path class="cls-2" d="M39.28,83.86V85H34v-7h5.14V79H35.31v1.83h3.4v1.08h-3.4v1.94Z"/><path class="cls-2" d="M42.05,84.59A3.36,3.36,0,0,1,40.7,83.3a3.54,3.54,0,0,1-.49-1.86,3.6,3.6,0,0,1,.49-1.87,3.45,3.45,0,0,1,1.36-1.29A4,4,0,0,1,44,77.81a3.91,3.91,0,0,1,1.58.31,3.18,3.18,0,0,1,1.2.87l-.84.8A2.47,2.47,0,0,0,44.05,79a2.64,2.64,0,0,0-1.3.32,2.24,2.24,0,0,0-.9.88,2.56,2.56,0,0,0-.32,1.28,2.61,2.61,0,0,0,.32,1.28,2.31,2.31,0,0,0,.9.88,2.63,2.63,0,0,0,1.3.31,2.44,2.44,0,0,0,1.88-.83l.84.8a3.06,3.06,0,0,1-1.21.88,4.08,4.08,0,0,1-1.58.3A3.86,3.86,0,0,1,42.05,84.59Z"/><path class="cls-2" d="M49.38,79H47.05V77.91h6V79H50.69V85H49.38Z"/><path class="cls-2" d="M55.26,84.59a3.4,3.4,0,0,1-1.36-1.3,3.76,3.76,0,0,1,0-3.71,3.47,3.47,0,0,1,1.36-1.3,4.26,4.26,0,0,1,3.89,0,3.52,3.52,0,0,1,1.36,1.29A3.7,3.7,0,0,1,61,81.44a3.64,3.64,0,0,1-.49,1.86,3.52,3.52,0,0,1-1.36,1.29,4.26,4.26,0,0,1-3.89,0Zm3.21-1a2.31,2.31,0,0,0,.89-.89,2.58,2.58,0,0,0,.32-1.27,2.61,2.61,0,0,0-.32-1.28,2.28,2.28,0,0,0-.89-.88A2.55,2.55,0,0,0,57.2,79a2.51,2.51,0,0,0-1.26.32,2.22,2.22,0,0,0-.89.88,2.51,2.51,0,0,0-.32,1.28,2.47,2.47,0,0,0,.32,1.27,2.24,2.24,0,0,0,.89.89,2.5,2.5,0,0,0,1.26.31A2.54,2.54,0,0,0,58.47,83.6Z"/><path class="cls-2" d="M67,85,65.56,82.9H63.7v2H62.39v-7h2.9a3.73,3.73,0,0,1,1.59.31,2.29,2.29,0,0,1,1,.86,2.38,2.38,0,0,1-1.13,3.57L68.41,85Zm-.47-5.58a2,2,0,0,0-1.3-.36H63.7v2.81h1.53a2,2,0,0,0,1.3-.37,1.28,1.28,0,0,0,.44-1A1.29,1.29,0,0,0,66.53,79.38Z"/><path class="cls-2" d="M69.75,77.91h1.31v7H69.75Z"/><path class="cls-2" d="M74.31,84.59A3.4,3.4,0,0,1,73,83.29a3.69,3.69,0,0,1,0-3.71,3.47,3.47,0,0,1,1.36-1.3,4.24,4.24,0,0,1,3.88,0,3.45,3.45,0,0,1,1.36,1.29,3.61,3.61,0,0,1,.5,1.87,3.55,3.55,0,0,1-.5,1.86,3.45,3.45,0,0,1-1.36,1.29,4.24,4.24,0,0,1-3.88,0Zm3.21-1a2.28,2.28,0,0,0,.88-.89,2.48,2.48,0,0,0,.33-1.27,2.52,2.52,0,0,0-.33-1.28,2.26,2.26,0,0,0-.88-.88,2.68,2.68,0,0,0-2.54,0,2.26,2.26,0,0,0-.88.88,2.52,2.52,0,0,0-.33,1.28,2.48,2.48,0,0,0,.33,1.27,2.28,2.28,0,0,0,.88.89,2.76,2.76,0,0,0,2.54,0Z"/></g></g></svg>