<svg xmlns="http://www.w3.org/2000/svg" viewBox="0 0 72.74 72.74"><defs><style>.cls-1{fill:#4e55a0;}</style></defs><title>Asset 18</title><g id="Layer_2" data-name="Layer 2"><g id="Layer_1-2" data-name="Layer 1"><path class="cls-1" d="M67.84,16.58,56.16,4.9,54.65,6.4,48.25,0h-5.9L0,42.35v5.9l6.4,6.41-1.5,1.5L16.59,67.85l1.5-1.51,6.4,6.4h5.9L72.74,30.39v-5.9l-6.4-6.4Zm2.54,8.89v3.94l-41,41H25.47L2.36,47.28v-4l41-41h4Z"/><polygon class="cls-1" points="60.59 30.36 56.37 16.38 42.38 12.16 60.59 30.36"/><rect class="cls-1" x="45.13" y="15.45" width="1.18" height="23.14" transform="translate(-5.72 40.24) rotate(-45)"/><rect class="cls-1" x="43.29" y="17.29" width="1.18" height="23.14" transform="translate(-7.55 39.48) rotate(-45)"/><path class="cls-1" d="M38,34.14l-4.82-4.82L17.45,45l2.9,2.91,6.36-6.36,1.92,1.91c1.89,1.89,3.38,2.77,5,2.94,1.81.21,3.47-.49,5.17-2.18s2.37-3.33,2.15-5.15C40.75,37.52,39.87,36,38,34.14Zm-2.24,7.09c-1.86,1.86-3.18,1.72-5.52-.62L29,39.34l4.88-4.88,1.26,1.27C37.43,38.07,37.58,39.39,35.74,41.23Z"/></g></g></svg>