<svg xmlns="http://www.w3.org/2000/svg" viewBox="0 0 13.17 24.54"><defs><style>.cls-1{fill:#797fbb;}</style></defs><title>Asset 36</title><g id="Layer_2" data-name="Layer 2"><g id="Layer_1-2" data-name="Layer 1"><path id="Facebook" class="cls-1" d="M11.56,1.62V5.35H9.15a1,1,0,0,0-1,.86V8.66h3.35c-.13,1.88-.41,3.6-.41,3.6h-3V22.92H3.76V12.26H1.62V8.68H3.76V5.74c0-.53-.1-4.12,4.53-4.12h3.27m0-1.62H8.29A6.27,6.27,0,0,0,3.67,1.64,5.53,5.53,0,0,0,2.15,5.71V7.06H1.62A1.61,1.61,0,0,0,0,8.68v3.58a1.62,1.62,0,0,0,1.62,1.62h.53v9a1.62,1.62,0,0,0,1.61,1.62H8.18A1.63,1.63,0,0,0,9.8,22.92v-9h1.34a1.63,1.63,0,0,0,1.6-1.36c0-.07.29-1.81.43-3.74a1.65,1.65,0,0,0-.43-1.22,1.63,1.63,0,0,0-1.19-.51H9.81V7h1.75a1.62,1.62,0,0,0,1.61-1.62V1.62A1.61,1.61,0,0,0,11.56,0Z"/></g></g></svg>