<svg xmlns="http://www.w3.org/2000/svg" viewBox="0 0 76.15 82"><defs><style>.cls-1{fill:#797fbb;}</style></defs><title>Asset 14</title><g id="Layer_2" data-name="Layer 2"><g id="Layer_1-2" data-name="Layer 1"><path class="cls-1" d="M73,28.71a35.85,35.85,0,0,0-1.82-3.61A46.26,46.26,0,0,0,70,15.7l-.38-1.63-1.6.48c-1.39.43-2.74.91-4.07,1.45a37.65,37.65,0,0,0-5.49-4.23c-.88-.56-1.78-1.09-2.7-1.58a37.81,37.81,0,0,0-12.43-4,46.83,46.83,0,0,0-4.06-5L38.07,0,36.93,1.22a46.83,46.83,0,0,0-4.06,5,37.81,37.81,0,0,0-12.43,4c-.93.49-1.83,1-2.71,1.58A37.56,37.56,0,0,0,12.25,16c-1.33-.54-2.68-1-4.07-1.45l-1.6-.48L6.2,15.7A46.27,46.27,0,0,0,5,25.1c-.66,1.16-1.27,2.37-1.82,3.61A37.4,37.4,0,0,0,1.75,32.5,38.21,38.21,0,0,0,0,43.93a37.76,37.76,0,0,0,.89,8.15,36.66,36.66,0,0,0,1,3.8A38.2,38.2,0,0,0,29.74,81.07a40.41,40.41,0,0,0,4,.68c.6.07,1.21.12,1.82.16.83,0,1.66.09,2.5.09s1.68,0,2.51-.09c.61,0,1.22-.09,1.82-.16a40.21,40.21,0,0,0,4-.68A38.2,38.2,0,0,0,74.25,55.78c.4-1.24.75-2.5,1-3.79A37.74,37.74,0,0,0,73,28.71ZM30.58,9.81a45.83,45.83,0,0,0-4.36,10.4L22,12.91A34.52,34.52,0,0,1,30.58,9.81ZM24.75,27.89a45.17,45.17,0,0,0-.26,4.81,46.12,46.12,0,0,0,1.64,12.15L11.21,19A42.64,42.64,0,0,1,24.75,27.89ZM8.18,24.08a.28.28,0,0,0,0-.09q0-.82.12-1.65v-.09c.06-.57.12-1.13.19-1.7h0L34.57,65.77A42.9,42.9,0,0,1,8.18,24.08Zm-5,19.85A35,35,0,0,1,4,36.35L16.7,58.44,4.49,53.53A34.58,34.58,0,0,1,3.13,43.93ZM5.86,57.46l13.37,5.37,8.3,14.41A35.12,35.12,0,0,1,5.86,57.46ZM35.57,78.77a36.56,36.56,0,0,1-3.82-.49L23.94,64.73s7.21,3.18,11.63,4.76Zm.94-19.94A42.76,42.76,0,0,1,27.63,32.7c0-1.18.05-2.35.14-3.51h0l.09-.88c0-.16,0-.33.05-.49,0-.35.08-.69.13-1a2.54,2.54,0,0,0,0-.29c.12-.78.25-1.56.41-2.33h0A42.75,42.75,0,0,1,35.17,8.42c.13-.19.26-.39.4-.58l.69-.94.25-.32ZM67.64,20.55c.08.57.14,1.13.19,1.7v.09c0,.55.09,1.1.12,1.64v.1A42.91,42.91,0,0,1,41.58,65.77L67.64,20.55ZM64.93,19,50,44.85A46.11,46.11,0,0,0,51.65,32.7a48.16,48.16,0,0,0-.25-4.82A42.56,42.56,0,0,1,64.93,19ZM54.14,12.91l-4.21,7.3a45.42,45.42,0,0,0-4.37-10.4A34.74,34.74,0,0,1,54.14,12.91ZM39.64,58.83V6.58l.24.32c.24.31.47.62.7.94l.4.58a42.75,42.75,0,0,1,6.68,15.73h0c.15.77.29,1.55.4,2.33,0,.1,0,.2,0,.29,0,.35.1.69.14,1,0,.16,0,.33,0,.49s.06.59.08.88h0c.09,1.16.14,2.33.14,3.51A42.76,42.76,0,0,1,39.64,58.83Zm4.75,19.45a36.72,36.72,0,0,1-3.81.49V69.49c3.34-1.19,11.65-4.81,11.65-4.81Zm4.22-1L57,62.78l13.37-5.41A35.09,35.09,0,0,1,48.61,77.24Zm23.08-23.8L59.48,58.37l3.43-5.94c.73-1,3.34-5.58,3.9-6.77h0l5.37-9.32a35,35,0,0,1-.49,17.09Z"/></g></g></svg>