<svg xmlns="http://www.w3.org/2000/svg" viewBox="0 0 306.53 82"><defs><style>.cls-1{fill:#fff;}</style></defs><title>Asset 13</title><g id="Layer_2" data-name="Layer 2"><g id="Layer_1-2" data-name="Layer 1"><path class="cls-1" d="M73,28.71a35.85,35.85,0,0,0-1.82-3.61A46.26,46.26,0,0,0,70,15.7l-.38-1.63-1.6.48c-1.39.43-2.74.91-4.07,1.45a37.65,37.65,0,0,0-5.49-4.23c-.88-.56-1.78-1.09-2.7-1.58a37.81,37.81,0,0,0-12.43-4,46.83,46.83,0,0,0-4.06-5L38.07,0,36.93,1.22a46.83,46.83,0,0,0-4.06,5,37.81,37.81,0,0,0-12.43,4c-.93.49-1.83,1-2.71,1.58A37.56,37.56,0,0,0,12.25,16c-1.33-.54-2.68-1-4.07-1.45l-1.6-.48L6.2,15.7A46.27,46.27,0,0,0,5,25.1c-.66,1.16-1.27,2.37-1.82,3.61A37.4,37.4,0,0,0,1.75,32.5,38.21,38.21,0,0,0,0,43.93a37.76,37.76,0,0,0,.89,8.15,36.66,36.66,0,0,0,1,3.8A38.2,38.2,0,0,0,29.74,81.07a40.41,40.41,0,0,0,4,.68c.6.07,1.21.12,1.82.16.83,0,1.66.09,2.5.09s1.68,0,2.51-.09c.61,0,1.22-.09,1.82-.16a40.21,40.21,0,0,0,4-.68A38.2,38.2,0,0,0,74.25,55.78c.4-1.24.75-2.5,1-3.79A37.74,37.74,0,0,0,73,28.71ZM30.58,9.81a45.83,45.83,0,0,0-4.36,10.4L22,12.91A34.52,34.52,0,0,1,30.58,9.81ZM24.75,27.89a45.17,45.17,0,0,0-.26,4.81,46.12,46.12,0,0,0,1.64,12.15L11.21,19A42.64,42.64,0,0,1,24.75,27.89ZM8.18,24.08a.28.28,0,0,0,0-.09q0-.82.12-1.65v-.09c.06-.57.12-1.13.19-1.7h0L34.57,65.77A42.9,42.9,0,0,1,8.18,24.08Zm-5,19.85A35,35,0,0,1,4,36.35L16.7,58.44,4.49,53.53A34.58,34.58,0,0,1,3.13,43.93ZM5.86,57.46l13.37,5.37,8.3,14.41A35.12,35.12,0,0,1,5.86,57.46ZM35.57,78.77a36.56,36.56,0,0,1-3.82-.49L23.94,64.73s7.21,3.18,11.63,4.76Zm.94-19.94A42.76,42.76,0,0,1,27.63,32.7c0-1.18.05-2.35.14-3.51h0l.09-.88c0-.16,0-.33.05-.49,0-.35.08-.69.13-1a2.54,2.54,0,0,0,0-.29c.12-.78.25-1.56.41-2.33h0A42.75,42.75,0,0,1,35.17,8.42c.13-.19.26-.39.4-.58l.69-.94.25-.32ZM67.64,20.55c.08.57.14,1.13.19,1.7v.09c0,.55.09,1.1.12,1.64v.1A42.91,42.91,0,0,1,41.58,65.77L67.64,20.55ZM64.93,19,50,44.85A46.11,46.11,0,0,0,51.65,32.7a48.16,48.16,0,0,0-.25-4.82A42.56,42.56,0,0,1,64.93,19ZM54.14,12.91l-4.21,7.3a45.42,45.42,0,0,0-4.37-10.4A34.74,34.74,0,0,1,54.14,12.91ZM39.64,58.83V6.58l.24.32c.24.31.47.62.7.94l.4.58a42.75,42.75,0,0,1,6.68,15.73h0c.15.77.29,1.55.4,2.33,0,.1,0,.2,0,.29,0,.35.1.69.14,1,0,.16,0,.33,0,.49s.06.59.08.88h0c.09,1.16.14,2.33.14,3.51A42.76,42.76,0,0,1,39.64,58.83Zm4.75,19.45a36.72,36.72,0,0,1-3.81.49V69.49c3.34-1.19,11.65-4.81,11.65-4.81Zm4.22-1L57,62.78l13.37-5.41A35.09,35.09,0,0,1,48.61,77.24Zm23.08-23.8L59.48,58.37l3.43-5.94c.73-1,3.34-5.58,3.9-6.77h0l5.37-9.32a35,35,0,0,1-.49,17.09Z"/><path class="cls-1" d="M113.34,53.44a10.85,10.85,0,0,0-5.2-1.21h-7.45V71.05h7.45a11,11,0,0,0,5.2-1.21,8.93,8.93,0,0,0,3.54-3.35,10,10,0,0,0,0-9.71A8.84,8.84,0,0,0,113.34,53.44Zm2.35,12.44a7.37,7.37,0,0,1-3.06,2.89,9.84,9.84,0,0,1-4.6,1h-6V53.47h6a9.84,9.84,0,0,1,4.6,1,7.37,7.37,0,0,1,3.06,2.89,8.88,8.88,0,0,1,0,8.49Z"/><polygon class="cls-1" points="128.03 62.09 138.06 62.09 138.06 60.88 128.03 60.88 128.03 53.47 139.24 53.47 139.24 52.23 126.66 52.23 126.66 71.05 139.64 71.05 139.64 69.81 128.03 69.81 128.03 62.09"/><polygon class="cls-1" points="149.78 52.23 148.41 52.23 148.41 71.05 160.61 71.05 160.61 69.81 149.78 69.81 149.78 52.23"/><polygon class="cls-1" points="184.56 69.27 176.95 52.23 175.45 52.23 183.84 71.05 185.21 71.05 193.59 52.23 192.17 52.23 184.56 69.27"/><path class="cls-1" d="M205.34,52.23l-8.66,18.82h1.48l2.4-5.3h10.91l2.42,5.3h1.48l-8.66-18.82Zm-4.25,12.36L206,53.73l5,10.86Z"/><polygon class="cls-1" points="223.91 52.23 222.54 52.23 222.54 71.05 234.75 71.05 234.75 69.81 223.91 69.81 223.91 52.23"/><polygon class="cls-1" points="243.4 52.23 242.03 52.23 242.03 71.05 254.24 71.05 254.24 69.81 243.4 69.81 243.4 52.23"/><polygon class="cls-1" points="262.89 62.09 272.92 62.09 272.92 60.88 262.89 60.88 262.89 53.47 274.1 53.47 274.1 52.23 261.52 52.23 261.52 71.05 274.5 71.05 274.5 69.81 262.89 69.81 262.89 62.09"/><path class="cls-1" d="M107.29,16.13a12.46,12.46,0,0,1,6-1.44,11.8,11.8,0,0,1,8.51,3.39l2.6-2.6a13.08,13.08,0,0,0-4.88-3.37,17,17,0,0,0-6.4-1.16,16.83,16.83,0,0,0-8.07,1.93,14.24,14.24,0,0,0-5.62,5.37,14.87,14.87,0,0,0-2,7.72,14.75,14.75,0,0,0,2,7.7,14.37,14.37,0,0,0,5.6,5.36,16.38,16.38,0,0,0,8,1.95,19,19,0,0,0,6-1,15.55,15.55,0,0,0,5.07-2.77V25.8h-.07v-.08H113.79v4.12h6.36v5.52a12.43,12.43,0,0,1-6.88,1.89,12.18,12.18,0,0,1-6-1.47,10.66,10.66,0,0,1-4.17-4A11.2,11.2,0,0,1,101.61,26a11.26,11.26,0,0,1,1.51-5.81A10.63,10.63,0,0,1,107.29,16.13Z"/><path class="cls-1" d="M146.07,11.29l-13.3,29.36h4.32l3.23-7.34h15.6l3.23,7.34h4.4L150.22,11.29ZM141.79,30l6.33-14.38L154.45,30Z"/><path class="cls-1" d="M177.14,31.72h7.26c.45,0,1.06,0,1.84-.09l6.34,9h4.57l-7-9.86A9.4,9.4,0,0,0,195,27.31a9.8,9.8,0,0,0,1.68-5.79,9.21,9.21,0,0,0-3.28-7.5q-3.27-2.73-9-2.73H173V40.65h4.19Zm0-16.78h7.13a9.45,9.45,0,0,1,6.08,1.7,5.91,5.91,0,0,1,2.1,4.88,6,6,0,0,1-2.1,4.91q-2.08,1.72-6.08,1.72h-7.13Z"/><path class="cls-1" d="M229.11,13.14a17.91,17.91,0,0,0-8.26-1.85H208.47V40.65h12.38a17.91,17.91,0,0,0,8.26-1.85,13.55,13.55,0,0,0,5.6-5.18,14.69,14.69,0,0,0,2-7.65,14.69,14.69,0,0,0-2-7.65A13.55,13.55,0,0,0,229.11,13.14ZM231,31.74a10.06,10.06,0,0,1-4.18,3.88A13.6,13.6,0,0,1,220.59,37h-7.92V14.94h7.92a13.6,13.6,0,0,1,6.27,1.38A10.06,10.06,0,0,1,231,20.2,11.27,11.27,0,0,1,232.5,26,11.27,11.27,0,0,1,231,31.74Z"/><polygon class="cls-1" points="269.45 37 252.34 37 252.34 27.52 267.06 27.52 267.06 23.96 252.34 23.96 252.34 14.94 268.87 14.94 268.87 11.29 248.15 11.29 248.15 40.65 269.45 40.65 269.45 37"/><polygon class="cls-1" points="302.33 11.29 302.33 33.18 284.72 11.29 281.28 11.29 281.28 40.65 285.48 40.65 285.48 18.76 303.09 40.65 306.53 40.65 306.53 11.29 302.33 11.29"/><path class="cls-1" d="M285,52.61a3,3,0,0,0-1.49-.38,2.94,2.94,0,0,0-1.5.39,3,3,0,0,0-1.06,4A2.84,2.84,0,0,0,282,57.71a2.87,2.87,0,0,0,1.48.39,2.91,2.91,0,0,0,1.49-.39A2.82,2.82,0,0,0,286,56.64a3,3,0,0,0,0-3A2.79,2.79,0,0,0,285,52.61Zm.71,3.85a2.56,2.56,0,0,1-.92.93,2.64,2.64,0,0,1-2.59,0,2.46,2.46,0,0,1-.91-.93,2.64,2.64,0,0,1,0-2.59,2.42,2.42,0,0,1,.92-.93,2.6,2.6,0,0,1,1.3-.34,2.5,2.5,0,0,1,1.3.34,2.34,2.34,0,0,1,.91.91,2.59,2.59,0,0,1,.33,1.3A2.66,2.66,0,0,1,285.67,56.46Z"/><path class="cls-1" d="M284.77,55.27a1,1,0,0,0,.19-.64,1,1,0,0,0-.36-.82,1.47,1.47,0,0,0-1-.31h-1.33v3.33h.56V55.77h.91l.69,1.06H285l-.76-1.17A1,1,0,0,0,284.77,55.27Zm-1.2,0h-.73V54h.73a1,1,0,0,1,.62.17.58.58,0,0,1,.22.48.6.6,0,0,1-.22.49A1,1,0,0,1,283.57,55.3Z"/></g></g></svg>