<svg xmlns="http://www.w3.org/2000/svg" viewBox="0 0 95 47"><defs><style>.cls-1{fill:#797fbb;}.cls-2{fill:#fff;}</style></defs><title>Asset 8</title><g id="Layer_2" data-name="Layer 2"><g id="Layer_1-2" data-name="Layer 1"><rect class="cls-1" width="95" height="47"/><path class="cls-2" d="M32.71,9.81H22.07a8.87,8.87,0,0,0-8.87,8.87V29.32a8.87,8.87,0,0,0,8.87,8.87H32.71a8.87,8.87,0,0,0,8.87-8.87V18.68A8.87,8.87,0,0,0,32.71,9.81Zm6.21,19.51a6.22,6.22,0,0,1-6.21,6.21H22.07a6.22,6.22,0,0,1-6.21-6.21V18.68a6.22,6.22,0,0,1,6.21-6.21H32.71a6.21,6.21,0,0,1,6.21,6.21Z"/><path class="cls-2" d="M27.39,16.9a7.1,7.1,0,1,0,7.1,7.1A7.09,7.09,0,0,0,27.39,16.9Zm0,11.53A4.43,4.43,0,1,1,31.83,24,4.44,4.44,0,0,1,27.39,28.43Z"/><circle class="cls-2" cx="35.02" cy="16.37" r="0.95"/></g></g></svg>