<svg xmlns="http://www.w3.org/2000/svg" viewBox="0 0 22.93 22.93"><defs><style>.cls-1{fill:#797fbb;}</style></defs><title>Asset 37</title><g id="Layer_2" data-name="Layer 2"><g id="Layer_1-2" data-name="Layer 1"><path class="cls-1" d="M15.77,0H7.17A7.17,7.17,0,0,0,0,7.17v8.6a7.17,7.17,0,0,0,7.17,7.16h8.6a7.17,7.17,0,0,0,7.16-7.16V7.17A7.17,7.17,0,0,0,15.77,0Zm5,15.77a5,5,0,0,1-5,5H7.17a5,5,0,0,1-5-5V7.17a5,5,0,0,1,5-5h8.6a5,5,0,0,1,5,5Z"/><path class="cls-1" d="M11.47,5.73a5.74,5.74,0,1,0,5.73,5.74A5.74,5.74,0,0,0,11.47,5.73Zm0,9.32a3.59,3.59,0,1,1,3.58-3.58A3.59,3.59,0,0,1,11.47,15.05Z"/><circle class="cls-1" cx="17.63" cy="5.3" r="0.76"/></g></g></svg>