<svg xmlns="http://www.w3.org/2000/svg" viewBox="0 0 95 95"><defs><style>.cls-1{fill:#b0d31e;}.cls-2{fill:#1d1d1b;}</style></defs><title>Asset 10</title><g id="Layer_2" data-name="Layer 2"><g id="Layer_1-2" data-name="Layer 1"><rect class="cls-1" x="40.88" y="55.12" width="3.49" height="3.49" transform="translate(-23.28 30.27) rotate(-31.17)"/><path class="cls-1" d="M50,32a5.24,5.24,0,1,0-1.77,7.19A5.25,5.25,0,0,0,50,32ZM46.44,36.2a1.75,1.75,0,0,1-1.81-3,1.75,1.75,0,0,1,1.81,3Z"/><rect class="cls-1" x="37.26" y="49.15" width="3.49" height="3.49" transform="matrix(0.86, -0.52, 0.52, 0.86, -20.71, 27.53)"/><rect class="cls-1" x="30.03" y="37.2" width="3.49" height="3.49" transform="translate(-15.57 22.07) rotate(-31.17)"/><rect class="cls-1" x="33.65" y="43.17" width="3.49" height="3.49" transform="translate(-18.14 24.8) rotate(-31.17)"/><path class="cls-1" d="M59,36.75a5.24,5.24,0,1,0,7.19,1.77A5.24,5.24,0,0,0,59,36.75Zm3.61,6a1.75,1.75,0,1,1-1.8-3,1.75,1.75,0,0,1,1.8,3Z"/><path class="cls-1" d="M0,0V95H95V0ZM78.51,45.36,36.68,70.66a3.44,3.44,0,0,1-4.79-1.18L27.37,62A1.73,1.73,0,0,1,28,59.62a5.24,5.24,0,0,0-5.42-9,1.74,1.74,0,0,1-2.4-.59l-4.52-7.47A3.5,3.5,0,0,1,16.8,37.8L58.63,12.5a3.45,3.45,0,0,1,4.8,1.18L79.69,40.57A3.44,3.44,0,0,1,78.51,45.36Z"/><path class="cls-1" d="M55.94,22.76a1.76,1.76,0,0,0-2,1.46l-4.09,27a1.73,1.73,0,0,0,1.46,2,1.69,1.69,0,0,0,1.17-.23,1.74,1.74,0,0,0,.82-1.22l4.09-27A1.74,1.74,0,0,0,55.94,22.76Z"/><path class="cls-2" d="M12.26,78.6a2.34,2.34,0,0,1,1,.86,2.44,2.44,0,0,1,.36,1.34,2.41,2.41,0,0,1-.36,1.33,2.3,2.3,0,0,1-1,.87,3.81,3.81,0,0,1-1.6.31H9.07v2H7.76v-7h2.9A3.81,3.81,0,0,1,12.26,78.6Zm-.36,3.24a1.45,1.45,0,0,0,0-2.08,2,2,0,0,0-1.3-.36H9.07v2.8H10.6A2,2,0,0,0,11.9,81.84Z"/><path class="cls-2" d="M19.58,85.34l-1.44-2.06H16.28v2H15v-7h2.9a3.73,3.73,0,0,1,1.59.31,2.37,2.37,0,0,1,1.05.86,2.44,2.44,0,0,1,.36,1.34,2.37,2.37,0,0,1-.39,1.37,2.28,2.28,0,0,1-1.11.85L21,85.34Zm-.47-5.58a2,2,0,0,0-1.3-.36H16.28v2.81h1.53a2,2,0,0,0,1.3-.37,1.45,1.45,0,0,0,0-2.08Z"/><path class="cls-2" d="M23.68,85a3.4,3.4,0,0,1-1.36-1.3,3.69,3.69,0,0,1,0-3.71,3.47,3.47,0,0,1,1.36-1.3,4.24,4.24,0,0,1,3.88,0A3.45,3.45,0,0,1,28.92,80a3.73,3.73,0,0,1,0,3.73A3.45,3.45,0,0,1,27.56,85a4.24,4.24,0,0,1-3.88,0Zm3.21-1a2.35,2.35,0,0,0,.88-.89,2.48,2.48,0,0,0,.33-1.27,2.52,2.52,0,0,0-.33-1.28,2.26,2.26,0,0,0-.88-.88,2.68,2.68,0,0,0-2.54,0,2.26,2.26,0,0,0-.88.88,2.52,2.52,0,0,0-.33,1.28,2.48,2.48,0,0,0,.33,1.27,2.35,2.35,0,0,0,.88.89,2.76,2.76,0,0,0,2.54,0Z"/><path class="cls-2" d="M37.28,85.34V80.67L35,84.53h-.58l-2.32-3.8v4.61H30.8v-7h1.08L34.68,83l2.75-4.67h1.08v7Z"/><path class="cls-2" d="M41.77,85a3.4,3.4,0,0,1-1.36-1.3,3.69,3.69,0,0,1,0-3.71,3.47,3.47,0,0,1,1.36-1.3,4.24,4.24,0,0,1,3.88,0A3.45,3.45,0,0,1,47,80a3.73,3.73,0,0,1,0,3.73A3.45,3.45,0,0,1,45.65,85a4.24,4.24,0,0,1-3.88,0ZM45,84a2.35,2.35,0,0,0,.88-.89,2.48,2.48,0,0,0,.33-1.27,2.52,2.52,0,0,0-.33-1.28,2.26,2.26,0,0,0-.88-.88,2.68,2.68,0,0,0-2.54,0,2.26,2.26,0,0,0-.88.88,2.52,2.52,0,0,0-.33,1.28,2.48,2.48,0,0,0,.33,1.27,2.35,2.35,0,0,0,.88.89A2.76,2.76,0,0,0,45,84Z"/><path class="cls-2" d="M50.23,85a3.36,3.36,0,0,1-1.35-1.29,3.54,3.54,0,0,1-.49-1.86A3.67,3.67,0,0,1,48.88,80a3.45,3.45,0,0,1,1.36-1.29,4,4,0,0,1,1.93-.47,4.08,4.08,0,0,1,1.58.3,3.31,3.31,0,0,1,1.2.88l-.84.8a2.47,2.47,0,0,0-1.88-.83,2.64,2.64,0,0,0-1.3.32,2.31,2.31,0,0,0-.9.88,2.56,2.56,0,0,0-.32,1.28A2.61,2.61,0,0,0,50,83.1a2.45,2.45,0,0,0,.9.88,2.63,2.63,0,0,0,1.3.31,2.47,2.47,0,0,0,1.88-.83l.84.8a3.06,3.06,0,0,1-1.21.88,4.08,4.08,0,0,1-1.58.3A4,4,0,0,1,50.23,85Z"/><path class="cls-2" d="M56.21,78.29h1.31v7H56.21Z"/><path class="cls-2" d="M60.77,85a3.47,3.47,0,0,1-1.36-1.3,3.76,3.76,0,0,1,0-3.71,3.54,3.54,0,0,1,1.36-1.3,4.26,4.26,0,0,1,3.89,0A3.45,3.45,0,0,1,66,80a3.58,3.58,0,0,1,.49,1.87A3.54,3.54,0,0,1,66,83.68,3.45,3.45,0,0,1,64.66,85a4.26,4.26,0,0,1-3.89,0ZM64,84a2.31,2.31,0,0,0,.89-.89,2.47,2.47,0,0,0,.32-1.27,2.51,2.51,0,0,0-.32-1.28,2.22,2.22,0,0,0-.89-.88,2.51,2.51,0,0,0-1.26-.32,2.55,2.55,0,0,0-1.27.32,2.28,2.28,0,0,0-.89.88,2.61,2.61,0,0,0-.32,1.28,2.58,2.58,0,0,0,.32,1.27,2.38,2.38,0,0,0,.89.89,2.54,2.54,0,0,0,1.27.31A2.5,2.5,0,0,0,64,84Z"/><path class="cls-2" d="M74.16,78.29v7H73.09L69.2,80.57v4.77H67.9v-7H69l3.88,4.77V78.29Z"/><path class="cls-2" d="M81.34,84.24v1.1H76.06v-7H81.2v1.1H77.36v1.83h3.41V82.3H77.36v1.94Z"/><path class="cls-2" d="M83.41,85.21a3.21,3.21,0,0,1-1.2-.61l.45-1a3.66,3.66,0,0,0,1.06.56,4,4,0,0,0,1.26.21,2.18,2.18,0,0,0,1.18-.25.75.75,0,0,0,.38-.66.66.66,0,0,0-.21-.5,1.72,1.72,0,0,0-.55-.31c-.22-.07-.52-.16-.91-.25a10.78,10.78,0,0,1-1.3-.38,2.24,2.24,0,0,1-.86-.6,1.65,1.65,0,0,1-.35-1.1,1.91,1.91,0,0,1,.31-1.07,2.26,2.26,0,0,1,1-.76,4,4,0,0,1,1.57-.28,5.37,5.37,0,0,1,1.26.16,3.56,3.56,0,0,1,1.08.47l-.41,1a3.93,3.93,0,0,0-1-.41,3.73,3.73,0,0,0-1-.14,2.1,2.1,0,0,0-1.16.26.82.82,0,0,0-.37.7.64.64,0,0,0,.21.49,1.53,1.53,0,0,0,.55.3,8.25,8.25,0,0,0,.91.25,9.89,9.89,0,0,1,1.29.38,2.24,2.24,0,0,1,.86.6,1.62,1.62,0,0,1,.35,1.09,1.82,1.82,0,0,1-.31,1.05,2.22,2.22,0,0,1-1,.76,3.87,3.87,0,0,1-1.57.28A5.52,5.52,0,0,1,83.41,85.21Z"/></g></g></svg>