<svg xmlns="http://www.w3.org/2000/svg" viewBox="0 0 94.96 94.96"><defs><style>.cls-1{fill:#b0d31e;}.cls-2{fill:#1d1d1b;}</style></defs><title>Asset 9</title><g id="Layer_2" data-name="Layer 2"><g id="Layer_1-2" data-name="Layer 1"><path class="cls-1" d="M47.59,19.74a11,11,0,1,0,11,11A11,11,0,0,0,47.59,19.74Zm0,20.14a9.17,9.17,0,1,1,9.17-9.17A9.18,9.18,0,0,1,47.59,39.88Z"/><path class="cls-1" d="M0,0V95H95V0ZM47.59,73.52c-7.93,0-14.38-3.78-14.38-8.43,0-3.43,3.61-6.52,9.06-7.81L47.59,66l5.32-8.76C58.35,58.56,62,61.66,62,65.09,62,69.74,55.52,73.52,47.59,73.52ZM61.92,39,47.59,62.58,33.27,39a16.43,16.43,0,1,1,28.65,0Z"/><path class="cls-2" d="M18.89,84.24a3.21,3.21,0,0,1-.81-2.35v-4h1.31v3.92c0,1.39.59,2.08,1.79,2.08S23,83.22,23,81.83V77.91h1.29v4a3.21,3.21,0,0,1-.81,2.35,3.08,3.08,0,0,1-2.27.82A3.1,3.1,0,0,1,18.89,84.24Z"/><path class="cls-2" d="M32,81.93A1.77,1.77,0,0,1,32.34,83a1.63,1.63,0,0,1-.7,1.42,3.58,3.58,0,0,1-2.06.5h-3.5v-7h3.3a3.19,3.19,0,0,1,1.92.49A1.56,1.56,0,0,1,32,79.74a1.79,1.79,0,0,1-.24.93,1.61,1.61,0,0,1-.67.62A1.88,1.88,0,0,1,32,81.93Zm-4.61-3v1.94h1.85a1.81,1.81,0,0,0,1.05-.25.79.79,0,0,0,.37-.72.82.82,0,0,0-.37-.73,1.9,1.9,0,0,0-1.05-.24Zm3.63,4c0-.68-.5-1-1.52-1H27.39v2H29.5C30.52,83.93,31,83.59,31,82.91Z"/><path class="cls-2" d="M33.74,77.91h1.31v7H33.74Z"/><path class="cls-2" d="M38.29,84.59a3.32,3.32,0,0,1-1.35-1.3,3.78,3.78,0,0,1,0-3.72,3.45,3.45,0,0,1,1.36-1.29,3.85,3.85,0,0,1,1.92-.47,4,4,0,0,1,1.58.3A3.13,3.13,0,0,1,43,79l-.84.79A2.47,2.47,0,0,0,40.28,79a2.62,2.62,0,0,0-1.29.31,2.24,2.24,0,0,0-.9.88,2.61,2.61,0,0,0-.32,1.28,2.59,2.59,0,0,0,.32,1.28,2.18,2.18,0,0,0,.9.88,2.62,2.62,0,0,0,1.29.32,2.45,2.45,0,0,0,1.89-.84l.84.81a3.21,3.21,0,0,1-1.21.87,4.19,4.19,0,0,1-3.51-.16Z"/><path class="cls-2" d="M48.69,83.33H45.17L44.47,85H43.12l3.17-7h1.29l3.18,7H49.39Zm-.43-1-1.33-3.08L45.61,82.3Z"/><path class="cls-2" d="M52.89,84.59a3.44,3.44,0,0,1-1.35-1.3,3.6,3.6,0,0,1-.48-1.86,3.54,3.54,0,0,1,.49-1.86,3.49,3.49,0,0,1,1.35-1.29,3.91,3.91,0,0,1,1.93-.47,4,4,0,0,1,1.58.3,3.13,3.13,0,0,1,1.21.88l-.85.79A2.45,2.45,0,0,0,54.89,79a2.69,2.69,0,0,0-1.3.31,2.28,2.28,0,0,0-.89.88,2.52,2.52,0,0,0-.33,1.28,2.49,2.49,0,0,0,.33,1.28,2.22,2.22,0,0,0,.89.88,2.69,2.69,0,0,0,1.3.32,2.43,2.43,0,0,0,1.88-.84l.85.81a3.21,3.21,0,0,1-1.21.87,3.92,3.92,0,0,1-1.59.31A4,4,0,0,1,52.89,84.59Z"/><path class="cls-2" d="M58.88,77.91h1.31v7H58.88Z"/><path class="cls-2" d="M63.44,84.59a3.47,3.47,0,0,1-1.36-1.3,3.76,3.76,0,0,1,0-3.71,3.4,3.4,0,0,1,1.36-1.3,4.24,4.24,0,0,1,3.88,0,3.45,3.45,0,0,1,1.36,1.29,3.71,3.71,0,0,1,0,3.72,3.4,3.4,0,0,1-1.36,1.3,4.24,4.24,0,0,1-3.88,0Zm3.21-1a2.42,2.42,0,0,0,.89-.88,2.61,2.61,0,0,0,.32-1.28,2.58,2.58,0,0,0-.32-1.27,2.38,2.38,0,0,0-.89-.89,2.76,2.76,0,0,0-2.54,0,2.28,2.28,0,0,0-.88.89,2.48,2.48,0,0,0-.33,1.27,2.52,2.52,0,0,0,.33,1.28,2.32,2.32,0,0,0,.88.88,2.68,2.68,0,0,0,2.54,0ZM65.89,76h1.48l-1.75,1.37H64.54Z"/><path class="cls-2" d="M76.83,77.91v7H75.75l-3.89-4.78V85H70.57v-7h1.07l3.89,4.77V77.91Z"/></g></g></svg>