<svg xmlns="http://www.w3.org/2000/svg" viewBox="0 0 138.76 77.22"><defs><style>.cls-1{fill:#1b75bb;}</style></defs><title>Asset 27</title><g id="Layer_2" data-name="Layer 2"><g id="Layer_1-2" data-name="Layer 1"><path class="cls-1" d="M26.49,51.8C15.87,51.8,9,54.7,9,61.46c0,6.33,4.72,8.68,11.05,8.68,9.66,0,14.59-7,14.8-15.12V51.8ZM2.25,32.18c5.15-5.26,12.66-7.73,20-7.73,14.8,0,21,7.09,21,21.24V67.25A55.54,55.54,0,0,0,44,75.93h-8a36.17,36.17,0,0,1-.53-7.49h-.22a19,19,0,0,1-16.52,8.78C8.47,77.22,0,72.07,0,62.31,0,45.69,19.3,44.72,31.64,44.72h3.21v-1.5c0-7.29-4.61-11-12.44-11a22.22,22.22,0,0,0-14.9,5.47Z"/><path class="cls-1" d="M114.63,24.45c-8.26,0-14.48,4.62-16.73,9.55h-.22c0-1.06,0-2.12-.07-3.18V25.74H89.23V50.2c0,11.47-4.71,19.3-15.55,19.3-7.83,0-11.47-5.25-11.47-13.62V25.74H53.84v31c0,12.12,5.9,20.48,19.09,20.48,8.26,0,14.48-4.61,16.73-9.54h.22c0,1.06,0,2.11.08,3.16v5.09h8.37V51.48c0-11.48,4.5-18.66,14.69-18.66a15.69,15.69,0,0,1,4.5.64l.54-8.47a9.92,9.92,0,0,0-3.43-.54"/><path class="cls-1" d="M132.65,0a6.11,6.11,0,0,1,6.11,6.11,6.11,6.11,0,1,1-12.22,0A6.1,6.1,0,0,1,132.65,0"/><rect class="cls-1" x="128.46" y="25.74" width="8.37" height="50.2"/></g></g></svg>