<svg xmlns="http://www.w3.org/2000/svg" viewBox="0 0 201.73 32.82"><defs><style>.cls-1{fill:#002856;}</style></defs><title>Logo Mifel</title><g id="Layer_2" data-name="Layer 2"><g id="Layer_1-2" data-name="Layer 1"><g id="Logo_Mifel" data-name="Logo Mifel"><path class="cls-1" d="M35,11.88c11.61,1.25,10.33,13.29,5.79,20.62H32.61c8-14.78-.29-20.61-6-20.62H35m-9.74,0C36.83,13.13,35.57,25.17,31,32.5H22.83c8-14.78,0-20.45-5.82-20.62h8.23m-9.78,0c11.61,1.27,10.34,13.3,5.79,20.67H13.1c8-14.82-.17-20-5-20.67h7.38M9.05,20.78C-2.55,19.53-1.25,7.37,3.3,0h8.16C4.13,13.06,10,19.89,16.33,20.68Z"/><path class="cls-1" d="M69.64,13.59a4.91,4.91,0,0,1,0,3.16,6.49,6.49,0,0,1-1.79,3A6.75,6.75,0,0,1,66.05,21a3,3,0,0,1,1.74,1.83,5.25,5.25,0,0,1-.12,3,8.31,8.31,0,0,1-1.83,3.29A7.55,7.55,0,0,1,64,30.76a7.25,7.25,0,0,1-2.5,1,14.68,14.68,0,0,1-2.86.28l-8.85,0L55.7,11.36h9.49Q68.78,11.43,69.64,13.59ZM56.26,22.94l-1.58,5.53h4.81a5.12,5.12,0,0,0,2.1-.35,3.78,3.78,0,0,0,2-2.59c.3-1.07.09-1.82-.63-2.22A4.22,4.22,0,0,0,61.12,23Zm2.29-8-1.3,4.57h4.8A4.72,4.72,0,0,0,64.29,19a2.84,2.84,0,0,0,1.33-1.82c.26-1,.1-1.6-.51-1.91A6.56,6.56,0,0,0,62.86,15Z"/><path class="cls-1" d="M77.26,22.79a6.82,6.82,0,0,0,1.61-.35A1.81,1.81,0,0,0,80,21.31c.17-.63.09-1.06-.26-1.3a3,3,0,0,0-1.7-.36,3,3,0,0,0-2.1.69A4.43,4.43,0,0,0,75,21.75H71.37a8.38,8.38,0,0,1,2-3.3,7.91,7.91,0,0,1,5.73-2,7.21,7.21,0,0,1,3.93,1c1,.68,1.29,1.93.76,3.77l-2,7c-.13.48-.29,1.07-.47,1.76a2.32,2.32,0,0,0-.09,1.08,1,1,0,0,0,.43.46l-.16.59H77.36a4.15,4.15,0,0,1,0-.87,6.49,6.49,0,0,1,.16-.93,11.8,11.8,0,0,1-2.24,1.52,6.42,6.42,0,0,1-3,.75,3.47,3.47,0,0,1-2.9-1.19A3.66,3.66,0,0,1,69.09,28a6.4,6.4,0,0,1,3.23-4.07,10.68,10.68,0,0,1,3.6-1ZM79,24.66a5.08,5.08,0,0,1-.82.39,9.61,9.61,0,0,1-1.08.28l-.9.16a7,7,0,0,0-1.88.54A2.7,2.7,0,0,0,73,27.73a1.53,1.53,0,0,0,.11,1.49,1.48,1.48,0,0,0,1.17.45,4.71,4.71,0,0,0,2.47-.75,4.79,4.79,0,0,0,1.87-2.77Z"/><path class="cls-1" d="M100,21.84,97,32.15H93.17l2.66-9.31A4.58,4.58,0,0,0,96.06,21c-.15-.78-.75-1.18-1.79-1.18a3.66,3.66,0,0,0-3.13,1.72,8,8,0,0,0-1,2.34l-2.37,8.28H84l4.37-15.28H92l-.64,2.23a9.81,9.81,0,0,1,1.87-1.69,5.8,5.8,0,0,1,3.22-.93,4.15,4.15,0,0,1,3.31,1.25C100.47,18.55,100.54,19.92,100,21.84Z"/><path class="cls-1" d="M111.89,22.35a3.19,3.19,0,0,0-.11-1.55,1.64,1.64,0,0,0-1.72-.92,3.68,3.68,0,0,0-3.17,2,11.12,11.12,0,0,0-1.19,2.84,8.17,8.17,0,0,0-.4,2.71,1.8,1.8,0,0,0,2,1.91,2.9,2.9,0,0,0,2.11-.75,5.45,5.45,0,0,0,1.24-2l3.85,0a10,10,0,0,1-2.23,3.45,8.1,8.1,0,0,1-6,2.61q-3.49,0-4.49-2.2a8.14,8.14,0,0,1,0-5.69,12.6,12.6,0,0,1,3.57-6.13A8.18,8.18,0,0,1,111,16.49a5.81,5.81,0,0,1,4.08,1.3c.9.86,1.15,2.39.73,4.57Z"/><path class="cls-1" d="M123.81,22.88a7.25,7.25,0,0,0,1.59-.34,1.78,1.78,0,0,0,1.14-1.15c.17-.62.09-1.05-.25-1.3a3.23,3.23,0,0,0-1.7-.36,2.94,2.94,0,0,0-2.1.7,4.5,4.5,0,0,0-.94,1.41l-3.64,0a8.61,8.61,0,0,1,2-3.29,7.89,7.89,0,0,1,5.74-2,7.1,7.1,0,0,1,3.93,1q1.56,1,.76,3.77l-2,7c-.13.48-.29,1.07-.46,1.77a2.27,2.27,0,0,0-.09,1.07.88.88,0,0,0,.42.46l-.16.59h-4.11a4.18,4.18,0,0,1,0-.87c0-.28.09-.59.16-.93a12.34,12.34,0,0,1-2.24,1.53,6.41,6.41,0,0,1-3,.74A3.51,3.51,0,0,1,116,31.48a3.64,3.64,0,0,1-.31-3.37A6.39,6.39,0,0,1,118.88,24a11,11,0,0,1,3.59-1Zm1.75,1.87a4.75,4.75,0,0,1-.83.39,6.75,6.75,0,0,1-1.08.27l-.89.16a6.76,6.76,0,0,0-1.88.56,2.6,2.6,0,0,0-1.35,1.69,1.56,1.56,0,0,0,.1,1.49,1.52,1.52,0,0,0,1.17.45,4.44,4.44,0,0,0,4.34-3.51Z"/><path class="cls-1" d="M157.14,11.54l5.88,0-5.94,20.71h-3.81l4-14,.51-1.69c.22-.73.38-1.28.48-1.68L149.6,32.25h-4l1.3-17.38-.46,1.68c-.19.73-.37,1.29-.48,1.69l-4,14h-3.8l5.93-20.71h5.94l-1.13,16.29Z"/><path class="cls-1" d="M164.92,17h3.83l-4.38,15.31h-3.83Zm4.37-1.82h-3.84l1.07-3.69h3.83Z"/><path class="cls-1" d="M180.7,11.46l-.94,3.27c-.21,0-.56-.05-1-.07a1.57,1.57,0,0,0-1.13.35,1.71,1.71,0,0,0-.52.82l-.39,1.3h2.49L178.34,20h-2.48l-3.52,12.34h-3.77l3.53-12.35H170l.82-2.83h2.07l.28-1a7.13,7.13,0,0,1,1.75-3.38c.82-.92,2.27-1.38,4.36-1.38l.64,0Z"/><path class="cls-1" d="M191.89,19.59a6.79,6.79,0,0,1,.2,3.16,23.89,23.89,0,0,1-.75,3l-9.88,0c-.39,1.54-.25,2.62.43,3.23a2.41,2.41,0,0,0,1.71.59,3.43,3.43,0,0,0,2.11-.7,5.43,5.43,0,0,0,1-1.06h3.86a7.62,7.62,0,0,1-2.13,2.77,8.54,8.54,0,0,1-5.85,2.22,5.31,5.31,0,0,1-4.32-1.89c-1-1.26-1.17-3.31-.36-6.13a12.08,12.08,0,0,1,3.66-6.09,8.38,8.38,0,0,1,5.55-2.11,5.9,5.9,0,0,1,3,.72A3.89,3.89,0,0,1,191.89,19.59Zm-9.59,3.53h5.88a3,3,0,0,0-.23-2.4,2,2,0,0,0-1.79-.84,3.35,3.35,0,0,0-2.28.87A6.43,6.43,0,0,0,182.3,23.12Z"/><path class="cls-1" d="M195.79,32.34H192L198,11.62l3.78,0Z"/></g></g></g></svg>