<svg xmlns="http://www.w3.org/2000/svg" viewBox="0 0 201.79 70.61"><defs><style>.cls-1{fill:#e51d38;stroke:#e51d38;}.cls-1,.cls-2,.cls-3{stroke-miterlimit:10;stroke-width:0.09px;}.cls-2{fill:#ffc228;stroke:#ffc228;}.cls-3{fill:#fff;stroke:#fff;}</style></defs><title>Asset 25</title><g id="Layer_2" data-name="Layer 2"><g id="Layer_1-2" data-name="Layer 1"><path class="cls-1" d="M33.9.05a6.45,6.45,0,0,1,4.35,1.49,7.5,7.5,0,0,1,1.53,2.13,3.73,3.73,0,0,1,.48,1.25,20.7,20.7,0,0,1,.11,2.94,10.76,10.76,0,0,0,.15,1.71c0,1.71-.06,3.42-.05,5.13,0,.62.1,1.22.13,1.83a1.46,1.46,0,0,0,.3,0c.45-.61.92-1.2,1.42-1.77.73-.78,1.52-1.47,2.21-2.26a18.18,18.18,0,0,1,2.17-1.82,19.23,19.23,0,0,1,2.43-1.55A12.84,12.84,0,0,1,52,7.84,27.59,27.59,0,0,1,59.27,6c.76-.12,1.52-.1,2.28-.18a14.19,14.19,0,0,1,2.52.08,21.25,21.25,0,0,1,3.17.46,13.25,13.25,0,0,1,1.52.32,26.09,26.09,0,0,1,2.54,1,21.66,21.66,0,0,1,2.38,1.38,5.24,5.24,0,0,1,.91.7,20.32,20.32,0,0,1,1.6,1.48,7.4,7.4,0,0,1,1.94,3.92l1-.08C80.08,15,81,15,82,15c.75,0,1.46.08,2.18.1s1.51.17,2.25.25c.49.06.92.24,1.4.31.3-.2.55-.48.84-.7a9.71,9.71,0,0,1,2.9-1.57,16.95,16.95,0,0,1,9.78-.21,13.58,13.58,0,0,1,4.33,2,3.65,3.65,0,0,0,.68.35,18.13,18.13,0,0,1,1.82-3.63,10.89,10.89,0,0,1,1.77-2,7.59,7.59,0,0,1,2-1.15,18.59,18.59,0,0,1,3.22-.58c1.6-.1,3.19,0,4.79,0a3.83,3.83,0,0,0,1.07,0,12,12,0,0,1,1-.88,8.25,8.25,0,0,1,3.52-.84,12.47,12.47,0,0,1,3.61.19,6.14,6.14,0,0,1,2.62,1.16,3.35,3.35,0,0,1,1.13,1.6,10.71,10.71,0,0,1,.49,2.38c0,.49,0,1,0,1.48-.08,1-.33,1.89-.48,2.84a14.5,14.5,0,0,1,6.64,4.58,4.74,4.74,0,0,0,.73.87l.27,0c.23-.44.37-.94.6-1.38s.46-.91.69-1.36a23.49,23.49,0,0,1,1.87-3A21.56,21.56,0,0,1,146.05,13a30.91,30.91,0,0,1,3-2.58,19.27,19.27,0,0,1,3.78-2.14,10.67,10.67,0,0,1,2.28-.86c.82-.14,1.57-.47,2.38-.64A30.3,30.3,0,0,1,162.89,6c.69,0,1.37-.15,2.06-.15h4.67a15,15,0,0,1,1.9.05c.75.1,1.48,0,2.22.15a27,27,0,0,1,3.66.58,8.49,8.49,0,0,1,3.51,1.72,4.25,4.25,0,0,1,1.18,1.79,6.72,6.72,0,0,1,.46,1.76,14.62,14.62,0,0,1-.14,2.1,24.26,24.26,0,0,1,3,.76,9.63,9.63,0,0,1,1.8.71c.52.3,1.06.52,1.55.84s.75.49,1.1.74a8.34,8.34,0,0,1,1.35,1.17,10.79,10.79,0,0,1,2.35,3.91,13.19,13.19,0,0,1,.53,2.54,17,17,0,0,1,0,2.85,14.62,14.62,0,0,1-.44,2.7c-.12.46-.2.95-.29,1.43.61.31,1.19.66,1.78,1a16.07,16.07,0,0,1,2,1.37,13.55,13.55,0,0,1,1.47,1.37,8.94,8.94,0,0,1,1.09,1.2A9.5,9.5,0,0,1,201.08,39a9.15,9.15,0,0,1-.28,7.44,7.5,7.5,0,0,1-2.3,2.73,7.39,7.39,0,0,1-2.21,1.15A10,10,0,0,1,190,50a103.93,103.93,0,0,1-13.31,9.71c-1.61,1-3.22,1.91-4.9,2.72-.84.53-1.78.87-2.64,1.33a70.79,70.79,0,0,1-26.36,6.71c-1.09.13-2.19,0-3.28.13-.77.06-1.51-.07-2.29-.06-1,0-2.05,0-3.07,0s-1.78,0-2.68-.13c-3.25-.16-6.49-.44-9.73-.89-3.58-.47-7.12-1.27-10.64-2.09-1.33-.28-2.62-.62-4-.88a89.37,89.37,0,0,0-14.5-1.7c-1.74-.14-3.49-.09-5.24-.1-1,0-2.05,0-3.07.08-.71.07-1.39,0-2.1.1a151.2,151.2,0,0,0-16.43,1.83,61.59,61.59,0,0,0-8.16,1.92,32.52,32.52,0,0,0-1.26-7.48c-.21-.67-.51-1.31-.78-2a14.1,14.1,0,0,0-1.35-2.28A7.45,7.45,0,0,0,53,55.34c-.16-.18-.41-.13-.62-.15a28.87,28.87,0,0,1-8.68-1c-.85-.22-1.61-.64-2.45-.86,0,.58,0,1.16,0,1.73a6.7,6.7,0,0,1-1.13,3.12,5.8,5.8,0,0,1-2.34,2,6.14,6.14,0,0,1-6.09-.38,7.06,7.06,0,0,1-1.93-2c-1-1.25-2-2.55-3-3.87-.79-1.08-1.59-2.12-2.41-3.18-.57-.65-1-1.43-1.55-2.11-.33-.38-.58-.84-.94-1.21a1.34,1.34,0,0,0-.76.11C19.06,48.33,17,49,15,49.74c-1.22.39-2.39.83-3.61,1.23s-2.2.8-3.31,1.14A6.26,6.26,0,0,1,1.42,49.3a5.92,5.92,0,0,1-.9-3.13,7.32,7.32,0,0,1,1-3.59c.34-.67.85-1.22,1.23-1.87.75-1.2,1.67-2.31,2.42-3.53.62-.87,1.24-1.77,1.86-2.66s1.28-1.74,1.85-2.66c.16-.32.47-.58.54-.95-.47-.73-1.07-1.36-1.53-2.09-.69-1.12-1.52-2.13-2.28-3.19-1.14-1.49-2.23-3-3.38-4.49a14,14,0,0,0-1.13-1.5,3.2,3.2,0,0,1-.57-1,5.86,5.86,0,0,1-.41-3.2,6.27,6.27,0,0,1,3.6-4.85,5.28,5.28,0,0,1,3.36-.44,27.39,27.39,0,0,1,4.07,1.07c1,.31,2,.57,3,.9.74.25,1.47.41,2.21.67s1.27.32,1.9.52c1,.3,1.94.61,2.93.86.55-.8,1.08-1.59,1.68-2.33.71-1,1.45-2.07,2.14-3.12.33-.51.72-1,1-1.48a33.62,33.62,0,0,1,2-3A24.38,24.38,0,0,1,29.63,2,7.47,7.47,0,0,1,33.9.05Z"/><path class="cls-2" d="M33.34,6.44a1.5,1.5,0,0,1,.88-.74,1,1,0,0,1,1.22.58,5.62,5.62,0,0,1,.16,1.47c0,2.9.12,5.78.14,8.68.06,2.47.09,4.94.12,7.42,1.54.43,3.07.92,4.59,1.38a7.92,7.92,0,0,1,1.35.45c-.17.54-.44,1-.66,1.56a28.67,28.67,0,0,0-2.21,8.28c-1,.34-1.92.68-2.88,1,0,3.42.13,6.81.16,10.22,0,2.24.07,4.49.12,6.72a1.45,1.45,0,0,1-.6,1.17,1,1,0,0,1-1.23-.32c-.69-.84-1.38-1.68-2-2.56L24.87,41.59a7.79,7.79,0,0,0-.62-.8,3.25,3.25,0,0,0-1.24.35c-4.55,1.62-9.13,3.18-13.68,4.79a6.74,6.74,0,0,1-1.59.46,1,1,0,0,1-.9-1,3.52,3.52,0,0,1,.83-1.78q4.15-6,8.28-12a6.93,6.93,0,0,0,.62-.94c0-.18-.15-.31-.24-.46-.58-.74-1.14-1.51-1.71-2.27C12,24.35,9.33,20.8,6.69,17.24a1.68,1.68,0,0,1-.34-.94,1,1,0,0,1,.82-1,6,6,0,0,1,2.13.46l13,3.94a9.24,9.24,0,0,0,1.39.4c.17.07.27-.14.37-.25,3.07-4.5,6.17-9,9.24-13.44Z"/><path class="cls-3" d="M124.64,10.53c1,0,2-.1,2.91,0a1.54,1.54,0,0,1,.61.1,2.39,2.39,0,0,1,.22,1.05,5.14,5.14,0,0,1-1.21,3.7,3.65,3.65,0,0,1-2.92,1.48.71.71,0,0,1-.74-.62c-.08-.35.21-.56.42-.79a4.37,4.37,0,0,0,1.19-2.2,5.17,5.17,0,0,0-.48-2.67Z"/><path class="cls-3" d="M55.15,13.3A18.47,18.47,0,0,1,63,11.65a11.48,11.48,0,0,1,6,1.4,5.45,5.45,0,0,1,2.7,3.71,4.89,4.89,0,0,1-1.86,4.53,1.64,1.64,0,0,1-1,.18c-1.7,0-3.38,0-5.07,0a8.83,8.83,0,0,0,1.29-1.62A3.92,3.92,0,0,0,65,15.75a2.85,2.85,0,0,0-2.13-1.17,7.34,7.34,0,0,0-4.44,1.28,18.38,18.38,0,0,0-4.75,4.72,38.94,38.94,0,0,0-5.34,10.93,20.32,20.32,0,0,0-1.07,6.22,13.33,13.33,0,0,0,.66,4.21,4.87,4.87,0,0,0,1.78,2.45,5.85,5.85,0,0,0,3.34.92,9.56,9.56,0,0,0,3.88-.84,16.43,16.43,0,0,0,7-5.85A4.13,4.13,0,0,0,64.36,37a23.72,23.72,0,0,1,2.1-6.14,21.59,21.59,0,0,1,3.8-5.45A16,16,0,0,1,75,22a14.5,14.5,0,0,1,6.25-1.31,11.4,11.4,0,0,1,3.89.57,13,13,0,0,1,1.44.62c-.35,1-.77,2-1.13,2.93a12.67,12.67,0,0,0-4.74-.54,7.34,7.34,0,0,0-3.48,1.44,16,16,0,0,0-4.52,5.73A27.54,27.54,0,0,0,70.42,38a8,8,0,0,0-.26,2.48,1.06,1.06,0,0,0,.64,1,2.11,2.11,0,0,0,1.61-.34,13,13,0,0,0,2.86-2.25,4.58,4.58,0,0,0,1-1.27c1.21-3.31,2.37-6.63,3.62-10,.11-.3.21-.62.35-.91a3,3,0,0,1,.6-.05c1.78,0,3.58,0,5.36,0-.17.49-.34,1-.54,1.45q-2.2,5.82-4.3,11.68A2.87,2.87,0,0,0,81,41.69,4.57,4.57,0,0,0,83,40.32a34.92,34.92,0,0,0,3.64-4.57,54.91,54.91,0,0,0,5.63-11,2.47,2.47,0,0,1-1-.78A2.92,2.92,0,0,1,91,22.23,6.44,6.44,0,0,1,92.41,19a4.38,4.38,0,0,1,1.91-1.38,2.55,2.55,0,0,1,1.9.05,1.93,1.93,0,0,1,.84,1.47,5.49,5.49,0,0,1-.32,2.41c1.84,0,3.67,0,5.48,0a2.37,2.37,0,0,1,2.18,1.22,4.29,4.29,0,0,1-.23,3.07c-1.87,4.93-3.74,9.85-5.59,14.8a2.35,2.35,0,0,0-.12.95,2.61,2.61,0,0,0,1.33-.42,33.9,33.9,0,0,0,5.14-3.87,3.08,3.08,0,0,0,.75-1.4q4.21-11.08,8.45-22.16h6c-.27.8-.6,1.58-.89,2.36q-4.64,12.23-9.31,24.44a2.36,2.36,0,0,0-.14,1.06,3,3,0,0,0,1.15-.27,14.41,14.41,0,0,0,2.93-2.08,34,34,0,0,0,2.64-3.2c2.74-3.66,5.36-7.42,7.92-11.23.83-1.26,1.68-2.52,2.44-3.83,1.8,0,3.6,0,5.4,0,.09,2.64.35,5.29.53,7.93a29.11,29.11,0,0,1,.16,5.11,12.14,12.14,0,0,0,3.53-.68c.54-.2,1.06-.51,1.62-.68a1.16,1.16,0,0,1,.8,0,.74.74,0,0,1,.17.77,2.83,2.83,0,0,1-1.43,1.8,13.82,13.82,0,0,1-5.19,1.47,11,11,0,0,1-2.77,4.92,10.06,10.06,0,0,1-4.49,2.56,15.89,15.89,0,0,1-5,.47A6.53,6.53,0,0,1,116,42.93a4.05,4.05,0,0,1-.9-1.57A16.37,16.37,0,0,1,111.2,44a7.18,7.18,0,0,1-2.91.76,5.07,5.07,0,0,1-2.88-.69,2.81,2.81,0,0,1-1.15-1.77,5.36,5.36,0,0,1-.11-1.2,18.3,18.3,0,0,1-4.8,3.13,6.51,6.51,0,0,1-2.58.53A4.57,4.57,0,0,1,94,43.88a3.09,3.09,0,0,1-1.06-2.39,10.16,10.16,0,0,1,1-4.07Q95.92,31.88,98,26.33c.17-.45.34-.89.49-1.33-1,0-2,0-3.08,0-1,2.19-2.06,4.35-3.2,6.46a60,60,0,0,1-4.61,7.25,23.13,23.13,0,0,1-4.24,4.43,7.34,7.34,0,0,1-3.48,1.56,5.84,5.84,0,0,1-2.65-.35,2.91,2.91,0,0,1-1.48-1.24,4.91,4.91,0,0,1-.39-1.25,13.12,13.12,0,0,1-4.75,2.62,6.69,6.69,0,0,1-3,.12,4,4,0,0,1-2.33-1.26,4.5,4.5,0,0,1-.73-1.23,17.79,17.79,0,0,1-5.27,4.54,17.42,17.42,0,0,1-5.61,2.07,16.71,16.71,0,0,1-4.18.1,12.91,12.91,0,0,1-4.78-1.31,8.51,8.51,0,0,1-3-2.52,10.85,10.85,0,0,1-1.84-5.13,22.7,22.7,0,0,1,.87-8.35,32.39,32.39,0,0,1,5.95-11.58,23.29,23.29,0,0,1,8.42-6.63Z"/><path class="cls-3" d="M152.2,15.75a22.9,22.9,0,0,1,13-3.89c3.13,0,6.27,0,9.41,0-.3.82-.62,1.62-.94,2.44q-3.37,8.74-6.74,17.51c-.22.54-.43,1.08-.62,1.64a16.87,16.87,0,0,0,3.39-1.38,12.47,12.47,0,0,0,3.52-2.87,16.59,16.59,0,0,0,2.61-4.28,2.91,2.91,0,0,1-1.4-.64,2.27,2.27,0,0,1-.5-1.72,6.31,6.31,0,0,1,1.31-3.42,4.32,4.32,0,0,1,2.22-1.58,2.22,2.22,0,0,1,1.85.22,2.08,2.08,0,0,1,.7,1.69,5.82,5.82,0,0,1-.33,2.08c1.51,0,3,0,4.57,0a5.5,5.5,0,0,1,2,.24,2,2,0,0,1,1.2,1.37,4.56,4.56,0,0,1-.34,2.62q-2.82,7.4-5.59,14.81a3.47,3.47,0,0,0-.14,1,2.12,2.12,0,0,0,.94-.2,22,22,0,0,0,2.86-1.93,38,38,0,0,0,3.89-3.4,1.65,1.65,0,0,1,1.06-.59.49.49,0,0,1,.42.36,2.16,2.16,0,0,1-.14,1.67,7.82,7.82,0,0,1-1.83,2.18,23.12,23.12,0,0,1-5.38,4.09,7.59,7.59,0,0,1-3.32.93A4.88,4.88,0,0,1,177,44a3,3,0,0,1-1.22-2.27,8.49,8.49,0,0,1,.66-3.55l5-13.17c-1,0-2,0-3,0a18.74,18.74,0,0,1-4.33,6.78,17.19,17.19,0,0,1-8.88,4.45,26.89,26.89,0,0,1-6.17,9.35,14.82,14.82,0,0,1-7.29,3.81,12.73,12.73,0,0,1-5.07,0A11,11,0,0,1,143.14,48a6.18,6.18,0,0,1-2.14-2.2,5.22,5.22,0,0,1-.35-3.84,6.24,6.24,0,0,1,2-3,14.22,14.22,0,0,1,4.19-2.28,35.54,35.54,0,0,1,6.1-1.51c2-.31,4-.55,6-.68l7.7-20.07c-1,0-1.92,0-2.86,0a14.72,14.72,0,0,0-4.25,1,12,12,0,0,0-7.65,10.39,8,8,0,0,0,.94,4.41h-3.41a1.23,1.23,0,0,1-.82-.17,5.5,5.5,0,0,1-2.26-3.81,9.53,9.53,0,0,1,1.25-5.47,15.08,15.08,0,0,1,4.59-5Z"/><path class="cls-1" d="M22.65,23.32c.08-.24.39-.24.61-.23a2.79,2.79,0,0,1,1.67,1,1.78,1.78,0,0,1,.28.79c-.54.05-1-.34-1.51-.39a3.58,3.58,0,0,1-1.11-.34,2.33,2.33,0,0,1,.06-.83Z"/><path class="cls-1" d="M125.58,27.76c.48-.7.92-1.44,1.43-2.13.07,1.34.1,2.68.09,4a29,29,0,0,1-.38,4.65,26.89,26.89,0,0,0-6.07.47c1.72-2.27,3.31-4.63,4.93-7Z"/><path class="cls-1" d="M23.51,26.38a1.78,1.78,0,0,1,1.14,0c.33.2.56.49.89.7a2,2,0,0,1,.55.39.85.85,0,0,1-1,1.05c-.44,0-.78-.39-1.19-.55s-1.09.2-1.62,0-.77-.77-.42-1.16a13.3,13.3,0,0,0,1.67-.47Z"/><path class="cls-1" d="M32.61,26.93a1.44,1.44,0,0,1,1-.4,2.11,2.11,0,0,1,1.73.49.75.75,0,0,1-.39.91c-.37.15-.74-.13-1.07-.26a2.84,2.84,0,0,0-1.29-.26,2.57,2.57,0,0,1,0-.48Z"/><path class="cls-2" d="M49.33,31.8a21,21,0,0,1,1.25-3.49,8.1,8.1,0,0,1,1.47.46,1.11,1.11,0,0,1,.65.75,1.16,1.16,0,0,1-.32,1,2.91,2.91,0,0,1-1.09.63l-2,.68Z"/><path class="cls-1" d="M30.14,28.77c.51,0,1,0,1.57-.07a1.3,1.3,0,0,1,1,.25c.31.36.46.83.79,1.14a4.24,4.24,0,0,1,.54.59c.08.48-.48.77-.87.71-.6-.08-.94-.62-1.43-.9s-1.05,0-1.49-.32a1,1,0,0,1-.12-1.4Z"/><path class="cls-1" d="M25.59,30.49a1.87,1.87,0,0,1,1.1,0,3.23,3.23,0,0,1,2,1,.83.83,0,0,1,.25.82,1.28,1.28,0,0,1-1.18.24,3.55,3.55,0,0,1-2.34-1.3.41.41,0,0,1,.19-.67Z"/><path class="cls-1" d="M21,31.21a8.54,8.54,0,0,1,1-.46,3.82,3.82,0,0,1,.11.57c-.12.27-.29.48-.42.73a1.58,1.58,0,0,0,.2.66,6.88,6.88,0,0,0,4.45,3.43,6.63,6.63,0,0,0,5-1L31.35,34a1.9,1.9,0,0,1,.53,0,3.79,3.79,0,0,1,.41.74,9.65,9.65,0,0,0,.6.87,4.78,4.78,0,0,1-.06.53A4.15,4.15,0,0,0,31.72,36a6.79,6.79,0,0,0-1,.52,10.17,10.17,0,0,1-2.95,1.22,5.27,5.27,0,0,1-3.91-.86,7.88,7.88,0,0,1-2.68-3.26,7.25,7.25,0,0,0-.47-1.11,4.36,4.36,0,0,0-.93-.29,2.51,2.51,0,0,1,.1-.52c.32-.23.73-.3,1.07-.51Z"/><path class="cls-1" d="M120.15,38.18a5.19,5.19,0,0,1,3.41-1.3c.86,0,1.73-.06,2.59-.06a12.71,12.71,0,0,1-1.38,3.24,5.12,5.12,0,0,1-2.49,2.11,3.8,3.8,0,0,1-1.77.18,1.67,1.67,0,0,1-1.41-1.42,3.48,3.48,0,0,1,1.05-2.75Z"/><path class="cls-1" d="M150.8,38.41A29,29,0,0,1,158,37q-.61,1.47-1.32,2.91a21.74,21.74,0,0,1-2.83,4.58,6.88,6.88,0,0,1-2.76,2,4.28,4.28,0,0,1-2.93,0,3,3,0,0,1-1.7-1.68,4.13,4.13,0,0,1,.7-4.1,8.39,8.39,0,0,1,3.67-2.35Z"/><path class="cls-3" d="M192.7,39.63a2.49,2.49,0,0,1,2.56.75,2.63,2.63,0,0,1-.11,3.28,2.82,2.82,0,0,1-2.5,1.07,2.29,2.29,0,0,1-1.8-1.2,2.56,2.56,0,0,1-.07-2.21,3,3,0,0,1,1.92-1.69Z"/><path class="cls-3" d="M168.65,43.84c.19-.34.47-.62.69-.94a11.92,11.92,0,0,0,.89,2.33,14.21,14.21,0,0,0,3.56,4.51c.36.29.75.58,1.13.85A65.83,65.83,0,0,1,159.61,56a75.42,75.42,0,0,1-12.33,1.53c-2.05,0-4.11,0-6.16,0a96.37,96.37,0,0,1-10.18-1c-3.37-.49-6.76-1-10.12-1.6-2.54-.46-5.07-.94-7.58-1.55-2.89-.66-5.73-1.53-8.59-2.35.55,0,1.06,0,1.6,0,2.63.11,5.26.29,7.92.32a81.85,81.85,0,0,0,8.72-.07,28.69,28.69,0,0,0,7.85-1.43,6.67,6.67,0,0,0,3.41-2.48c.11-.16.31-.27.3-.5l.11,0a7,7,0,0,0,.54,1.84,8.6,8.6,0,0,0,2.47,3,16.23,16.23,0,0,0,5.66,2.65,24.2,24.2,0,0,0,8.43.74,20.91,20.91,0,0,0,5-1A18.59,18.59,0,0,0,163,50.34a19.62,19.62,0,0,0,1.9-1.86c.46-.53,1-1,1.41-1.54.83-1,1.63-2,2.37-3.1Z"/><path class="cls-2" d="M66.37,55.54a3.33,3.33,0,0,1,2.35-1.26,12.21,12.21,0,0,1,2.42.16,11.78,11.78,0,0,1-.62,1.66,1.34,1.34,0,0,0-.76-.44,2.53,2.53,0,0,0-2,.47,1.31,1.31,0,0,0-.32,1.48,1.34,1.34,0,0,0,1,.77A2.73,2.73,0,0,0,70.23,58c.23-.11.33-.36.47-.57.34.49.69,1,1,1.46a11.47,11.47,0,0,1-2.12.78,3.7,3.7,0,0,1-2.25-.19,2.52,2.52,0,0,1-1.49-2.17,2.75,2.75,0,0,1,.49-1.8Z"/><path class="cls-2" d="M79.89,54.52h1.77a8.09,8.09,0,0,0,.48,1.27c.52,1,.92,2.07,1.49,3.05-.48,0-.93,0-1.41,0-.1-.29-.06-.81-.48-.83-.64-.06-1.29,0-1.95,0a8.57,8.57,0,0,1-.18.88c-.43,0-.86,0-1.28,0,.39-.79.68-1.64,1-2.44a5.27,5.27,0,0,0,.57-2Z"/><path class="cls-2" d="M84.52,54.51c.9,0,1.8,0,2.68.07a1.93,1.93,0,0,1,1.34.4,1.45,1.45,0,0,1,.3,1.48c-.14.42-.55.64-.9.88a3.89,3.89,0,0,0,1.16,1.59c-.65,0-1.32,0-2,0l.19-.32a3.93,3.93,0,0,0-.72-1.28,4.87,4.87,0,0,0-.76-.06c0,.45,0,.89,0,1.35l.39.29c-.58,0-1.17,0-1.76,0a4.51,4.51,0,0,0,.21-2,9.39,9.39,0,0,0-.12-2.37Z"/><path class="cls-2" d="M75.74,54.64c.58,0,1.16,0,1.73,0-.38.36-.26.92-.24,1.39.08.8.08,1.62.15,2.42,0,.26.2.43.35.6L76,59.11a4.23,4.23,0,0,0,.1-1.84c-.66,0-1.31.07-2,.13,0,.61-.14,1.32.29,1.84-.54,0-1.08.06-1.61.1a8.66,8.66,0,0,0,0-2.33,4.61,4.61,0,0,0-.36-2.15c.57,0,1.14,0,1.72-.08A2.52,2.52,0,0,0,74,56.34l1.92-.09a3,3,0,0,0-.2-1.61Z"/><path class="cls-2" d="M90.45,54.71c1,.1,1.94.13,2.91.22a2.05,2.05,0,0,1,1,.3,1,1,0,0,1,.27.85,1.77,1.77,0,0,1-.46.9,2.26,2.26,0,0,1,.44.62,1.18,1.18,0,0,1-.34,1.3,1.81,1.81,0,0,1-1.35.28c-1,0-1.91-.09-2.86-.19l.4-.25c0-1.07.13-2.15.17-3.23a1.58,1.58,0,0,0-.16-.8Z"/><path class="cls-2" d="M96.28,55.18c.84.12,1.69.23,2.54.31a2.23,2.23,0,0,1,1.31.43,1.41,1.41,0,0,1,.26,1.62,2.81,2.81,0,0,1-.94.72,9.06,9.06,0,0,0,.86,1.63c-.59,0-1.18-.1-1.75-.17a1.94,1.94,0,0,0-.39-1.53,2,2,0,0,0-.88-.18,5.82,5.82,0,0,0,0,1.56l-1.39-.13a21.49,21.49,0,0,0,.37-2.9,6.87,6.87,0,0,0,0-1.36Z"/><path class="cls-1" d="M85.84,55.41c.41,0,.83,0,1.25,0a.8.8,0,0,1,.57.18.55.55,0,0,1,0,.65.77.77,0,0,1-.53.17c-.42,0-.84,0-1.26,0,0-.35,0-.68,0-1Z"/><path class="cls-1" d="M80.17,57.27a7,7,0,0,1,.66-1.6,11.09,11.09,0,0,1,.71,1.57c-.45,0-.92,0-1.37,0Z"/><path class="cls-1" d="M91.85,55.69a5.38,5.38,0,0,1,1.44.14.43.43,0,0,1-.08.78,7.93,7.93,0,0,1-1.38,0,8.62,8.62,0,0,0,0-.88Z"/><path class="cls-1" d="M97.46,56.2a5.2,5.2,0,0,1,1.58.22c.4.09.37.66.09.86a7.55,7.55,0,0,1-1.71-.09c0-.33,0-.66,0-1Z"/><path class="cls-2" d="M103.09,56.22a2.9,2.9,0,0,1,2.88,1,2.07,2.07,0,0,1-.43,2.8,2.59,2.59,0,0,1-1.69.41,2.91,2.91,0,0,1-2-.9,2.16,2.16,0,0,1-.23-2.29,2,2,0,0,1,1.47-1.05Z"/><path class="cls-2" d="M107.89,56.93c.54.11,1.09.23,1.62.32a1.58,1.58,0,0,0-.4.78c-.12.81-.28,1.61-.44,2.41a1.48,1.48,0,0,0,.12.9c-.56-.12-1.14-.24-1.7-.34a2.87,2.87,0,0,0,.51-1.6,8.61,8.61,0,0,0,.29-2.47Z"/><path class="cls-1" d="M103.32,57.28a1.55,1.55,0,0,1,1.31.18,1.12,1.12,0,0,1,.13,1.7,1.34,1.34,0,0,1-1.83-.1,1.11,1.11,0,0,1,.39-1.78Z"/><path class="cls-1" d="M91.75,57.28a5.13,5.13,0,0,1,1.46.13.46.46,0,0,1-.09.86,6,6,0,0,1-1.4,0q0-.5,0-1Z"/><path class="cls-2" d="M111,57.57c.48.12,1,.22,1.49.34a18,18,0,0,0-.77,3,9.52,9.52,0,0,0,2.74.45c-.1.42-.18.84-.26,1.26a3.31,3.31,0,0,0-1.1-.4c-1-.2-2-.44-2.93-.66a16.64,16.64,0,0,0,.68-2.63,3.3,3.3,0,0,0,.15-1.39Z"/><path class="cls-2" d="M162.16,59.34c.88-.78,2.11-.76,3.21-1,0,.33-.08.65-.1,1a3.32,3.32,0,0,0-2.06.26c-.18.09-.25.32-.36.47,1,.13,2-.41,3-.08a.91.91,0,0,1,.38,1.32,2.14,2.14,0,0,1-1,.7,13.55,13.55,0,0,1-2.68.54c0-.31,0-.64,0-1a3.75,3.75,0,0,0,2.42-.3c.22-.07.2-.32.25-.48a5.66,5.66,0,0,0-1.3.1,2.59,2.59,0,0,1-1.76,0,1,1,0,0,1,0-1.53Z"/><path class="cls-2" d="M115.89,58.78c1.1.22,2.2.5,3.3.76a3.79,3.79,0,0,0,1,.05c-.1.37-.18.75-.25,1.12a2.31,2.31,0,0,0-.73-.34L117,59.89c0,.24,0,.48-.07.73a11.66,11.66,0,0,0,2,.32c-.09.34-.16.67-.23,1a5.26,5.26,0,0,0-2-.55,4.88,4.88,0,0,1-.13.84c.66.15,1.31.32,2,.44a2.15,2.15,0,0,0,.91,0c-.08.36-.15.74-.22,1.11a6.93,6.93,0,0,0-1.5-.41c-.93-.23-1.88-.42-2.8-.65a1.42,1.42,0,0,0,.36-.63c.17-.7.29-1.4.48-2.08a4.11,4.11,0,0,0,.1-1.22Z"/><path class="cls-2" d="M158.23,60.08a5,5,0,0,1,2-.22,1.09,1.09,0,0,1,.73,1.41,3.38,3.38,0,0,1-.6.72,13.62,13.62,0,0,0,1.37,1,16.1,16.1,0,0,1-1.61.36,2.46,2.46,0,0,0-1-1.1,4.64,4.64,0,0,0-.76.12,2.53,2.53,0,0,0,.52,1.3c-.45.13-.92.2-1.39.3-.19-1.12-.57-2.19-.83-3.27l-.36-.19c.64-.17,1.29-.31,1.94-.46Z"/><path class="cls-2" d="M121.24,60c1,.17,1.9.31,2.85.51a1.78,1.78,0,0,1,1.34,1.23,2.45,2.45,0,0,1-.61,2.23,1.88,1.88,0,0,1-1.61.44c-.95-.13-1.87-.32-2.82-.48.14-.14.33-.28.37-.49.19-.73.26-1.47.43-2.19a3.51,3.51,0,0,0,0-1.25Z"/><path class="cls-2" d="M128.51,60.4c1.13.13,2.26.24,3.39.36a2.19,2.19,0,0,1,1.32.49,1.14,1.14,0,0,1,.22,1.28,1.85,1.85,0,0,1-.72.54,2,2,0,0,1,.7.7,1.26,1.26,0,0,1-.68,1.49,3.11,3.11,0,0,1-1.54.14c-1.06-.11-2.09-.23-3.14-.31a3.44,3.44,0,0,0,.28-1c.07-1,.2-1.92.3-2.88a1.71,1.71,0,0,0-.13-.8Z"/><path class="cls-2" d="M154.92,60.76a1.67,1.67,0,0,0,.63-.3c0,.35.1.7.18,1a16.53,16.53,0,0,0-3,.37,1.85,1.85,0,0,1,.17.61,7.91,7.91,0,0,0,1.94-.43c.05.31.09.62.16.93a10,10,0,0,0-2,.22,2.91,2.91,0,0,1,.1.77,14.77,14.77,0,0,0,3-.56c0,.35.1.68.15,1a4.36,4.36,0,0,0-1.14,0c-1.07.19-2.15.36-3.22.53a6.19,6.19,0,0,0-.23-2.22c-.09-.5-.08-1.08-.5-1.44l3.74-.56Z"/><path class="cls-1" d="M157.9,60.91a6.77,6.77,0,0,1,1.67-.27.36.36,0,0,1,.11.67,5.65,5.65,0,0,1-1.57.39,4.39,4.39,0,0,0-.21-.79Z"/><path class="cls-1" d="M122.45,61.17a3.07,3.07,0,0,1,1.13.17.86.86,0,0,1,.67.78c0,.44-.07,1-.5,1.21a3.79,3.79,0,0,1-1.64,0c.08-.72.24-1.43.34-2.13Z"/><path class="cls-1" d="M130,61.57a5.31,5.31,0,0,1,2.17.33c0,.2.07.46-.17.54a9.15,9.15,0,0,1-2-.13c0-.25,0-.5,0-.74Z"/><path class="cls-2" d="M147.51,61.66a9.5,9.5,0,0,1,2.5,0l-.34,1.12a2,2,0,0,0-2.14-.14,1.08,1.08,0,0,0-.16,1.71,1.45,1.45,0,0,0,1,.3,2.17,2.17,0,0,0,.87-.16c.09-.17.05-.38.11-.57a2.75,2.75,0,0,0-1.1.24c0-.34-.05-.68-.1-1a6.29,6.29,0,0,0,2.25,0,2.84,2.84,0,0,0,.33,1.48,5.34,5.34,0,0,1-2.58.79,2.8,2.8,0,0,1-1.63-.31,1.89,1.89,0,0,1-.69-2.21,2.17,2.17,0,0,1,1.63-1.22Z"/><path class="cls-2" d="M134.58,61.76c.52,0,1,.05,1.57.05a14.47,14.47,0,0,0-.18,2.27c0,.21,0,.48.22.61a1.5,1.5,0,0,0,1,.14.59.59,0,0,0,.53-.45,9.36,9.36,0,0,0,0-2.48c.53,0,1.07,0,1.61,0a1.38,1.38,0,0,0-.26.53c-.09.71,0,1.41-.15,2.1a1.51,1.51,0,0,1-1.13,1.1,3.94,3.94,0,0,1-1.49,0A1.82,1.82,0,0,1,135,65c-.57-1,.16-2.22-.37-3.22Z"/><path class="cls-2" d="M140.38,61.93c1.05,0,2.09,0,3.14,0a1.28,1.28,0,0,1,1.18.6,1.26,1.26,0,0,1,0,1.12,2.67,2.67,0,0,1-.81.64A9.91,9.91,0,0,0,145,65.66c-.57,0-1.13,0-1.72,0a1.85,1.85,0,0,0-.7-1.34,7.12,7.12,0,0,0-.8,0,2,2,0,0,0,.24,1.42c-.5,0-1,0-1.5,0a7.72,7.72,0,0,0,.08-1.73,7,7,0,0,0-.2-2.13Z"/><path class="cls-1" d="M141.73,62.71c.43,0,.88-.06,1.33,0,.19,0,.4,0,.5.2s.05.58-.22.63a9.48,9.48,0,0,1-1.6.06c0-.28,0-.57,0-.86Z"/><path class="cls-1" d="M129.83,63.27c.57.06,1.14.07,1.72.15.22,0,.48.08.6.31s0,.62-.26.65a9.82,9.82,0,0,1-2.17-.1c0-.35.07-.67.11-1Z"/></g></g></svg>