<svg xmlns="http://www.w3.org/2000/svg" viewBox="0 0 145.85 107.61"><defs><style>.cls-1,.cls-4{fill:#e1251b;}.cls-1,.cls-2{fill-rule:evenodd;}.cls-2{fill:#fff;}.cls-3{fill:#638c1c;}</style></defs><title>Asset 24</title><g id="Layer_2" data-name="Layer 2"><g id="Layer_1-2" data-name="Layer 1"><path class="cls-1" d="M88.1,90.23c-1.75-1.66-2.31-1.34-3.46-4.81-.55-1.68-1.58-3.71-3.31-4.3-3-1-6.19,1.25-8.26,3.25S69.92,89,64.21,92.79a14.6,14.6,0,0,1-5.41,2.15c-2.36.44-4.35-.26-6.67-.45-4.4-.38-7.81,1.3-7.82,3.94s6.7,7.14,12.35,8.17c7.23,1.31,13,.94,16.88-.23,6.95-2.12,10.77-4.77,14-8,2.14-2.15,3.34-5.44.54-8.11"/><path class="cls-2" d="M66,97.44c-1.48.61-3.93.68-4.12-.2-.14-.62,1.11-.32,2.49-1.11,1.82-1,2.37-1.57,2.87-1.08s.62,1.63-1.24,2.39M76.48,90.5c-4.94,3.8-7.11,5.45-7.76,3.74-.36-.93,1.2-1.52,2.56-2.85C73,89.73,75,87.1,76.94,85.57c2.21-1.77,3.6-1.28,4.07-.2.73,1.58-1.79,3-4.53,5.13"/><path class="cls-3" d="M90.22,81.29a2.88,2.88,0,0,0-.59-1.94c-.77-1.11-1.2-1.76-1.08-2.83a2.75,2.75,0,0,1,3.17-2.43c1.85.2,3.46,1.8,3.14,4.82-.49,4.6-5,8-6.47,7.87a1.06,1.06,0,0,1-.94-1.19,1.42,1.42,0,0,1,.6-1c1.21-1.21,2-2.16,2.17-3.28"/><path class="cls-3" d="M101.59,94.63l-2.06-.95c-1.43-.62-3.24-1.4-3.24-3.45a2.42,2.42,0,0,1,2.47-2.46,3.1,3.1,0,0,1,2.79,2c.45.78,1,1.69,2.26,1.69a1.93,1.93,0,0,0,2-2c0-1.64-1.84-4.39-6.81-4.39-5.21,0-7.15,3.12-7.15,6,0,3.82,3.29,5.42,4.53,6a30.88,30.88,0,0,1,4.08,2.11,3.07,3.07,0,0,1,1.33,2.52,2.47,2.47,0,0,1-2.59,2.55c-1.64,0-2.38-1.06-3.36-2.46-.57-.78-1.15-1.6-2.3-1.6a2.12,2.12,0,0,0-2.09,2.21c0,1.65,2,5,7.63,5,6.12,0,7.39-4.15,7.39-6.44,0-3.94-3-5.42-4.84-6.32"/><path class="cls-3" d="M110.63,105.82a1.79,1.79,0,1,1-1.82-1.7,1.76,1.76,0,0,1,1.82,1.7m-3.13.08a1.34,1.34,0,0,0,1.38,1.35,1.39,1.39,0,0,0-.08-2.77,1.35,1.35,0,0,0-1.3,1.42m1.09.87h-.4l0-1.74a4.6,4.6,0,0,1,.67-.07.92.92,0,0,1,.61.13.43.43,0,0,1,.18.36c0,.22-.15.35-.35.42v0c.17.06.25.19.32.42a1.17,1.17,0,0,0,.13.43h-.42a1.55,1.55,0,0,1-.16-.43c0-.18-.13-.26-.35-.25h-.2Zm0-1h.19c.22,0,.4-.08.39-.26s-.12-.26-.37-.26a1,1,0,0,0-.22,0Z"/><path class="cls-4" d="M26.39,42.14c-3.52,0-6,4.11-6,9.32,0,6.15,3,11.44,7.73,11.44,3.46,0,5.1-2.59,5.92-3.94.71-1.05,1.05-1.64,1.88-1.64s1.51.76,1.51,2.06a10.76,10.76,0,0,1-11,10.07c-8.26,0-12.24-7.5-12.24-15.76,0-7.85,3.68-16.12,13.17-16.12,6.74,0,9.92,4.81,9.92,7.62a3.21,3.21,0,0,1-3.18,3.34,3.16,3.16,0,0,1-2.86-2.11c-.95-2-2-4.28-4.81-4.28"/><path class="cls-4" d="M49.25,44.84c.51-.65,1.77-2.28,3.55-2.28a4.2,4.2,0,0,1,3.67,2,7.45,7.45,0,0,1,.76,4.15V64.31c.06,2.91,2.26,5,5.77,5h.39c1,0,1.21-.29,1.21-1.4V47.3A10.89,10.89,0,0,0,63,40.86a7.82,7.82,0,0,0-7-3.39c-4.62,0-5.87,2.22-6.75,3.34V28.74c-.09-2.88-2.27-4.91-5.78-4.91h-.31c-1,0-1.21.48-1.21,1.41V64.36c.09,2.88,2.27,4.92,5.77,4.92H48c1,0,1.22-.47,1.22-1.4Z"/><path class="cls-3" d="M110.45,30.58a3.42,3.42,0,0,0-.71-2.36c-.94-1.36-1.45-2.14-1.32-3.44a3.35,3.35,0,0,1,3.85-3c2.26.24,4.2,2.19,3.82,5.87-.58,5.58-6,9.75-7.85,9.56a1.28,1.28,0,0,1-1.15-1.45,1.76,1.76,0,0,1,.72-1.24c1.48-1.47,2.5-2.62,2.64-4"/><path class="cls-4" d="M133.38,67.37a1.79,1.79,0,1,1-1.82-1.7,1.76,1.76,0,0,1,1.82,1.7m-3.13.07a1.35,1.35,0,0,0,1.38,1.36,1.32,1.32,0,0,0,1.29-1.41,1.34,1.34,0,1,0-2.67,0m1.08.88h-.39l-.05-1.74a3.43,3.43,0,0,1,.67-.07.94.94,0,0,1,.6.12.45.45,0,0,1,.19.37c0,.21-.15.35-.36.42v0c.18,0,.26.19.32.42a2.31,2.31,0,0,0,.13.43H132a1.4,1.4,0,0,1-.15-.42c0-.18-.14-.26-.36-.26h-.19Zm0-1h.19c.21,0,.39-.09.39-.26s-.12-.27-.37-.26a.88.88,0,0,0-.22,0Z"/><path class="cls-4" d="M96.69,64.28c.06,2.92,2.25,5,5.78,5h.32c1.15,0,1.27-.35,1.27-1.28V39.52c-.07-1-.18-1.29-1.29-1.29h-5c-1,0-1.11.42-1.11,1.23Z"/><path class="cls-4" d="M100.31,26.65c-2.69,0-4.17,1.72-4.17,3.87s1.59,3.68,4.17,3.68a3.7,3.7,0,0,0,4-3.86,3.66,3.66,0,0,0-4-3.69"/><path class="cls-4" d="M123.45,51.1l-2.92-1.35c-2-.88-4.62-2-4.62-4.91a3.45,3.45,0,0,1,3.5-3.5c2.4,0,3.39,1.75,4,2.86s1.4,2.4,3.22,2.4a2.75,2.75,0,0,0,2.8-2.87c0-2.34-2.63-6.26-9.71-6.26-7.42,0-10.17,4.45-10.17,8.6,0,5.44,4.68,7.71,6.43,8.54a42.07,42.07,0,0,1,5.83,3,4.39,4.39,0,0,1,1.89,3.6A3.51,3.51,0,0,1,120,64.83c-2.34,0-3.39-1.51-4.79-3.5-.82-1.11-1.64-2.28-3.27-2.28a3,3,0,0,0-3,3.15c0,2.35,2.81,7.08,10.87,7.08,8.71,0,10.53-5.91,10.53-9.18,0-5.62-4.21-7.72-6.9-9"/><path class="cls-4" d="M70.38,64.28c.06,2.92,2.26,5,5.79,5h.31c1.15,0,1.27-.35,1.27-1.28V39.52c-.07-1-.18-1.29-1.29-1.29h-5c-1,0-1.12.42-1.12,1.23Z"/><path class="cls-4" d="M74.16,26.65c-2.7,0-4.17,1.72-4.17,3.87s1.59,3.68,4.17,3.68a3.71,3.71,0,0,0,4-3.86,3.67,3.67,0,0,0-4-3.69"/><path class="cls-4" d="M90.89,28.82c0-2.92-2.24-5-5.77-5H84.8c-1.15,0-1.26.35-1.26,1.28V64.28c0,2.92,2.25,5,5.78,5h.32c1.14,0,1.25-.35,1.25-1.28Z"/><path class="cls-3" d="M72.92,0C32.71,0,0,23.48,0,52.34,0,69.85,13.15,90.5,38.37,98.43a2.63,2.63,0,0,0,3.19-1.92c.65-2,0-2.75-.72-3.13-20.43-6.13-35.3-25.91-35.3-41,0-25.81,30.22-46.8,67.38-46.8s67.39,21,67.39,46.8c0,16.88-12.39,31.4-31.11,39.43-1.26.54-1.21,2.11-.69,3.44a2.38,2.38,0,0,0,2.77,1.55c20.65-9.26,34.57-25.91,34.57-44.42C145.85,23.48,113.13,0,72.92,0"/></g></g></svg>