<svg xmlns="http://www.w3.org/2000/svg" viewBox="0 0 164.27 47.38"><defs><style>.cls-1,.cls-2{fill:#772d84;}.cls-2{font-size:9.19px;font-family:Myriad-Roman, Myriad Roman;}</style></defs><title>Asset 26</title><g id="Layer_2" data-name="Layer 2"><g id="Layer_1-2" data-name="Layer 1"><path class="cls-1" d="M21.89,13.9,21,17.36s.58-4.09-5.84-4.09C7.39,13.27.75,21.18,2.2,28.85a9.6,9.6,0,0,0,16.22,4.57s.48,7.09-4.87,7.09c-4.26,0-4.72-1.73-4.72-1.73H0s.55,7.87,12.12,7.87,13.6-10.08,13.6-10.08L29.6,13.9ZM18.43,27.53a4.79,4.79,0,0,1-6.7.82,4.8,4.8,0,0,1,0-6.75,4.81,4.81,0,0,1,6.71-.82C20.29,22.42,20.28,25.45,18.43,27.53Z"/><path class="cls-1" d="M64.07,13.68h7.66v2.59a11.75,11.75,0,0,1,7.85-3.35c6.79,0,6.79,5.75,6.79,5.75L83.79,35.88h-8L77.47,24.5s1.49-5.88-2.68-5.45c-3.35,0-4.4,5.17-4.4,5.17L68.48,35.88H60.34Z"/><path class="cls-1" d="M111,0l-1.82,16.17s-2.49-3.83-8.8-3.06c-7,1.44-10.82,6-10.82,15.22.29,8.32,10.34,11.19,16,5.55v2.2h7.85L118.63,0ZM105.9,27.65c-1.83,2.13-4.83,2.57-6.72,1s-1.91-4.63-.07-6.77,4.82-2.57,6.7-1S107.73,25.51,105.9,27.65Z"/><path class="cls-1" d="M157.87,8.11a4.49,4.49,0,0,1-6.26.89c-1.75-1.49-1.78-4.32-.08-6.31a4.5,4.5,0,0,1,6.26-.9A4.49,4.49,0,0,1,157.87,8.11Z"/><path class="cls-1" d="M123.6.38h8.14l-2.59,16.18a10.59,10.59,0,0,1,9.57-3.26c6.13,1,4.6,9,4.6,9L141.2,35.88h-7.46l1.64-11.66S136.81,19,132.5,19s-4.78,5.27-4.78,5.27L126,36h-8.23Z"/><polygon class="cls-1" points="149.63 13.68 157.48 13.68 153.84 35.98 146.08 35.98 149.63 13.68"/><path class="cls-1" d="M161.05,29.77A3.28,3.28,0,1,1,157.79,33a3.24,3.24,0,0,1,3.26-3.27Zm0,.52a2.77,2.77,0,1,0,2.63,2.77A2.69,2.69,0,0,0,161,30.29ZM160.42,35h-.58V31.3a5.7,5.7,0,0,1,1-.09,1.86,1.86,0,0,1,1.13.28.86.86,0,0,1,.34.75.92.92,0,0,1-.72.9v0c.33.06.55.35.62.89a2.64,2.64,0,0,0,.24.9h-.62a2.63,2.63,0,0,1-.24-.93.69.69,0,0,0-.79-.64h-.41Zm0-2h.42c.48,0,.9-.17.9-.63s-.24-.64-.9-.64a2,2,0,0,0-.42,0Z"/><path class="cls-1" d="M51.52,13.93,51,16.29C48.21,10,32.78,13.36,32,25c-.76,7.63,3.55,12,8.47,12C46,36.91,47.94,34,47.94,34v2.17h7.91L59.19,13.7ZM48.18,27.81a4.79,4.79,0,0,1-6.71.82c-1.84-1.64-1.84-4.66,0-6.76a4.8,4.8,0,0,1,6.71-.81A4.78,4.78,0,0,1,48.18,27.81Z"/><path class="cls-1" d="M31.75,39.49h1.06v7.42H31.75Z"/><path class="cls-1" d="M35.07,40.93a.6.6,0,1,1,0-1.19.61.61,0,0,1,.68.58.63.63,0,0,1-.69.61Zm-.5,6V41.85h1.06v5.06Z"/><path class="cls-1" d="M37.39,39.49h1.07v3.16h0a2.25,2.25,0,0,1,2-.91,2.41,2.41,0,0,1,2.47,2.57A2.58,2.58,0,0,1,40.3,47a2.18,2.18,0,0,1-2-1h0l-.06.84h-.92a12.81,12.81,0,0,0,0-1.31Zm1.07,5.39a1.69,1.69,0,0,0,0,.33,1.61,1.61,0,0,0,1.59,1.08,1.92,1.92,0,0,0,0-3.83,1.62,1.62,0,0,0-1.6,1.13,1.12,1.12,0,0,0-.06.38Z"/><path class="cls-1" d="M44.27,43.43c0-.6,0-1.1-.05-1.58h.93l.05,1h0a1.75,1.75,0,0,1,1.64-1.11,1.33,1.33,0,0,1,.28,0v.85l-.37,0a1.43,1.43,0,0,0-1.43,1.18,2.9,2.9,0,0,0,0,.43v2.7H44.26Z"/><path class="cls-1" d="M50.51,47a2.6,2.6,0,0,1-2.8-2.61,2.66,2.66,0,0,1,2.9-2.68,2.56,2.56,0,0,1,2.8,2.59,2.68,2.68,0,0,1-2.9,2.7Zm0-.69a1.83,1.83,0,0,0,1.78-2,1.78,1.78,0,1,0-1.79,2Z"/><path class="cls-1" d="M54.61,46a3.43,3.43,0,0,0,1.41.35c.76,0,1.12-.32,1.12-.75s-.3-.69-1.08-.94c-1.06-.33-1.55-.82-1.55-1.43,0-.82.77-1.48,2-1.48a3.1,3.1,0,0,1,1.43.31l-.26.66a2.68,2.68,0,0,0-1.2-.29c-.62,0-1,.31-1,.69s.34.61,1.1.86c1,.34,1.53.76,1.53,1.53S57.36,47,56,47a3.64,3.64,0,0,1-1.63-.36Z"/><path class="cls-1" d="M63.24,43.22c0-.54,0-.95-.05-1.37h.93l0,.82h0a2,2,0,0,1,1.85-.93,1.73,1.73,0,0,1,1.64,1h0a2.33,2.33,0,0,1,.67-.66,2.16,2.16,0,0,1,1.28-.35,1.91,1.91,0,0,1,1.93,2.19v3h-1V44c0-1-.42-1.55-1.27-1.55a1.36,1.36,0,0,0-1.26.83,1.34,1.34,0,0,0-.09.46v3.13h-1v-3c0-.82-.41-1.39-1.22-1.39a1.44,1.44,0,0,0-1.32.92,1.33,1.33,0,0,0-.08.45v3h-1Z"/><path class="cls-1" d="M78.18,45.54c0,.52,0,1,0,1.37h-.94l-.06-.82h0a2.25,2.25,0,0,1-1.93.94,1.93,1.93,0,0,1-2-2.22v-3h1.07v2.8c0,1,.34,1.61,1.3,1.61a1.52,1.52,0,0,0,1.4-.84,1.14,1.14,0,0,0,.09-.48V41.85h1.07Zm-.73-5.8L76,41.23h-.75l1.07-1.49Z"/><path class="cls-1" d="M79.8,46a3.43,3.43,0,0,0,1.41.35c.75,0,1.12-.32,1.12-.75s-.3-.69-1.07-.94c-1.07-.33-1.56-.82-1.56-1.43,0-.82.77-1.48,2-1.48a3,3,0,0,1,1.42.31l-.25.66a2.68,2.68,0,0,0-1.2-.29c-.62,0-1,.31-1,.69s.35.61,1.1.86c1,.34,1.53.76,1.53,1.53S82.55,47,81.18,47a3.72,3.72,0,0,1-1.64-.36Z"/><path class="cls-1" d="M85.22,40.93a.6.6,0,1,1,0-1.19.61.61,0,0,1,.67.58.64.64,0,0,1-.69.61Zm-.5,6V41.85h1.06v5.06Z"/><path class="cls-1" d="M91.7,46.73A4.51,4.51,0,0,1,90,47a2.61,2.61,0,0,1-2.91-2.6c0-1.56,1.24-2.69,3.14-2.69a3.74,3.74,0,0,1,1.48.27l-.24.7a2.9,2.9,0,0,0-1.24-.25,1.89,1.89,0,0,0-2.06,1.93,1.86,1.86,0,0,0,2,1.9A3.32,3.32,0,0,0,91.52,46Z"/><path class="cls-1" d="M97.07,45.7a6.41,6.41,0,0,0,.09,1.21h-1l-.1-.63h0a2.31,2.31,0,0,1-1.79.75c-1.18,0-1.79-.72-1.79-1.46,0-1.21,1.26-1.89,3.52-1.87v-.11c0-.42-.13-1.19-1.34-1.17a3.32,3.32,0,0,0-1.53.37l-.23-.61a4.23,4.23,0,0,1,1.93-.44c1.79,0,2.23,1,2.23,2.07Zm-1-1.37c-1.15,0-2.47.16-2.47,1.14a.88.88,0,0,0,1,.88A1.47,1.47,0,0,0,96,45.5a.74.74,0,0,0,0-.29Z"/><path class="cls-1" d="M102.88,41.85,104,44.68c.19.48.35.89.47,1.31h0c.13-.42.29-.83.49-1.31l1.13-2.83h1.11L105,46.91h-1l-2.22-5.06Z"/><path class="cls-1" d="M108.79,40.93a.63.63,0,0,1-.67-.61.62.62,0,0,1,.69-.58.61.61,0,0,1,.67.58.63.63,0,0,1-.69.61Zm-.51,6V41.85h1.06v5.06Z"/><path class="cls-1" d="M116.14,39.49V45.6c0,.46,0,1,0,1.31h-.94l0-.87h0a2.21,2.21,0,0,1-2,1,2.45,2.45,0,0,1-2.5-2.57,2.56,2.56,0,0,1,2.61-2.72,2,2,0,0,1,1.77.76h0v-3Zm-1.06,4.42a1.31,1.31,0,0,0,0-.39,1.53,1.53,0,0,0-1.53-1.06,1.74,1.74,0,0,0-1.75,1.94,1.71,1.71,0,0,0,1.72,1.89,1.59,1.59,0,0,0,1.56-1.1,1.29,1.29,0,0,0,0-.4Z"/><path class="cls-1" d="M118.5,44.54a1.76,1.76,0,0,0,2,1.75,4.5,4.5,0,0,0,1.61-.25l.2.66a5.66,5.66,0,0,1-2,.33c-1.79,0-2.88-1-2.88-2.57a2.63,2.63,0,0,1,2.76-2.74,2.25,2.25,0,0,1,2.4,2.39,3.76,3.76,0,0,1,0,.44Zm3.1-.66a1.38,1.38,0,0,0-1.46-1.5,1.64,1.64,0,0,0-1.63,1.5Z"/><path class="cls-1" d="M126.31,47a2.6,2.6,0,0,1-2.79-2.61,2.66,2.66,0,0,1,2.9-2.68,2.57,2.57,0,0,1,2.81,2.59,2.68,2.68,0,0,1-2.89,2.7Zm0-.69a1.83,1.83,0,0,0,1.78-2,1.78,1.78,0,1,0-3.54,0,1.8,1.8,0,0,0,1.75,2Z"/><path class="cls-1" d="M138.43,46.73a4.49,4.49,0,0,1-1.67.3,2.62,2.62,0,0,1-2.92-2.6c0-1.56,1.24-2.69,3.14-2.69a3.78,3.78,0,0,1,1.48.27l-.24.7a2.86,2.86,0,0,0-1.24-.25,1.89,1.89,0,0,0-2,1.93,1.86,1.86,0,0,0,2,1.9,3.32,3.32,0,0,0,1.31-.25Z"/><path class="cls-1" d="M143.8,45.7a7.44,7.44,0,0,0,.08,1.21h-.95l-.1-.63h0A2.33,2.33,0,0,1,141,47c-1.18,0-1.79-.72-1.79-1.46,0-1.21,1.26-1.89,3.51-1.87v-.11c0-.42-.12-1.19-1.32-1.17a3.26,3.26,0,0,0-1.53.37l-.25-.61a4.28,4.28,0,0,1,1.94-.44c1.79,0,2.23,1,2.23,2.07Zm-1-1.37c-1.15,0-2.47.16-2.47,1.14a.87.87,0,0,0,1,.88,1.48,1.48,0,0,0,1.44-.85.74.74,0,0,0,0-.29Z"/><path class="cls-1" d="M145.6,46.91V42.56h-.81v-.71h.81v-.24a2,2,0,0,1,2.09-2.24,2.59,2.59,0,0,1,.91.15l-.13.71a1.94,1.94,0,0,0-.69-.11c-.89,0-1.14.69-1.14,1.46v.27h1.42v.71h-1.4v4.35Z"/><path class="cls-1" d="M149.62,44.54a1.76,1.76,0,0,0,2,1.75,4.46,4.46,0,0,0,1.61-.25l.19.66a5.47,5.47,0,0,1-2,.33,2.55,2.55,0,0,1-2.86-2.57,2.62,2.62,0,0,1,2.75-2.74,2.25,2.25,0,0,1,2.4,2.39,1.63,1.63,0,0,1,0,.44Zm3.1-.66a1.38,1.38,0,0,0-1.45-1.5,1.63,1.63,0,0,0-1.63,1.5Zm.26-4.14-1.48,1.49h-.74l1.06-1.49Z"/><text class="cls-2" transform="translate(59.4 45.09)">.</text><text class="cls-2" transform="translate(99.09 45.09)">.</text><text class="cls-2" transform="translate(129.84 45.01)">.</text></g></g></svg>