<svg xmlns="http://www.w3.org/2000/svg" viewBox="0 0 127.4 134.09"><defs><style>.cls-1{fill:#00539e;}.cls-2,.cls-7{fill:#bd2f37;}.cls-3,.cls-4{fill:#fff;}.cls-4,.cls-6,.cls-7{fill-rule:evenodd;}.cls-5,.cls-6{fill:#faa929;}.cls-8{fill:none;}</style></defs><title>Asset 22</title><g id="Layer_2" data-name="Layer 2"><g id="Layer_1-2" data-name="Layer 1"><path class="cls-1" d="M4.94,0H122.46a4.94,4.94,0,0,1,4.94,4.94V129.15a4.93,4.93,0,0,1-4.93,4.93H4.94A4.94,4.94,0,0,1,0,129.15V4.94A4.94,4.94,0,0,1,4.94,0Z"/><rect class="cls-2" x="6.11" y="113.31" width="114.38" height="1.01"/><path class="cls-3" d="M96,98.09c0,4.51,1,8.17,3.48,8.17S103,102.6,103,98.09s-1.07-8.18-3.49-8.18S96,93.57,96,98.09m-3.91,0c0-5.73,3.31-10.38,7.39-10.38s7.4,4.65,7.4,10.38-3.31,10.37-7.4,10.37-7.39-4.64-7.39-10.37"/><polygon class="cls-4" points="6.54 85.07 8.5 87.5 8.5 105.53 6.22 108.13 18.08 108.13 18.08 102.62 15.8 105.53 11.93 105.53 11.93 87.34 13.72 85.07 6.54 85.07"/><path class="cls-4" d="M19,92.43l-1.1,4.23h2Zm-.19-4.13h1.27l3.22,12.21,1,1.43H19.9l1.16-1.43-.72-2.4H17.5L17,100.54l1.07,1.4H14.46l1.21-1.46Z"/><polygon class="cls-4" points="27.78 85.07 29.55 87.34 29.55 105.53 27.64 108.13 33.39 108.13 31.61 105.53 31.61 90.41 36.45 102.42 41.49 90.34 41.49 105.53 39.65 108.13 46.61 108.13 44.98 105.53 44.98 87.34 46.97 85.07 41.56 85.07 37.52 94.89 33.6 85.07 27.78 85.07"/><path class="cls-4" d="M53,94.45l-1.6,6.13h2.93Zm-.2-6.07h1.84l4.42,17.69,1.47,2.08H54.37l1.43-2.08L55,102.6H50.89l-.78,3.52,1.56,2H46.49L48.23,106Z"/><polygon class="cls-4" points="60.68 88.3 62.25 90.34 62.25 105.53 60.81 108.13 65.59 108.13 63.95 105.53 63.95 93.75 72.27 110.1 72.27 90.34 73.97 88.3 69.21 88.3 70.64 90.34 70.64 99.65 64.88 88.3 60.68 88.3"/><path class="cls-4" d="M74.68,93.33a4.95,4.95,0,0,1,7.61-4.55h1.56l-1.64,4-1.63-2.6a1.74,1.74,0,0,0-2.42.18,2.31,2.31,0,0,0-.49,1.78c0,4,6.61,4.41,6.54,9.82-.06,4.39-2.49,6.45-4.48,6.45a8.32,8.32,0,0,1-3.41-.71l-1.78-.21,1.64-4.26,1.92,3a1.34,1.34,0,0,0,1,.43c.64,0,2.2-.71,2.2-3,0-4-6.61-4-6.61-10.3"/><polygon class="cls-4" points="85.56 88.3 86.91 90.34 86.91 105.53 85.34 108.13 91.53 108.13 90.03 105.53 90.03 90.34 91.46 88.3 85.56 88.3"/><polygon class="cls-4" points="107.44 88.3 109.01 90.34 109.01 105.53 107.57 108.13 112.35 108.13 110.71 105.53 110.71 93.75 119.03 110.1 119.03 90.34 120.74 88.3 115.98 88.3 117.4 90.34 117.4 99.65 111.64 88.3 107.44 88.3"/><path class="cls-4" d="M117,83a1.68,1.68,0,0,0-.51,1.24,1.71,1.71,0,0,0,.51,1.25,1.74,1.74,0,0,0,2.48,0,1.71,1.71,0,0,0,.51-1.25,1.68,1.68,0,0,0-.51-1.24A1.74,1.74,0,0,0,117,83m2.68,2.69a2,2,0,0,1-2.88,0,2,2,0,0,1,1.44-3.49,1.93,1.93,0,0,1,1.44.6,2,2,0,0,1,0,2.89m-1.06-2.22a.9.9,0,0,0-.47-.09h-.34v.82h.36a1.13,1.13,0,0,0,.37-.05.35.35,0,0,0,.23-.35c0-.17,0-.28-.15-.33m-.42-.36a1.79,1.79,0,0,1,.61.08.57.57,0,0,1,.35.57.47.47,0,0,1-.22.44.86.86,0,0,1-.32.11.54.54,0,0,1,.38.22.63.63,0,0,1,.13.35v.33a.29.29,0,0,0,0,.12v0h-.37v0s0,0,0,0V85a.57.57,0,0,0-.21-.52,1.07,1.07,0,0,0-.44-.07h-.31v.88h-.39V83.06Z"/><path class="cls-5" d="M13.12,121.58a.13.13,0,0,1,0,.06s0,0-.07,0l-.15,0h-.5l-.13,0a.13.13,0,0,1-.07-.05.43.43,0,0,1,0-.07l-.39-1c0-.12-.1-.22-.14-.3a1.39,1.39,0,0,0-.15-.22.59.59,0,0,0-.19-.13.71.71,0,0,0-.26,0h-.28v1.68a.14.14,0,0,1,0,.06l-.07,0a.29.29,0,0,1-.14,0h-.44a.32.32,0,0,1-.14,0l-.07,0a.14.14,0,0,1,0-.06v-4a.28.28,0,0,1,.08-.22.29.29,0,0,1,.19-.07h1.43l.21,0a1.89,1.89,0,0,1,.48.13,1.13,1.13,0,0,1,.36.24.91.91,0,0,1,.22.35,1.14,1.14,0,0,1,.08.46,1.7,1.7,0,0,1-.05.41,1.29,1.29,0,0,1-.17.33,1.09,1.09,0,0,1-.27.25,2,2,0,0,1-.36.17l.18.11c.06,0,.11.11.17.17a1.18,1.18,0,0,1,.14.22c0,.08.09.18.13.28l.37.87a1.2,1.2,0,0,1,.07.19.2.2,0,0,1,0,.1m-1.16-3a.62.62,0,0,0-.1-.37.51.51,0,0,0-.32-.21l-.15,0h-.65v1.25h.46a1.06,1.06,0,0,0,.33,0,.68.68,0,0,0,.24-.13.7.7,0,0,0,.15-.2.75.75,0,0,0,0-.26"/><path class="cls-5" d="M19.87,121.34a.86.86,0,0,1,0,.17.62.62,0,0,1,0,.1.09.09,0,0,1,0,.06l-.06,0H17.51a.33.33,0,0,1-.19-.06.29.29,0,0,1-.07-.22v-3.85a.29.29,0,0,1,.07-.22.28.28,0,0,1,.19-.07h2.21l.05,0s0,0,.05.06a.36.36,0,0,1,0,.11.81.81,0,0,1,0,.17.76.76,0,0,1,0,.16.31.31,0,0,1,0,.11s0,0-.05.06l-.05,0H18.14v1.08h1.39l0,.06a.36.36,0,0,1,0,.11.76.76,0,0,1,0,.16.71.71,0,0,1,0,.16.31.31,0,0,1,0,.11.08.08,0,0,1,0,0s0,0-.05,0H18.14V121h1.59l.06,0a.09.09,0,0,1,0,.06.62.62,0,0,1,0,.1.91.91,0,0,1,0,.17"/><path class="cls-5" d="M26.68,120.37a1.48,1.48,0,0,1-.13.61,1.39,1.39,0,0,1-.36.44,1.64,1.64,0,0,1-.51.26,2.2,2.2,0,0,1-.64.09,2,2,0,0,1-.43,0,1.69,1.69,0,0,1-.34-.09,1,1,0,0,1-.25-.11l-.15-.1a.23.23,0,0,1-.06-.13,1.34,1.34,0,0,1,0-.24,1,1,0,0,1,0-.18.36.36,0,0,1,0-.11s0-.06,0-.07l.06,0a.3.3,0,0,1,.14.06,1.83,1.83,0,0,0,.22.13l.33.12a1.4,1.4,0,0,0,.43.06,1.36,1.36,0,0,0,.3,0,1.13,1.13,0,0,0,.22-.11.46.46,0,0,0,.13-.18.47.47,0,0,0,0-.24.36.36,0,0,0-.08-.25.67.67,0,0,0-.21-.2l-.3-.15-.34-.16a1.7,1.7,0,0,1-.35-.19,1.38,1.38,0,0,1-.3-.24,1,1,0,0,1-.21-.35,1.13,1.13,0,0,1-.08-.47,1.4,1.4,0,0,1,.11-.56,1.26,1.26,0,0,1,.32-.4,1.49,1.49,0,0,1,.47-.24,2.14,2.14,0,0,1,.58-.08,1.63,1.63,0,0,1,.31,0l.3.06a1.33,1.33,0,0,1,.24.1l.14.08s0,0,0,.06a.11.11,0,0,1,0,.06s0,.06,0,.1V118s0,.08,0,.11a.16.16,0,0,1,0,.07l-.06,0-.11,0L26,118a1.69,1.69,0,0,0-.27-.1,1.29,1.29,0,0,0-.35,0,1,1,0,0,0-.26,0,.52.52,0,0,0-.18.1.42.42,0,0,0-.11.15.58.58,0,0,0,0,.19.4.4,0,0,0,.08.26.76.76,0,0,0,.21.18,1.79,1.79,0,0,0,.31.16l.35.16a2.79,2.79,0,0,1,.34.18,1.54,1.54,0,0,1,.31.25,1.08,1.08,0,0,1,.21.34,1.13,1.13,0,0,1,.09.47"/><path class="cls-5" d="M33.7,117.64a.86.86,0,0,1,0,.17.37.37,0,0,1,0,.12l-.05.06,0,0H32.46v3.56a.14.14,0,0,1,0,.06l-.07.05-.14,0h-.44l-.13,0-.08-.05a.14.14,0,0,1,0-.06V118H30.45l-.05,0,0-.06a.35.35,0,0,1,0-.12,1.45,1.45,0,0,1,0-.34.35.35,0,0,1,0-.12.09.09,0,0,1,0-.06l.05,0h3.12l0,0a.1.1,0,0,1,.05.06.37.37,0,0,1,0,.12.86.86,0,0,1,0,.17"/><path class="cls-5" d="M40.75,121.36a.59.59,0,0,1,0,.19.1.1,0,0,1,0,.11.18.18,0,0,1-.13,0h-.53l-.15,0a.1.1,0,0,1-.07,0s0,0,0-.07l-.29-.89H37.9l-.28.87a.2.2,0,0,1,0,.08.13.13,0,0,1-.07.05l-.14,0h-.48a.17.17,0,0,1-.13,0,.12.12,0,0,1,0-.11,1.08,1.08,0,0,1,0-.19l1.36-3.92a.36.36,0,0,1,.05-.09.15.15,0,0,1,.09-.06l.16,0h.6l.19,0a.17.17,0,0,1,.1.06.51.51,0,0,1,0,.1Zm-2-3.24h0L38.09,120h1.26Z"/><path class="cls-5" d="M48.32,120.05a1.82,1.82,0,0,1-.12.72,1.37,1.37,0,0,1-.35.55,1.45,1.45,0,0,1-.57.33,2.39,2.39,0,0,1-.79.12,2.45,2.45,0,0,1-.74-.1,1.47,1.47,0,0,1-.56-.32,1.3,1.3,0,0,1-.35-.53,2,2,0,0,1-.12-.74V117.4a.08.08,0,0,1,0-.07.14.14,0,0,1,.07,0l.14,0h.43l.14,0,.07,0a.14.14,0,0,1,0,.07V120a1.52,1.52,0,0,0,.07.45.77.77,0,0,0,.18.32.81.81,0,0,0,.29.19,1.23,1.23,0,0,0,.76,0,.82.82,0,0,0,.28-.19.79.79,0,0,0,.18-.31,1.3,1.3,0,0,0,.07-.41V117.4a.08.08,0,0,1,0-.07.14.14,0,0,1,.07,0l.14,0h.43l.13,0,.07,0a.08.08,0,0,1,0,.07Z"/><path class="cls-5" d="M56,121.58s0,0,0,.06,0,0-.07,0l-.15,0h-.5l-.13,0a.1.1,0,0,1-.07-.05.16.16,0,0,1,0-.07l-.39-1c-.05-.12-.1-.22-.14-.3a1.39,1.39,0,0,0-.15-.22.53.53,0,0,0-.2-.13.66.66,0,0,0-.25,0h-.28v1.68a.14.14,0,0,1,0,.06.15.15,0,0,1-.08,0,.25.25,0,0,1-.13,0H53a.29.29,0,0,1-.14,0s-.06,0-.07,0a.14.14,0,0,1,0-.06v-4a.28.28,0,0,1,.08-.22.29.29,0,0,1,.19-.06h1.43l.2,0a1.69,1.69,0,0,1,.48.13,1,1,0,0,1,.36.24.93.93,0,0,1,.23.35,1.34,1.34,0,0,1,.08.46,1.31,1.31,0,0,1-.06.41,1,1,0,0,1-.16.33,1.29,1.29,0,0,1-.27.25,1.8,1.8,0,0,1-.37.17,1.18,1.18,0,0,1,.19.11,1.29,1.29,0,0,1,.16.17,1.21,1.21,0,0,1,.15.22c0,.08.09.18.13.28l.37.87a1.2,1.2,0,0,1,.07.19.44.44,0,0,1,0,.1m-1.16-3a.62.62,0,0,0-.1-.37.51.51,0,0,0-.32-.21l-.16,0h-.64v1.25h.46a1.11,1.11,0,0,0,.33,0,.68.68,0,0,0,.24-.13.66.66,0,0,0,.14-.2.75.75,0,0,0,0-.26"/><path class="cls-5" d="M63.78,121.36c0,.08,0,.14,0,.19a.16.16,0,0,1,0,.11.22.22,0,0,1-.13,0h-.54l-.15,0a.18.18,0,0,1-.07,0,.24.24,0,0,1,0-.07l-.3-.89H60.92l-.28.87a.2.2,0,0,1,0,.08.1.1,0,0,1-.07.05l-.14,0h-.48a.14.14,0,0,1-.12,0s0-.06,0-.11a1.3,1.3,0,0,1,.06-.19l1.36-3.92a.39.39,0,0,1,0-.09.15.15,0,0,1,.09-.06l.17,0h.6l.19,0a.15.15,0,0,1,.09.06.23.23,0,0,1,0,.1Zm-2-3.24h0L61.12,120h1.25Z"/><path class="cls-5" d="M71.5,121.38a.59.59,0,0,1,0,.14.39.39,0,0,1-.08.1.2.2,0,0,1-.11.06l-.12,0h-.39a.56.56,0,0,1-.2,0,.35.35,0,0,1-.16-.08.79.79,0,0,1-.14-.17l-.16-.28L69,119.07c-.06-.12-.13-.25-.19-.39s-.13-.29-.18-.42h0c0,.16,0,.33,0,.49s0,.33,0,.5v2.31a.14.14,0,0,1,0,.07l-.06,0a.42.42,0,0,1-.13,0h-.4a.35.35,0,0,1-.12,0l-.06,0a.14.14,0,0,1,0-.07v-4a.33.33,0,0,1,.09-.25.38.38,0,0,1,.24-.08h.48l.22,0,.15.08a.47.47,0,0,1,.14.14,2.18,2.18,0,0,1,.12.22l.86,1.62.15.29.14.28.14.28.12.27c0-.16,0-.32,0-.5s0-.33,0-.49v-2.07a.19.19,0,0,1,0-.07l.07,0,.13,0h.4l.12,0,.06,0a.17.17,0,0,1,0,.07Z"/><path class="cls-5" d="M78.87,117.64v.17l0,.12,0,.06-.06,0H77.63v3.56a.07.07,0,0,1,0,.06s0,0-.07.05l-.14,0H77l-.14,0s-.06,0-.07-.05a.09.09,0,0,1,0-.06V118h-1.1l-.06,0,0-.06a.37.37,0,0,1,0-.12.73.73,0,0,1,0-.34.37.37,0,0,1,0-.12.09.09,0,0,1,0-.06l.06,0h3.11l.06,0a.15.15,0,0,1,0,.06l0,.12v.17"/><path class="cls-5" d="M87.7,120.46a1.36,1.36,0,0,1,0-.36,1.41,1.41,0,0,1,.17-.32,1.9,1.9,0,0,1,.28-.29,2.4,2.4,0,0,1,.39-.26,3.72,3.72,0,0,1-.22-.3,2.43,2.43,0,0,1-.15-.26,1.86,1.86,0,0,1-.09-.24,2,2,0,0,1,0-.23,1.12,1.12,0,0,1,.08-.45,1,1,0,0,1,.27-.36,1.19,1.19,0,0,1,.46-.25,2.17,2.17,0,0,1,.67-.09,2.25,2.25,0,0,1,.62.07,1.55,1.55,0,0,1,.43.19.79.79,0,0,1,.24.31A.91.91,0,0,1,91,118a1.12,1.12,0,0,1-.07.38,1,1,0,0,1-.22.33,1.49,1.49,0,0,1-.35.3,4.21,4.21,0,0,1-.49.3l.2.22.24.24.24.23.24.22a.8.8,0,0,0,.08-.16.6.6,0,0,0,.06-.19.71.71,0,0,0,0-.2,1.5,1.5,0,0,0,0-.2v-.11s0,0,0-.06a.1.1,0,0,1,.06,0l.12,0h.41l.12,0,.07,0a.17.17,0,0,1,0,.08v.1a1.83,1.83,0,0,1,0,.33,1.76,1.76,0,0,1-.07.33,2.09,2.09,0,0,1-.11.3q-.07.15-.15.27l.2.16.15.1.11.05H92l.06,0,0,.09s0,.1,0,.18a1.15,1.15,0,0,1,0,.2.22.22,0,0,1,0,.1s0,0,0,.06a.19.19,0,0,1-.09,0l-.17,0-.15,0a.89.89,0,0,1-.19-.07l-.25-.14-.32-.22-.33.19a2.28,2.28,0,0,1-.36.15,2.34,2.34,0,0,1-.38.09,2.77,2.77,0,0,1-.42,0,3.13,3.13,0,0,1-.44,0,2.22,2.22,0,0,1-.39-.1,1.92,1.92,0,0,1-.35-.18,1.12,1.12,0,0,1-.43-.58,1.31,1.31,0,0,1-.06-.41m.93,0a.59.59,0,0,0,.05.27.65.65,0,0,0,.16.21.68.68,0,0,0,.25.14,1,1,0,0,0,.35,0l.21,0,.19,0,.19-.08.16-.1-.31-.26-.3-.28L89.3,120l-.24-.27a.83.83,0,0,0-.2.16.91.91,0,0,0-.13.16.53.53,0,0,0-.08.17.47.47,0,0,0,0,.17m.38-2.25a.78.78,0,0,0,0,.14.77.77,0,0,0,.07.16,1.74,1.74,0,0,0,.11.18l.15.2.33-.2a1.42,1.42,0,0,0,.22-.18.88.88,0,0,0,.12-.17.57.57,0,0,0,0-.18.37.37,0,0,0,0-.15.41.41,0,0,0-.1-.13.48.48,0,0,0-.16-.08.73.73,0,0,0-.22,0,.9.9,0,0,0-.25,0,.35.35,0,0,0-.16.09.33.33,0,0,0-.1.14.52.52,0,0,0,0,.18"/><path class="cls-5" d="M104.54,120.37a1.12,1.12,0,0,1-.07.42,1,1,0,0,1-.18.34,1.11,1.11,0,0,1-.27.26,1.89,1.89,0,0,1-.35.17,2.73,2.73,0,0,1-.41.1,3.53,3.53,0,0,1-.48,0H101.6a.31.31,0,0,1-.19-.06.29.29,0,0,1-.07-.22v-3.85a.29.29,0,0,1,.07-.22.26.26,0,0,1,.19-.07h1.11a2.71,2.71,0,0,1,.69.07,1.51,1.51,0,0,1,.48.21,1,1,0,0,1,.29.35,1.12,1.12,0,0,1,.11.5,1,1,0,0,1,0,.3.68.68,0,0,1-.12.26.89.89,0,0,1-.19.2.93.93,0,0,1-.26.15,1.42,1.42,0,0,1,.35.11,1.44,1.44,0,0,1,.27.22,1.29,1.29,0,0,1,.19.32,1.07,1.07,0,0,1,.07.41m-1.16-1.86a.86.86,0,0,0,0-.24.59.59,0,0,0-.13-.18.55.55,0,0,0-.2-.11,1.58,1.58,0,0,0-.34,0h-.45v1.14h.5a.9.9,0,0,0,.31,0,.53.53,0,0,0,.2-.13.59.59,0,0,0,.11-.19.78.78,0,0,0,0-.22m.22,1.89a.61.61,0,0,0,0-.28.43.43,0,0,0-.15-.2.73.73,0,0,0-.25-.13,1.49,1.49,0,0,0-.4,0h-.53V121h.65a1.3,1.3,0,0,0,.31,0,.66.66,0,0,0,.22-.12.45.45,0,0,0,.15-.19.55.55,0,0,0,0-.26"/><path class="cls-5" d="M112.28,121.36c0,.08,0,.14,0,.19a.16.16,0,0,1,0,.11.23.23,0,0,1-.14,0h-.53l-.15,0a.13.13,0,0,1-.07,0,.24.24,0,0,1,0-.07l-.3-.89h-1.66l-.28.87a.2.2,0,0,1,0,.08.1.1,0,0,1-.07.05l-.14,0h-.48a.14.14,0,0,1-.12,0s0-.06,0-.11,0-.11,0-.19l1.37-3.92a.19.19,0,0,1,0-.09.15.15,0,0,1,.09-.06l.17,0h.6l.18,0a.14.14,0,0,1,.1.06.23.23,0,0,1,0,.1Zm-2-3.24h0l-.62,1.88h1.25Z"/><path class="cls-5" d="M119.64,121.58a.13.13,0,0,1,0,.06s0,0-.07,0l-.15,0h-.5l-.13,0a.1.1,0,0,1-.07-.05.16.16,0,0,1,0-.07l-.39-1c0-.12-.1-.22-.14-.3a1,1,0,0,0-.16-.22.5.5,0,0,0-.19-.13.66.66,0,0,0-.25,0h-.28v1.68a.14.14,0,0,1,0,.06.15.15,0,0,1-.08,0,.25.25,0,0,1-.13,0h-.44a.29.29,0,0,1-.14,0l-.07,0a.14.14,0,0,1,0-.06v-4a.28.28,0,0,1,.08-.22.29.29,0,0,1,.19-.06h1.43l.2,0a1.69,1.69,0,0,1,.48.13,1,1,0,0,1,.36.24.93.93,0,0,1,.23.35,1.34,1.34,0,0,1,.08.46,1.31,1.31,0,0,1-.06.41,1,1,0,0,1-.16.33,1.29,1.29,0,0,1-.27.25,1.8,1.8,0,0,1-.37.17,1.18,1.18,0,0,1,.19.11,1.29,1.29,0,0,1,.16.17,2.1,2.1,0,0,1,.15.22c0,.08.09.18.13.28l.37.87a1.2,1.2,0,0,1,.07.19.44.44,0,0,1,0,.1m-1.16-3a.62.62,0,0,0-.1-.37.51.51,0,0,0-.32-.21l-.16,0h-.64v1.25h.46a1.11,1.11,0,0,0,.33,0,.68.68,0,0,0,.24-.13.52.52,0,0,0,.14-.2.75.75,0,0,0,0-.26"/><path class="cls-5" d="M33.92,126.77a3.16,3.16,0,0,1-.16,1,1.79,1.79,0,0,1-.46.71,2,2,0,0,1-.72.4,3.35,3.35,0,0,1-1,.13H30.51a.34.34,0,0,1-.19-.07.28.28,0,0,1-.07-.22v-3.85a.25.25,0,0,1,.07-.21.28.28,0,0,1,.19-.07h1.14a3.26,3.26,0,0,1,1,.14,1.76,1.76,0,0,1,.69.41,1.72,1.72,0,0,1,.43.67,2.61,2.61,0,0,1,.15.92m-.93,0a2.65,2.65,0,0,0-.07-.59,1.23,1.23,0,0,0-.24-.47,1.21,1.21,0,0,0-.42-.31,1.75,1.75,0,0,0-.66-.11h-.46v3h.47a1.87,1.87,0,0,0,.62-.1,1,1,0,0,0,.42-.29,1.25,1.25,0,0,0,.25-.47,2.31,2.31,0,0,0,.09-.67"/><path class="cls-5" d="M41.16,128.7a.76.76,0,0,1,0,.16.36.36,0,0,1,0,.11.1.1,0,0,1-.05.06l0,0H38.81a.29.29,0,0,1-.19-.07.28.28,0,0,1-.08-.22v-3.85a.26.26,0,0,1,.08-.21.25.25,0,0,1,.19-.07H41a.11.11,0,0,1,.06,0,.15.15,0,0,1,0,.06.53.53,0,0,1,0,.11v.33a.62.62,0,0,1,0,.1.15.15,0,0,1,0,.06s0,0-.06,0H39.44v1.08h1.33l.06,0a.09.09,0,0,1,0,.06.53.53,0,0,1,0,.11s0,.09,0,.16,0,.12,0,.16l0,.11a.1.1,0,0,1,0,0H39.44v1.25H41l0,0,.05.06a.36.36,0,0,1,0,.11.86.86,0,0,1,0,.17"/><path class="cls-5" d="M48.4,127.72a1.44,1.44,0,0,1-.13.61,1.39,1.39,0,0,1-.35.44,1.51,1.51,0,0,1-.52.27,2.2,2.2,0,0,1-.64.09,2.72,2.72,0,0,1-.42,0L46,129l-.25-.11-.15-.1a.26.26,0,0,1-.06-.13,1.44,1.44,0,0,1,0-.24.92.92,0,0,1,0-.18.37.37,0,0,1,0-.12.09.09,0,0,1,0-.06l.06,0a.3.3,0,0,1,.14.06l.22.12a1.27,1.27,0,0,0,.33.12,1.42,1.42,0,0,0,.44.06.92.92,0,0,0,.29,0,.51.51,0,0,0,.22-.11.42.42,0,0,0,.14-.18.59.59,0,0,0,0-.23.38.38,0,0,0-.08-.26.78.78,0,0,0-.21-.19,2.11,2.11,0,0,0-.3-.16l-.34-.15a3.9,3.9,0,0,1-.35-.19,1.42,1.42,0,0,1-.3-.25,1,1,0,0,1-.21-.34,1.15,1.15,0,0,1-.08-.48,1.2,1.2,0,0,1,.12-.55,1,1,0,0,1,.31-.4,1.31,1.31,0,0,1,.47-.24,2.25,2.25,0,0,1,.58-.08l.31,0,.3.07.24.09a.48.48,0,0,1,.14.09s0,0,0,.06l0,.06a.46.46,0,0,0,0,.1v.32s0,.08,0,.11,0,0,0,.06l-.06,0a.19.19,0,0,1-.11,0l-.21-.1a1.69,1.69,0,0,0-.27-.1,1.29,1.29,0,0,0-.35,0,.62.62,0,0,0-.25,0,.48.48,0,0,0-.19.09.39.39,0,0,0-.1.16.41.41,0,0,0,0,.19.44.44,0,0,0,.08.25.65.65,0,0,0,.21.19,2.25,2.25,0,0,0,.31.16l.35.15.35.19a1.42,1.42,0,0,1,.3.25,1.08,1.08,0,0,1,.21.34,1.11,1.11,0,0,1,.09.46"/><path class="cls-5" d="M56.65,126.77a2.92,2.92,0,0,1-.16,1,1.72,1.72,0,0,1-1.18,1.11,3.35,3.35,0,0,1-1,.13H53.24a.34.34,0,0,1-.19-.07.28.28,0,0,1-.07-.22v-3.85a.25.25,0,0,1,.07-.21.28.28,0,0,1,.19-.07h1.14a3.21,3.21,0,0,1,1,.14,1.76,1.76,0,0,1,.69.41,1.72,1.72,0,0,1,.43.67,2.61,2.61,0,0,1,.15.92m-.93,0a2.17,2.17,0,0,0-.07-.59,1.23,1.23,0,0,0-.24-.47,1.21,1.21,0,0,0-.42-.31,1.71,1.71,0,0,0-.66-.11h-.46v3h.47a1.83,1.83,0,0,0,.62-.1,1,1,0,0,0,.42-.29,1.27,1.27,0,0,0,.26-.47,2.73,2.73,0,0,0,.08-.67"/><path class="cls-5" d="M63.89,128.7a.76.76,0,0,1,0,.16.36.36,0,0,1,0,.11.15.15,0,0,1,0,.06l-.06,0H61.54a.32.32,0,0,1-.19-.07.28.28,0,0,1-.08-.22v-3.85a.26.26,0,0,1,.08-.21.26.26,0,0,1,.19-.07h2.2a.08.08,0,0,1,.06,0,.09.09,0,0,1,0,.06.53.53,0,0,1,0,.11s0,.1,0,.16,0,.12,0,.17a.62.62,0,0,1,0,.1.09.09,0,0,1,0,.06s0,0-.06,0H62.17v1.08H63.5a.11.11,0,0,1,.06,0,.09.09,0,0,1,0,.06.53.53,0,0,1,0,.11s0,.09,0,.16,0,.12,0,.16l0,.11a.1.1,0,0,1,0,0H62.17v1.25h1.59l.06,0,0,.06a.36.36,0,0,1,0,.11.86.86,0,0,1,0,.17"/><path class="cls-5" d="M76.79,128.71a.81.81,0,0,1,0,.16.62.62,0,0,1,0,.1.15.15,0,0,1,0,.06l-.06,0H74.21l0,0a.15.15,0,0,1,0-.06.62.62,0,0,1,0-.1c0-.05,0-.1,0-.16s0-.12,0-.17l0-.11s0-.05,0-.06l0,0H75v-2.87l-.71.39a.55.55,0,0,1-.13,0,.11.11,0,0,1-.08,0,.23.23,0,0,1,0-.1s0-.12,0-.21a.53.53,0,0,1,0-.13.22.22,0,0,1,0-.09s0-.05,0-.06a.13.13,0,0,1,.07,0l.94-.62,0,0h.55l.12,0,.06,0a.09.09,0,0,1,0,0v3.65h.72l.06,0s0,0,0,.06a.35.35,0,0,1,0,.11.86.86,0,0,1,0,.17"/><path class="cls-5" d="M84.28,126.63a5.59,5.59,0,0,1,0,.57,3.66,3.66,0,0,1-.1.56,2.66,2.66,0,0,1-.21.53,1.61,1.61,0,0,1-.35.43,1.32,1.32,0,0,1-.52.29,2,2,0,0,1-.72.12l-.29,0-.27-.06-.2-.06a.31.31,0,0,1-.12-.07.17.17,0,0,1-.06-.1,1,1,0,0,1,0-.2c0-.07,0-.13,0-.18a.25.25,0,0,1,0-.1.07.07,0,0,1,0-.05h.05a.3.3,0,0,1,.12,0l.18,0a1.4,1.4,0,0,0,.24.06,1.51,1.51,0,0,0,.31,0,1,1,0,0,0,.48-.1.87.87,0,0,0,.32-.28.91.91,0,0,0,.18-.4,1.85,1.85,0,0,0,.07-.48,1.67,1.67,0,0,1-.38.17,1.61,1.61,0,0,1-.51.07,1.8,1.8,0,0,1-.6-.09.91.91,0,0,1-.39-.27,1,1,0,0,1-.23-.42,1.91,1.91,0,0,1-.07-.56,1.74,1.74,0,0,1,.1-.61,1.24,1.24,0,0,1,.29-.48,1.44,1.44,0,0,1,.49-.32,2,2,0,0,1,.67-.11,1.77,1.77,0,0,1,.54.07,1.22,1.22,0,0,1,.39.21,1.08,1.08,0,0,1,.28.32,2,2,0,0,1,.18.42,3.71,3.71,0,0,1,.09.5c0,.18,0,.37,0,.56m-.89-.12a5,5,0,0,0,0-.61,1.5,1.5,0,0,0-.12-.39.53.53,0,0,0-.21-.21.65.65,0,0,0-.29-.06.57.57,0,0,0-.27.06.45.45,0,0,0-.2.16.67.67,0,0,0-.11.24,1,1,0,0,0,0,.3,1,1,0,0,0,0,.32.61.61,0,0,0,.09.23.38.38,0,0,0,.19.14.73.73,0,0,0,.27,0,1.1,1.1,0,0,0,.37-.06,1.07,1.07,0,0,0,.32-.16"/><path class="cls-5" d="M91.67,127.61a1.78,1.78,0,0,1-.12.64,1.44,1.44,0,0,1-.36.48,1.41,1.41,0,0,1-.54.29,2.41,2.41,0,0,1-1.1.08,2.09,2.09,0,0,1-.33-.07A1.26,1.26,0,0,1,89,129l-.12-.07,0,0a.19.19,0,0,1,0-.08.31.31,0,0,1,0-.1.81.81,0,0,1,0-.16.76.76,0,0,1,0-.16.31.31,0,0,1,0-.11.09.09,0,0,1,0-.06l0,0a.25.25,0,0,1,.11,0l.18.08.28.09a1.51,1.51,0,0,0,.39,0,1,1,0,0,0,.36,0,.65.65,0,0,0,.28-.12.66.66,0,0,0,.17-.23.67.67,0,0,0,.07-.33.68.68,0,0,0-.06-.29.5.5,0,0,0-.16-.22.66.66,0,0,0-.28-.13,1.73,1.73,0,0,0-.42-.05,2.05,2.05,0,0,0-.37,0l-.3,0A.18.18,0,0,1,89,127a.3.3,0,0,1,0-.18v-1.92a.27.27,0,0,1,0-.2.21.21,0,0,1,.17-.06h2.09l.06,0s0,0,0,.06a.24.24,0,0,1,0,.12,1,1,0,0,1,0,.18.77.77,0,0,1,0,.3c0,.06,0,.09-.1.09H89.69v.94h.49a2,2,0,0,1,.63.09,1.16,1.16,0,0,1,.47.24,1.06,1.06,0,0,1,.29.4,1.64,1.64,0,0,1,.1.56"/><path class="cls-5" d="M99.14,125v.17s0,.09,0,.14l0,.12a.43.43,0,0,0,0,.12l-1.46,3.37a.18.18,0,0,1,0,.07.19.19,0,0,1-.09,0l-.15,0h-.51a.39.39,0,0,1-.15,0,.1.1,0,0,1-.06-.07.19.19,0,0,1,0-.09l1.56-3.45H96.3s-.08,0-.1-.09a.83.83,0,0,1,0-.31.91.91,0,0,1,0-.17,1,1,0,0,1,0-.12.43.43,0,0,1,0-.07l.06,0H99a.09.09,0,0,1,.06.06.23.23,0,0,1,0,.11,1.15,1.15,0,0,1,0,.2"/><path class="cls-6" d="M101.13,76.18a3.46,3.46,0,0,1-3.46,3.45H29.87a3.46,3.46,0,0,1-3.45-3.45V8.38a3.46,3.46,0,0,1,3.45-3.46h67.8a3.46,3.46,0,0,1,3.46,3.46Z"/><rect class="cls-2" x="28.45" y="6.92" width="70.77" height="70.77" rx="3.46" ry="3.46"/><path class="cls-4" d="M55.44,19.46h16s2.17-.59,2.17-2.51c0-1.62-2-3.34-2-3.34s4.81-.49,4.81,5.45c0,4.33-4.52,4.87-4.52,4.87H54.7s-4.81-.3-4.81-5.06,5.16-5.26,5.16-5.26-2.22,2.07-2.22,3.54c0,2,2.61,2.31,2.61,2.31"/><path class="cls-4" d="M68.4,48.63V45.2a5.36,5.36,0,0,1,1.41-3.53C71.44,40,74,37.57,74,37.57v3.52a5.77,5.77,0,0,1-1.48,3.46c-1,1.12-4.08,4.08-4.08,4.08"/><path class="cls-4" d="M51.73,13.26s-6.63-.6-9,5.12.15,8.13.15,8.13L37,29.88a16.33,16.33,0,0,0-2.55,2.05,6.89,6.89,0,0,0-1.2,4.23l-.05,4.36,7.24,7.84,4.82-2v16a4.42,4.42,0,0,0-2.4,4c0,2.86,3.9,4.94,3.9,4.94H66s2.41.63,4.83-2.5c2-2.63,2-3.59,2-3.59V62.8a2.24,2.24,0,0,1,.28-1.27c.9-1.19,6.79-6.69,7.69-8.65s.61-6.78.61-6.78l5.11,3.31,7.68-7.23V35a3.57,3.57,0,0,0-.45-1.9,13.3,13.3,0,0,0-2.06-1.87l-8.18-4.61s1.2-.74,1.2-5.87c0-8.58-9.64-7.23-9.64-7.23s5.58,1.66,5.58,7.38-3.92,6.78-3.92,6.78l10.39,6.17s2.76,1.31,2.76,2.91.11,9,.11,9L76.74,38.72v10a7.7,7.7,0,0,1-.15,2.7,12.75,12.75,0,0,1-1.23,2.15L69.21,59.8s-.78.9-1.07,1.21a1.29,1.29,0,0,0-.3.75v2.9a2.09,2.09,0,0,1-.6,1.48,2.43,2.43,0,0,1-1.8.89H50.51a4.16,4.16,0,0,1-3.61-4.21,3.82,3.82,0,0,1,3.36-4.07l0-15.36a3.37,3.37,0,0,0-.3-2.56c-.75-1.07-3.31-.76-3.31-.76l-9,4.37V37.23a2.72,2.72,0,0,1,.42-2A5,5,0,0,1,39.69,34l10.82-5.84A8.33,8.33,0,0,1,46,20.49c0-5.72,5.73-7.23,5.73-7.23"/><path class="cls-7" d="M84.7,48.27a2.59,2.59,0,0,0,3.08-.07l1.53-1.34.51.33,0,2.6-3.67.79-2.38-1.35Z"/><path class="cls-7" d="M93.22,43.13a3.62,3.62,0,0,0,1-2.72v-.82l.94.72.19,2.14-1.56.87Z"/><path class="cls-7" d="M43.2,47.24s-2.1,1.07-3.55-.1l-3.16-3,1.23,2.12,0,2.6,3.67.79,2.38-1.34Z"/><path class="cls-7" d="M34.22,41.65a3.58,3.58,0,0,1-1-2.71v-.82l-.94.72L32.09,41l1.56.86Z"/><path class="cls-7" d="M44.53,69.62s1.29,1.58,4.68,1.58H64.92s4.1.15,6.12-2.66l1.08-1,1.36,2.09L69.88,72l-7.56.93H45.17Z"/><rect class="cls-8" width="127.4" height="134.09"/></g></g></svg>