<svg xmlns="http://www.w3.org/2000/svg" viewBox="0 0 178.33 52.99"><defs><style>.cls-1{fill:#9bca3e;}.cls-2{fill:#77cee1;}.cls-3{fill:#98c93c;}</style></defs><title>Asset 32</title><g id="Layer_2" data-name="Layer 2"><g id="Layer_1-2" data-name="Layer 1"><path class="cls-1" d="M29.89,19.23c1.9-7.6,1.91-7.21,2.74-10.41C33.36,6,36.05-2.69,42,.82c4.67,2.78,1.29,8.89-4.65,13,0,0-7.44,5.58-7.44,5.44"/><path class="cls-1" d="M29.67,19.22c-4.38-3.78-4.13-3.65-6-5.26-1.6-1.42-6.46-6.07-2.21-8.66,3.36-2,6.27,2.18,7,7.34,0,0,1.24,6.63,1.15,6.58"/><path class="cls-2" d="M12.74,32.89a4,4,0,1,1,4,4,4,4,0,0,1-4-4m-4.14,0a8.15,8.15,0,1,0,8.14-8.15A8.16,8.16,0,0,0,8.6,32.89"/><path class="cls-2" d="M40.09,32.89a4,4,0,1,1,4,4,4,4,0,0,1-4-4m-4.14,0a8.15,8.15,0,1,0,8.14-8.15A8.16,8.16,0,0,0,36,32.89"/><path class="cls-2" d="M43.88,15a16.28,16.28,0,0,0-13.81,7.7A16.25,16.25,0,0,0,0,31.28V39.2a2.45,2.45,0,1,0,4.89,0V31.28a11.37,11.37,0,0,1,22.73,0V42.8a2.45,2.45,0,0,0,2.45,2.45h0a2.45,2.45,0,0,0,2.45-2.45V31.28a11.36,11.36,0,1,1,22.72,0v8a2.45,2.45,0,1,0,4.9,0v-8A16.28,16.28,0,0,0,43.88,15"/><path class="cls-2" d="M115.21,38.66a10.31,10.31,0,1,1,10-10.31,10.17,10.17,0,0,1-10,10.31m0-23.63a13.14,13.14,0,0,0-13,13.32,13,13,0,1,0,25.91,0,13.14,13.14,0,0,0-13-13.32m50.16,23.63a10.31,10.31,0,1,1,10-10.31,10.17,10.17,0,0,1-10,10.31m0-23.63a13.14,13.14,0,0,0-13,13.32,13,13,0,1,0,25.91,0,13.14,13.14,0,0,0-13-13.32m-19.3,7.43c0,6.24-4.64,6.63-5.75,6.64h-.23c-1.11,0-5.75-.4-5.75-6.64V15.74h-3.21v7.32c0,1.58.25,7.94,7.52,8.78v9.83h3.29V31.82c7.1-.93,7.34-7.19,7.34-8.76V15.74h-3.21ZM89.85,15H89.3c-3.76.11-5.83,1.77-7,3.69-1.13-1.92-3.2-3.58-7-3.69h-.55c-9.13.26-8.26,9.7-8.26,9.7V41.67h2.9V25.58c0-6.7,3.9-7.36,5.36-7.37v0l.28,0,.27,0v0c1.47,0,5.36.67,5.36,7.37V41.67h3.19V25.58c0-6.7,3.89-7.36,5.36-7.37v0l.27,0,.28,0v0c1.46,0,5.36.67,5.36,7.37V41.67h2.9V24.74S99,15.3,89.85,15"/><path class="cls-3" d="M66.66,47.31a.54.54,0,0,1,1.08,0v1.34h2V47.31a.54.54,0,0,1,1.08,0v3.82a.54.54,0,0,1-1.08,0V49.55h-2v1.58a.54.54,0,0,1-1.08,0Z"/><path class="cls-3" d="M72.46,50.05a.83.83,0,0,0,.89.87c.72,0,.72-.47,1.11-.47a.39.39,0,0,1,.39.37c0,.58-.92.85-1.5.85a1.68,1.68,0,0,1-1.85-1.74,1.72,1.72,0,0,1,1.82-1.87,1.61,1.61,0,0,1,1.73,1.57c0,.33-.1.42-.42.42Zm1.68-.56a.81.81,0,0,0-.8-.76.87.87,0,0,0-.88.76Z"/><path class="cls-3" d="M75.72,47.25a.48.48,0,0,1,1,0v3.94a.48.48,0,1,1-1,0Z"/><path class="cls-3" d="M80.68,50.66a3.68,3.68,0,0,0,.09.64.4.4,0,0,1-.43.37.51.51,0,0,1-.56-.56,1.68,1.68,0,0,1-1.32.56,1,1,0,0,1-1.08-1c0-.8.6-1,1.34-1.1l.58-.07c.23,0,.42-.08.42-.35s-.29-.4-.61-.4c-.71,0-.73.53-1.11.53a.38.38,0,0,1-.4-.37c0-.38.53-.87,1.52-.87s1.56.3,1.56,1Zm-1-.69a.89.89,0,0,1-.42.15l-.35.05c-.4.06-.61.18-.61.47s.2.4.53.4a.77.77,0,0,0,.85-.7Z"/><path class="cls-3" d="M84.75,51.21c0,.3-.14.46-.43.46a.41.41,0,0,1-.44-.46v-.15h0a1,1,0,0,1-1,.61c-.8,0-1.5-.59-1.5-1.83,0-.92.46-1.78,1.47-1.78a1.06,1.06,0,0,1,1,.49h0v-1.3a.48.48,0,1,1,1,0Zm-1.67-.29c.56,0,.77-.5.77-1s-.19-1.08-.77-1.07-.77.62-.77,1.07S82.56,50.91,83.08,50.92Z"/><path class="cls-3" d="M87.14,48.06a1.67,1.67,0,0,1,1.77,1.8,1.77,1.77,0,1,1-3.54,0A1.67,1.67,0,0,1,87.14,48.06Zm0,2.9c.57,0,.81-.51.81-1.1s-.25-1.09-.81-1.09-.81.47-.81,1.09S86.57,51,87.14,51Z"/><path class="cls-3" d="M94.79,51.21c0,.3-.14.46-.43.46a.4.4,0,0,1-.44-.46v-.15h0a1,1,0,0,1-1,.61c-.8,0-1.51-.59-1.51-1.83,0-.92.47-1.78,1.48-1.78a1.06,1.06,0,0,1,.95.49h0v-1.3a.48.48,0,1,1,1,0Zm-1.68-.29c.56,0,.77-.5.77-1s-.18-1.08-.77-1.07-.76.62-.76,1.07S92.6,50.91,93.11,50.92Z"/><path class="cls-3" d="M96.36,50.05a.83.83,0,0,0,.89.87c.72,0,.72-.47,1.11-.47a.39.39,0,0,1,.39.37c0,.58-.92.85-1.5.85a1.68,1.68,0,0,1-1.85-1.74,1.72,1.72,0,0,1,1.82-1.87A1.61,1.61,0,0,1,99,49.63c0,.33-.1.42-.42.42ZM98,49.49a.81.81,0,0,0-.8-.76.87.87,0,0,0-.88.76Z"/><path class="cls-3" d="M102.85,50.66h0l.59-2.17c.06-.24.19-.43.46-.43a.47.47,0,0,1,.49.44,1.22,1.22,0,0,1-.07.3l-1.11,3.14c-.23.66-.5,1-1.1,1-.43,0-.6-.21-.6-.44a.39.39,0,0,1,.44-.39h.09c.13,0,.27,0,.34-.3l-1-2.84a1.49,1.49,0,0,1-.12-.45.46.46,0,0,1,.47-.46.49.49,0,0,1,.49.36Z"/><path class="cls-3" d="M106.41,48.06a1.68,1.68,0,0,1,1.77,1.8,1.78,1.78,0,1,1-3.55,0A1.68,1.68,0,0,1,106.41,48.06Zm0,2.9c.57,0,.81-.51.81-1.1s-.25-1.09-.81-1.09-.82.47-.82,1.09S105.84,51,106.41,51Z"/><path class="cls-3" d="M112.05,51.3A1.55,1.55,0,0,1,110.34,53c-.73,0-1.45-.33-1.45-.8a.4.4,0,0,1,.4-.4c.4,0,.48.49,1,.49s.82-.3.82-1.05V51h0a1.17,1.17,0,0,1-.92.46,1.45,1.45,0,0,1-1.54-1.6c0-1.24.7-1.83,1.5-1.83a1.1,1.1,0,0,1,1,.57h0v-.11c0-.3.15-.46.43-.46s.44.16.44.46Zm-1.68-.52c.43,0,.76-.28.76-1s-.27-1-.71-1c-.62,0-.81.45-.81,1C109.61,50.3,109.83,50.78,110.37,50.78Z"/><path class="cls-3" d="M116.06,51.19c0,.29-.13.48-.44.48s-.43-.19-.43-.48v-.13h0a1.37,1.37,0,0,1-1.16.61,1.13,1.13,0,0,1-1.21-1.26V48.54a.43.43,0,0,1,.48-.48.43.43,0,0,1,.48.48v1.68a.58.58,0,0,0,.6.66.75.75,0,0,0,.73-.76V48.54a.43.43,0,0,1,.48-.48.43.43,0,0,1,.48.48Z"/><path class="cls-3" d="M116.87,48.51a.44.44,0,1,1,.87,0v.37h0c.11-.4.33-.82.79-.82a.49.49,0,0,1,.53.47.44.44,0,0,1-.47.48h-.17c-.39,0-.6.27-.6,1.06v1.12a.43.43,0,0,1-.48.48.43.43,0,0,1-.48-.48Z"/><path class="cls-3" d="M119.74,48.78h-.17c-.27,0-.38-.11-.38-.32s.11-.31.38-.31h.17v-.59a.48.48,0,0,1,1,0v.59H121c.28,0,.43.08.43.31s-.15.32-.43.32h-.29V50.7c0,.14.08.22.25.22h.14a.3.3,0,0,1,.33.32c0,.28-.24.43-.7.43-.69,0-1-.29-1-.86Z"/><path class="cls-3" d="M123.93,48.54c0-.29.13-.48.43-.48s.43.19.43.48v.13h0a1.36,1.36,0,0,1,1.16-.61,1.13,1.13,0,0,1,1.21,1.26v1.87a.43.43,0,0,1-.48.48.43.43,0,0,1-.48-.48V49.51a.58.58,0,0,0-.61-.66.75.75,0,0,0-.73.76v1.58a.48.48,0,1,1-.95,0Z"/><path class="cls-3" d="M131.12,50.66a3.34,3.34,0,0,0,.1.64.4.4,0,0,1-.43.37.52.52,0,0,1-.57-.56,1.66,1.66,0,0,1-1.31.56,1,1,0,0,1-1.09-1c0-.8.61-1,1.35-1.1l.58-.07c.23,0,.41-.08.41-.35s-.28-.4-.6-.4c-.71,0-.73.53-1.11.53a.39.39,0,0,1-.41-.37c0-.38.54-.87,1.53-.87s1.55.3,1.55,1Zm-1-.69a.82.82,0,0,1-.41.15l-.35.05c-.4.06-.62.18-.62.47s.21.4.54.4a.76.76,0,0,0,.84-.7Z"/><path class="cls-3" d="M132.2,48.78H132c-.27,0-.38-.11-.38-.32s.11-.31.38-.31h.17v-.59a.48.48,0,1,1,1,0v.59h.29c.28,0,.43.08.43.31s-.15.32-.43.32h-.29V50.7c0,.14.08.22.25.22h.13a.31.31,0,0,1,.34.32c0,.28-.24.43-.7.43-.69,0-1-.29-1-.86Z"/><path class="cls-3" d="M137.63,51.19c0,.29-.13.48-.44.48s-.43-.19-.43-.48v-.13h0a1.38,1.38,0,0,1-1.17.61,1.13,1.13,0,0,1-1.2-1.26V48.54a.43.43,0,0,1,.48-.48.43.43,0,0,1,.48.48v1.68a.58.58,0,0,0,.6.66.75.75,0,0,0,.73-.76V48.54a.43.43,0,0,1,.48-.48.43.43,0,0,1,.48.48Z"/><path class="cls-3" d="M138.44,48.51a.44.44,0,1,1,.87,0v.37h0c.11-.4.33-.82.79-.82a.49.49,0,0,1,.53.47.44.44,0,0,1-.47.48H140c-.39,0-.6.27-.6,1.06v1.12a.43.43,0,0,1-.48.48.43.43,0,0,1-.48-.48Z"/><path class="cls-3" d="M144.13,50.66a3.34,3.34,0,0,0,.1.64.41.41,0,0,1-.44.37.51.51,0,0,1-.56-.56,1.68,1.68,0,0,1-1.32.56,1,1,0,0,1-1.08-1c0-.8.6-1,1.34-1.1l.58-.07c.24,0,.42-.08.42-.35s-.28-.4-.61-.4c-.71,0-.73.53-1.11.53a.38.38,0,0,1-.4-.37c0-.38.54-.87,1.52-.87s1.56.3,1.56,1Zm-1-.69a.86.86,0,0,1-.42.15l-.34.05c-.4.06-.62.18-.62.47s.2.4.53.4a.77.77,0,0,0,.85-.7Z"/><path class="cls-3" d="M145,47.25a.44.44,0,0,1,.49-.48.43.43,0,0,1,.47.48v3.94a.44.44,0,0,1-.47.48.45.45,0,0,1-.49-.48Z"/><path class="cls-3" d="M150.07,48.06c.73,0,1.47.29,1.47.73a.4.4,0,0,1-.4.42c-.38,0-.39-.44-1-.44-.34,0-.56.09-.56.3s.22.27.52.34l.4.09c.54.13,1.19.36,1.19,1s-.75,1.15-1.48,1.15-1.59-.39-1.59-.86a.37.37,0,0,1,.39-.4c.42,0,.46.59,1.17.59.34,0,.55-.15.55-.35s-.21-.28-.55-.37l-.56-.14c-.56-.13-1-.36-1-1S149.41,48.06,150.07,48.06Z"/><path class="cls-3" d="M152.84,46.74a.5.5,0,0,1,0,1,.5.5,0,0,1,0-1Zm-.48,1.8a.43.43,0,0,1,.48-.48.43.43,0,0,1,.48.48v2.65a.43.43,0,0,1-.48.48.43.43,0,0,1-.48-.48Z"/><path class="cls-3" d="M154.14,48.54c0-.29.13-.48.43-.48s.43.19.43.48v.13h0a1.36,1.36,0,0,1,1.16-.61,1.13,1.13,0,0,1,1.21,1.26v1.87a.43.43,0,0,1-.48.48.43.43,0,0,1-.48-.48V49.51a.58.58,0,0,0-.61-.66.74.74,0,0,0-.72.76v1.58a.43.43,0,0,1-.48.48.43.43,0,0,1-.48-.48Z"/><path class="cls-3" d="M163.41,51.3A1.55,1.55,0,0,1,161.7,53c-.73,0-1.45-.33-1.45-.8a.4.4,0,0,1,.4-.4c.4,0,.48.49,1,.49s.82-.3.82-1.05V51h0a1.17,1.17,0,0,1-.92.46,1.45,1.45,0,0,1-1.54-1.6c0-1.24.7-1.83,1.51-1.83a1.09,1.09,0,0,1,1,.57h0v-.11c0-.3.15-.46.43-.46s.44.16.44.46Zm-1.68-.52c.43,0,.76-.28.76-1s-.27-1-.71-1c-.62,0-.81.45-.81,1C161,50.3,161.19,50.78,161.73,50.78Z"/><path class="cls-3" d="M164.22,48.51a.41.41,0,0,1,.43-.45.42.42,0,0,1,.44.45v.37h0c.11-.4.33-.82.79-.82a.49.49,0,0,1,.53.47A.44.44,0,0,1,166,49h-.17c-.39,0-.6.27-.6,1.06v1.12a.43.43,0,0,1-.48.48.43.43,0,0,1-.48-.48Z"/><path class="cls-3" d="M169.91,50.66a3.34,3.34,0,0,0,.1.64.41.41,0,0,1-.44.37.51.51,0,0,1-.56-.56,1.68,1.68,0,0,1-1.32.56,1,1,0,0,1-1.08-1c0-.8.6-1,1.34-1.1l.58-.07c.23,0,.42-.08.42-.35s-.28-.4-.61-.4c-.7,0-.73.53-1.11.53a.38.38,0,0,1-.4-.37c0-.38.54-.87,1.52-.87s1.56.3,1.56,1ZM169,50a.86.86,0,0,1-.42.15l-.34.05c-.4.06-.62.18-.62.47s.2.4.53.4a.77.77,0,0,0,.85-.7Z"/><path class="cls-3" d="M172,48.06c.73,0,1.46.29,1.46.73a.4.4,0,0,1-.4.42c-.37,0-.38-.44-1-.44-.33,0-.55.09-.55.3s.22.27.51.34l.4.09c.55.13,1.2.36,1.2,1s-.76,1.15-1.48,1.15-1.59-.39-1.59-.86a.37.37,0,0,1,.39-.4c.41,0,.45.59,1.16.59.34,0,.56-.15.56-.35s-.21-.28-.55-.37l-.57-.14c-.56-.13-1-.36-1-1S171.36,48.06,172,48.06Z"/><path class="cls-3" d="M177.44,50.66a3.34,3.34,0,0,0,.1.64.4.4,0,0,1-.43.37.52.52,0,0,1-.57-.56,1.65,1.65,0,0,1-1.31.56,1,1,0,0,1-1.08-1c0-.8.6-1,1.34-1.1l.58-.07c.23,0,.41-.08.41-.35s-.28-.4-.6-.4c-.71,0-.73.53-1.11.53a.39.39,0,0,1-.41-.37c0-.38.54-.87,1.53-.87s1.55.3,1.55,1Zm-1-.69a.82.82,0,0,1-.41.15l-.35.05c-.4.06-.62.18-.62.47s.21.4.54.4a.76.76,0,0,0,.84-.7Z"/></g></g></svg>