<svg xmlns="http://www.w3.org/2000/svg" xmlns:xlink="http://www.w3.org/1999/xlink" viewBox="0 0 164.2 80"><defs><style>.cls-1{clip-path:url(#clip-path);}.cls-2{fill:#fff;}.cls-3{fill:none;stroke:#71a850;stroke-width:1.02px;}.cls-4{fill:#71a850;}</style><clipPath id="clip-path"><rect width="164.2" height="80"/></clipPath></defs><title>Asset 34</title><g id="Layer_2" data-name="Layer 2"><g id="Layer_1-2" data-name="Layer 1"><rect width="164.2" height="80"/><g class="cls-1"><path class="cls-2" d="M89.22,16.74,87.3,36.2l9.88.07s.47-11.14,3-13c5.26-3.86,10.1-2.07,10.1-2.07l2.94-4.56s-5.38-.84-8.86.1a11.72,11.72,0,0,0-6,3.52l.52-3.48Z"/><path class="cls-3" d="M89.22,16.74,87.3,36.2l9.88.07s.47-11.14,3-13c5.26-3.86,10.1-2.07,10.1-2.07l2.94-4.56s-5.38-.84-8.86.1a11.72,11.72,0,0,0-6,3.52l.52-3.48Z"/><path class="cls-2" d="M131,32.53a16.12,16.12,0,0,1-9.31-.71,5.82,5.82,0,0,1-3-3.85h25.72c-.05-8.46-8-11.94-17.87-11.94s-18.11,4.13-18,9.92c0,5.27,8.14,10.58,18,10.58,7.68,0,14.86-1,17.26-5.55l-9-.85a7.53,7.53,0,0,1-3.72,2.4m-4.15-12.69c4.39,0,8,2.27,8,5.08v0H118.85v0c0-2.81,3.56-5.08,8-5.08"/><path class="cls-3" d="M131,32.53a16.12,16.12,0,0,1-9.31-.71,5.82,5.82,0,0,1-3-3.85h25.72c-.05-8.46-8-11.94-17.87-11.94s-18.11,4.13-18,9.92c0,5.27,8.14,10.58,18,10.58,7.68,0,14.86-1,17.26-5.55l-9-.85A7.53,7.53,0,0,1,131,32.53Zm-4.15-12.69c4.39,0,8,2.27,8,5.08v0H118.85v0C118.85,22.11,122.41,19.84,126.82,19.84Z"/><path class="cls-2" d="M78.83,16.84c-.12,0-.9,8.48-1,9.07a8.34,8.34,0,0,1-1,3.3,8.22,8.22,0,0,1-2.46,2.12c-2.47,1.55-5.83,1.65-8.63,1.13-3.08-.58-2.22-4-2-6.19.27-2.55.58-5.09.89-7.62.07-.6.15-1.19.22-1.8l-9.95-.07-.62,6.06a13.27,13.27,0,0,0-4-4.22,16.67,16.67,0,0,0-9-2.45c-7.72,0-9.59,1.46-12.42,2.78l.05-2.11-9.36-.06L16.14,43.54l10.3,0,.79-10.31s4.16,3,12.61,3.26c10.21.28,13.83-4.71,13.83-4.71s.47,4.6,11.24,4.71c9.22.09,12.37-3,12.37-3l-.13,2.58,9.25.15,2.3-19.56Zm-42,15.82c-4.56,0-8.26-2.88-8.26-6.44s3.7-6.43,8.26-6.43,8.25,2.87,8.25,6.43-3.69,6.44-8.25,6.44"/><path class="cls-3" d="M78.83,16.84c-.12,0-.9,8.48-1,9.07a8.34,8.34,0,0,1-1,3.3,8.22,8.22,0,0,1-2.46,2.12c-2.47,1.55-5.83,1.65-8.63,1.13-3.08-.58-2.22-4-2-6.19.27-2.55.58-5.09.89-7.62.07-.6.15-1.19.22-1.8l-9.95-.07-.62,6.06a13.27,13.27,0,0,0-4-4.22,16.67,16.67,0,0,0-9-2.45c-7.72,0-9.59,1.46-12.42,2.78l.05-2.11-9.36-.06L16.14,43.54l10.3,0,.79-10.31s4.16,3,12.61,3.26c10.21.28,13.83-4.71,13.83-4.71s.47,4.6,11.24,4.71c9.22.09,12.37-3,12.37-3l-.13,2.58,9.25.15,2.3-19.56Zm-42,15.82c-4.56,0-8.26-2.88-8.26-6.44s3.7-6.43,8.26-6.43,8.25,2.87,8.25,6.43S41.39,32.66,36.83,32.66Z"/><polygon class="cls-4" points="142.74 36.51 142.74 35.36 142.31 35.36 142.31 35.2 143.35 35.2 143.35 35.36 142.91 35.36 142.91 36.51 142.74 36.51"/><path class="cls-4" d="M143.52,36.51V35.2h.26l.31.94a1.3,1.3,0,0,1,.06.19s0-.12.07-.22l.32-.91h.23v1.31h-.17V35.42l-.38,1.09h-.15l-.39-1.11v1.11Z"/><rect class="cls-4" x="16.89" y="51.36" width="128.13" height="6.94"/><polygon class="cls-2" points="20.23 53.36 22.55 53.36 22.55 53.6 20.55 53.6 20.55 54.7 22.41 54.7 22.41 54.94 20.55 54.94 20.55 56.13 22.57 56.13 22.57 56.38 20.23 56.38 20.23 53.36"/><path class="cls-2" d="M27.63,54.86c0-.51.42-.72,1-.72s.89.11.89.69V56c0,.1.06.16.18.16a.15.15,0,0,0,.09,0v.23l-.2,0c-.3,0-.34-.16-.34-.39h0a1,1,0,0,1-.89.45c-.44,0-.81-.2-.81-.63,0-.62.66-.64,1.31-.71.24,0,.37-.05.37-.29s-.28-.45-.63-.45-.64.15-.65.5Zm1.57.32h0c0,.07-.16.09-.24.1-.51.08-1.13.08-1.13.51,0,.26.26.42.54.42.45,0,.85-.25.84-.68Z"/><path class="cls-2" d="M35.15,54.2h.5v.22h-.5v1.47c0,.18,0,.28.25.29h.25v.23h-.27c-.39,0-.53-.11-.52-.49V54.42h-.42V54.2h.42v-.66h.29Z"/><polygon class="cls-2" points="46.49 53.36 46.83 53.36 47.59 56 47.6 56 48.42 53.36 48.82 53.36 49.64 56 49.65 56 50.41 53.36 50.74 53.36 49.81 56.38 49.47 56.38 48.62 53.67 48.61 53.67 47.77 56.38 47.41 56.38 46.49 53.36"/><path class="cls-2" d="M55.69,55.36a.8.8,0,0,0,.8.85.71.71,0,0,0,.76-.55h.3a1,1,0,0,1-1.06.78,1,1,0,0,1-1.1-1.15,1.09,1.09,0,1,1,2.17.07Zm1.57-.23a.76.76,0,0,0-.77-.77.82.82,0,0,0-.8.77Z"/><rect class="cls-2" x="62.7" y="53.36" width="0.3" height="3.01"/><rect class="cls-2" x="68.32" y="53.36" width="0.29" height="3.01"/><polygon class="cls-2" points="85.94 53.36 86.26 53.36 86.26 56.13 88.14 56.13 88.14 56.38 85.94 56.38 85.94 53.36"/><path class="cls-2" d="M93.1,53.36h.3v.43h-.3Zm0,.84h.3v2.18h-.3Z"/><polygon class="cls-2" points="98.39 54.2 98.72 54.2 99.48 56.11 99.49 56.11 100.24 54.2 100.55 54.2 99.64 56.38 99.32 56.38 98.39 54.2"/><path class="cls-2" d="M105.66,55.36a.79.79,0,0,0,.8.85.7.7,0,0,0,.75-.55h.3a1,1,0,0,1-1.05.78,1,1,0,0,1-1.1-1.15,1.09,1.09,0,1,1,2.16.07Zm1.57-.23a.77.77,0,0,0-.77-.77.8.8,0,0,0-.8.77Z"/><polygon class="cls-2" points="118.33 53.36 118.68 53.36 119.44 56 119.44 56 120.26 53.36 120.66 53.36 121.49 56 121.5 56 122.26 53.36 122.58 53.36 121.65 56.38 121.32 56.38 120.47 53.67 120.46 53.67 119.61 56.38 119.26 56.38 118.33 53.36"/><path class="cls-2" d="M127.54,55.36a.78.78,0,0,0,.79.85.73.73,0,0,0,.77-.55h.29a1,1,0,0,1-1.06.78,1,1,0,0,1-1.09-1.15,1.09,1.09,0,1,1,2.16.07Zm1.57-.23a.77.77,0,0,0-.78-.77.81.81,0,0,0-.79.77Z"/><rect class="cls-2" x="134.56" y="53.36" width="0.29" height="3.01"/><rect class="cls-2" x="140.17" y="53.36" width="0.29" height="3.01"/><path class="cls-4" d="M108,38.51h1.19v2.07h0a3.24,3.24,0,0,1,2.28-.67c1.91,0,2.49.58,2.49,1.43V43.9h-1.19V41.26c0-.47-.56-.78-1.46-.78-1.45,0-2.15.52-2.15,1.22v2.2H108Z"/><path class="cls-4" d="M122,42.67c-.33.86-1.48,1.33-3.1,1.33-2.31,0-3.4-.86-3.48-2.06s1.44-2,3.41-2c2.56,0,3.35,1.29,3.27,2.24h-5.42c0,.68.68,1.29,2.26,1.29,1,0,1.67-.26,1.88-.77Zm-1.16-1.09c0-.61-.91-1.1-2.08-1.1s-2,.5-2.08,1.1Z"/><path class="cls-4" d="M129.71,43.89a2.65,2.65,0,0,1-.85.11c-.62,0-1-.18-1-.6a4.84,4.84,0,0,1-2.55.6c-1.32,0-2.4-.32-2.4-1.1s1.23-1.07,2.46-1.2,2.43-.09,2.43-.57-.85-.65-1.61-.65c-1,0-1.75.16-1.81.74h-1.18c.07-1,1.45-1.31,3.06-1.31,1.3,0,2.72.16,2.72,1.07v2c0,.31,0,.45.38.45a1.78,1.78,0,0,0,.36,0Zm-1.93-2a10.43,10.43,0,0,1-2.16.26c-.78.08-1.45.23-1.45.71s.67.58,1.39.58c1.58,0,2.22-.54,2.22-.89Z"/><rect class="cls-4" x="130.89" y="38.51" width="1.19" height="5.4"/><path class="cls-4" d="M135.58,40H137v.57h-1.44V43c0,.3.15.35.89.35H137v.56h-.91c-1.23,0-1.72-.12-1.72-.84V40.57h-1.24V40h1.24V38.82h1.19Z"/><path class="cls-4" d="M138.34,38.51h1.19v2.07h0a3.24,3.24,0,0,1,2.28-.67c1.91,0,2.49.58,2.49,1.43V43.9h-1.19V41.26c0-.47-.56-.78-1.47-.78-1.44,0-2.14.52-2.14,1.22v2.2h-1.19Z"/><rect class="cls-4" x="16.89" y="51.36" width="128.13" height="6.94"/><polygon class="cls-2" points="20.23 53.36 22.55 53.36 22.55 53.6 20.55 53.6 20.55 54.7 22.41 54.7 22.41 54.94 20.55 54.94 20.55 56.13 22.57 56.13 22.57 56.38 20.23 56.38 20.23 53.36"/><path class="cls-2" d="M27.63,54.86c0-.51.42-.72,1-.72s.89.11.89.69V56c0,.1.06.16.18.16a.15.15,0,0,0,.09,0v.23l-.2,0c-.3,0-.34-.16-.34-.39h0a1,1,0,0,1-.89.45c-.44,0-.81-.2-.81-.63,0-.62.66-.64,1.31-.71.24,0,.37-.05.37-.29s-.28-.45-.63-.45-.64.15-.65.5Zm1.57.32h0c0,.07-.16.09-.24.1-.51.08-1.13.08-1.13.51,0,.26.26.42.54.42.45,0,.85-.25.84-.68Z"/><path class="cls-2" d="M35.15,54.2h.5v.22h-.5v1.47c0,.18,0,.28.25.29h.25v.23h-.27c-.39,0-.53-.11-.52-.49V54.42h-.42V54.2h.42v-.66h.29Z"/><polygon class="cls-2" points="46.49 53.36 46.83 53.36 47.59 56 47.6 56 48.42 53.36 48.82 53.36 49.64 56 49.65 56 50.41 53.36 50.74 53.36 49.81 56.38 49.47 56.38 48.62 53.67 48.61 53.67 47.77 56.38 47.41 56.38 46.49 53.36"/><path class="cls-2" d="M55.69,55.36a.8.8,0,0,0,.8.85.71.71,0,0,0,.76-.55h.3a1,1,0,0,1-1.06.78,1,1,0,0,1-1.1-1.15,1.09,1.09,0,1,1,2.17.07Zm1.57-.23a.76.76,0,0,0-.77-.77.82.82,0,0,0-.8.77Z"/><rect class="cls-2" x="62.7" y="53.36" width="0.3" height="3.01"/><rect class="cls-2" x="68.32" y="53.36" width="0.29" height="3.01"/><polygon class="cls-2" points="85.94 53.36 86.26 53.36 86.26 56.13 88.14 56.13 88.14 56.38 85.94 56.38 85.94 53.36"/><path class="cls-2" d="M93.1,53.36h.3v.43h-.3Zm0,.84h.3v2.18h-.3Z"/><polygon class="cls-2" points="98.39 54.2 98.72 54.2 99.48 56.11 99.49 56.11 100.24 54.2 100.55 54.2 99.64 56.38 99.32 56.38 98.39 54.2"/><path class="cls-2" d="M105.66,55.36a.79.79,0,0,0,.8.85.7.7,0,0,0,.75-.55h.3a1,1,0,0,1-1.05.78,1,1,0,0,1-1.1-1.15,1.09,1.09,0,1,1,2.16.07Zm1.57-.23a.77.77,0,0,0-.77-.77.8.8,0,0,0-.8.77Z"/><polygon class="cls-2" points="118.33 53.36 118.68 53.36 119.44 56 119.44 56 120.26 53.36 120.66 53.36 121.49 56 121.5 56 122.26 53.36 122.58 53.36 121.65 56.38 121.32 56.38 120.47 53.67 120.46 53.67 119.61 56.38 119.26 56.38 118.33 53.36"/><path class="cls-2" d="M127.54,55.36a.78.78,0,0,0,.79.85.73.73,0,0,0,.77-.55h.29a1,1,0,0,1-1.06.78,1,1,0,0,1-1.09-1.15,1.09,1.09,0,1,1,2.16.07Zm1.57-.23a.77.77,0,0,0-.78-.77.81.81,0,0,0-.79.77Z"/><rect class="cls-2" x="134.56" y="53.36" width="0.29" height="3.01"/><rect class="cls-2" x="140.17" y="53.36" width="0.29" height="3.01"/><polygon class="cls-4" points="126.44 63.38 127.5 66.08 128.56 63.38 128.99 63.38 128.99 66.46 128.7 66.46 128.7 63.8 128.69 63.8 127.64 66.46 127.36 66.46 126.3 63.8 126.3 63.8 126.3 66.46 126 66.46 126 63.38 126.44 63.38"/><path class="cls-4" d="M132.46,63.38v.25h-1.83v1.11h1.71V65h-1.71v1.21h1.85v.25h-2.14V63.38ZM131,63.13l.46-.6h.33l-.56.6Z"/><polygon class="cls-4" points="133.67 63.38 134.54 64.67 135.44 63.38 135.77 63.38 134.72 64.88 135.83 66.46 135.48 66.46 134.54 65.1 133.59 66.46 133.27 66.46 134.37 64.87 133.33 63.38 133.67 63.38"/><rect class="cls-4" x="136.85" y="63.38" width="0.29" height="3.08"/><path class="cls-4" d="M140.64,64a1,1,0,0,0-.22-.23.82.82,0,0,0-.28-.14,1.13,1.13,0,0,0-.32,0,1.17,1.17,0,0,0-.52.11,1,1,0,0,0-.36.31,1.15,1.15,0,0,0-.21.43,2.08,2.08,0,0,0-.07.5,2,2,0,0,0,.07.49,1.12,1.12,0,0,0,.21.44.88.88,0,0,0,.36.3,1.05,1.05,0,0,0,.52.12,1,1,0,0,0,.39-.07,1.29,1.29,0,0,0,.3-.22,1.1,1.1,0,0,0,.2-.31,1.59,1.59,0,0,0,.1-.39h.29a1.73,1.73,0,0,1-.13.52,1.34,1.34,0,0,1-.26.38,1.08,1.08,0,0,1-.39.25,1.35,1.35,0,0,1-.5.09,1.54,1.54,0,0,1-.63-.13,1.37,1.37,0,0,1-.46-.36,1.47,1.47,0,0,1-.27-.51,1.93,1.93,0,0,1-.09-.6,2,2,0,0,1,.09-.61,1.56,1.56,0,0,1,.27-.51,1.34,1.34,0,0,1,.46-.35,1.39,1.39,0,0,1,.63-.13,1.54,1.54,0,0,1,.43.06,1.25,1.25,0,0,1,.38.2,1.23,1.23,0,0,1,.29.31,1.1,1.1,0,0,1,.14.42h-.29a1.13,1.13,0,0,0-.13-.32"/><path class="cls-4" d="M142.22,64.31a1.37,1.37,0,0,1,.26-.51,1.25,1.25,0,0,1,.46-.35,1.39,1.39,0,0,1,.63-.13,1.47,1.47,0,0,1,.64.13,1.4,1.4,0,0,1,.45.35,1.56,1.56,0,0,1,.27.51,2,2,0,0,1,.09.61,1.93,1.93,0,0,1-.09.6,1.47,1.47,0,0,1-.27.51,1.43,1.43,0,0,1-.45.36,1.62,1.62,0,0,1-.64.13,1.54,1.54,0,0,1-.63-.13,1.27,1.27,0,0,1-.46-.36,1.3,1.3,0,0,1-.26-.51,1.68,1.68,0,0,1-.1-.6,1.77,1.77,0,0,1,.1-.61m.26,1.1a1.49,1.49,0,0,0,.21.44.92.92,0,0,0,.35.3,1.12,1.12,0,0,0,.53.12,1,1,0,0,0,.52-.12.88.88,0,0,0,.36-.3,1.28,1.28,0,0,0,.21-.44,2,2,0,0,0,.06-.49,2.07,2.07,0,0,0-.06-.5,1.32,1.32,0,0,0-.21-.43,1,1,0,0,0-.36-.31,1.14,1.14,0,0,0-.52-.11,1.25,1.25,0,0,0-.53.11,1,1,0,0,0-.35.31,1.56,1.56,0,0,0-.21.43,2.08,2.08,0,0,0-.07.5,2,2,0,0,0,.07.49"/></g></g></g></svg>