<svg xmlns="http://www.w3.org/2000/svg" viewBox="0 0 187 34.87"><defs><style>.cls-1{fill:#ff8300;}.cls-2{fill:#003b71;}</style></defs><title>Asset 19</title><g id="Layer_2" data-name="Layer 2"><g id="Layer_1-2" data-name="Layer 1"><path class="cls-1" d="M183.58,15.24c-2.52-2.17-6.87-4.62-14.35-7-1-.31-4.91-1.31-8-1.88-1.12-.2-2.43-.44-3.91-.69a321.8,321.8,0,0,0-36.7-4.45C92.35-.94,54.81-1.07,19.54,7.61a53.8,53.8,0,0,0-11,3.21C1.56,13.57.1,16.48,0,18.75a1.11,1.11,0,0,0,0,.19c-.09,2.19.45,2.71.45,2.71a2.18,2.18,0,0,1-.06-.38.11.11,0,0,0,0-.05A6.44,6.44,0,0,1,.51,19C1,17.58,2.33,15.65,6,13.82a31.74,31.74,0,0,1,3.8-1.43c25.52-7.93,54.79-9.52,80.65-10,1.09,0,2.2,0,3.32,0a492.85,492.85,0,0,1,64.26,5.5c1.89.32,3.6.63,5.1.93,2.72.54,5.12,1.13,7.24,1.75a46.78,46.78,0,0,1,11.08,4.8c6.3,4.25,4.77,8,5.26,6.85.59-1.35.5-3.87-3.15-6.91Z"/><path class="cls-2" d="M175.71,28.33a1.43,1.43,0,0,0-.43-1,1.46,1.46,0,0,0-1.06-.42,1.4,1.4,0,0,0-1.06.43,1.45,1.45,0,0,0-.44,1.07,1.39,1.39,0,0,0,.45,1,1.46,1.46,0,0,0,1.05.42,1.43,1.43,0,0,0,1.06-.43,1.4,1.4,0,0,0,.43-1.06Zm-.27,0a1.27,1.27,0,0,1-.34.9,1.16,1.16,0,0,1-.88.37,1.13,1.13,0,0,1-.89-.38,1.31,1.31,0,0,1-.33-.91,1.2,1.2,0,0,1,.35-.88,1.22,1.22,0,0,1,.87-.35,1.16,1.16,0,0,1,.88.37,1.27,1.27,0,0,1,.34.88Zm-.48.88-.49-.77c.3-.05.45-.21.45-.47s-.2-.5-.61-.5h-.67v1.74h.27v-.75h.28l.48.75Zm-.77-1h-.28v-.55h.36c.26,0,.38.09.38.27a.24.24,0,0,1-.14.24.89.89,0,0,1-.32,0Zm-1.31-7.67a10.48,10.48,0,0,0,.44-2.5,2.76,2.76,0,0,0-.43-1.55,2.21,2.21,0,0,0-1.11-.92,6.6,6.6,0,0,0-2.07-.25h-5.65a2.76,2.76,0,0,0-1.44.3,2.69,2.69,0,0,0-.93,1.13c0-.6-.18-1-.47-1.16a4.18,4.18,0,0,0-1.88-.27H152a2.66,2.66,0,0,0-1.41.31,2.75,2.75,0,0,0-.91,1.12l.2-1.43h-7.11a3.5,3.5,0,0,1,.13,1.32,17.06,17.06,0,0,1-.51,2.3l-1.93,7.19a17.6,17.6,0,0,1-.73,2.31,5.23,5.23,0,0,1-.83,1.32h8.25a3.38,3.38,0,0,1-.14-1.33,19.26,19.26,0,0,1,.51-2.3l1.73-6.45a2.75,2.75,0,0,1,.63-1.28,1.72,1.72,0,0,1,1.18-.34h2.16c.51,0,.82.13.95.39a2.29,2.29,0,0,1-.08,1.42l-1.68,6.26a18.25,18.25,0,0,1-.72,2.3,5.11,5.11,0,0,1-.85,1.33H159a3.69,3.69,0,0,1-.12-1.31,19.88,19.88,0,0,1,.53-2.32l1.71-6.39a2.82,2.82,0,0,1,.66-1.38,2.3,2.3,0,0,1,1.38-.3H165c.61,0,1,.12,1.12.37a2.25,2.25,0,0,1-.09,1.47l-1.67,6.23a19.8,19.8,0,0,1-.72,2.31,5.58,5.58,0,0,1-.84,1.32h8.15a3,3,0,0,1-.15-1.08c0-.24.24-1.09.62-2.55l1.5-5.59Zm-35.67,5.59,2.9-10.81h-7.65a3.54,3.54,0,0,1,.13,1.32,18.4,18.4,0,0,1-.52,2.32l-1.68,6.31a2.76,2.76,0,0,1-.73,1.42,2.47,2.47,0,0,1-1.48.34h-1.7c-1.1.06-1.43-.58-1-1.91l2.63-9.8h-7.65a3.53,3.53,0,0,1,.12,1.32,17.83,17.83,0,0,1-.51,2.32l-1.56,5.82a11.49,11.49,0,0,0-.49,2.6,2.17,2.17,0,0,0,.48,1.38,2.25,2.25,0,0,0,1.16.77,7.76,7.76,0,0,0,2.13.23h5.45a5,5,0,0,0,1.84-.26,3.23,3.23,0,0,0,1.17-1.08l-.08,1.34h6.68a3.52,3.52,0,0,1-.13-1.32,19.73,19.73,0,0,1,.51-2.31ZM118.28,13.92l1-3.65h-7.07l-1,3.65Zm-8,1.43a3.54,3.54,0,0,1,.13,1.32,18.4,18.4,0,0,1-.52,2.32l-1.92,7.17a18,18,0,0,1-.72,2.31,5.86,5.86,0,0,1-.83,1.32h8.23a3.52,3.52,0,0,1-.13-1.32,19.73,19.73,0,0,1,.51-2.31l2.9-10.81Zm-1.72,0h-6l.88-3.27-7.15.3-.8,3H93.3l-.73,2.74h2.19L93.17,24a15.29,15.29,0,0,0-.62,3.06,2.49,2.49,0,0,0,.51,1.56,2.53,2.53,0,0,0,1.4.92,14,14,0,0,0,3.05.23H105l1.48-3.5a5.7,5.7,0,0,1-3.06.77H101.5c-.87,0-1.41-.12-1.61-.38a.85.85,0,0,1-.14-.6,7,7,0,0,1,.27-1.29l1.8-6.7h6l.73-2.74ZM91,20.13l1.28-4.78H88.74a6.19,6.19,0,0,0-2.47.42,3,3,0,0,0-1,.69,6.57,6.57,0,0,0-.88,1.27l.45-2.38h-7A3.56,3.56,0,0,1,78,16.68,17.44,17.44,0,0,1,77.47,19l-1.93,7.18a17.71,17.71,0,0,1-.72,2.3A5.86,5.86,0,0,1,74,29.79h8.23a3.51,3.51,0,0,1-.12-1.32,16.16,16.16,0,0,1,.51-2.3l1.26-4.71a2.77,2.77,0,0,1,1-1.6,3.11,3.11,0,0,1,1.91-.56h1.46a7.12,7.12,0,0,1,1.78.17,2,2,0,0,1,1,.66Zm-16.47-.21a6.85,6.85,0,0,0,.3-2.15,2.5,2.5,0,0,0-.59-1.42,2.37,2.37,0,0,0-1.28-.8,11.79,11.79,0,0,0-2.57-.2H61.09a11.85,11.85,0,0,0-2,.12,4.49,4.49,0,0,0-1.32.53,5.26,5.26,0,0,0-2.63,3.36L53.47,25.5a3.65,3.65,0,0,0,.33,3.29,2.4,2.4,0,0,0,1.27.82,14.14,14.14,0,0,0,2.79.18H67c3.23.16,5.22-1.22,6-4.11l1.55-5.76Zm-7.06,0-1.44,5.38a2.69,2.69,0,0,1-.73,1.39,2.14,2.14,0,0,1-1.4.39h-2.1c-.64,0-1-.12-1.22-.37a1.55,1.55,0,0,1,0-1.32L62.1,19.7a2,2,0,0,1,2.13-1.61H66a1.84,1.84,0,0,1,1.41.39c.22.27.23.74,0,1.42Zm-14.56-.35a6.08,6.08,0,0,0,.18-1.4A3.19,3.19,0,0,0,53,17a2.27,2.27,0,0,0-1.13-1.29,6,6,0,0,0-2.34-.35h-5a5.81,5.81,0,0,0-2,.26,3.54,3.54,0,0,0-1.35,1.06l0-1.32H34.41a3.54,3.54,0,0,1,.13,1.32A18.84,18.84,0,0,1,34,19l-4.26,15.9h7.64a3.54,3.54,0,0,1-.12-1.32,16.2,16.2,0,0,1,.51-2.31l.75-2.79c.2.89.88,1.34,2,1.34h5.79a4.68,4.68,0,0,0,3.07-1.06,5.56,5.56,0,0,0,1.81-2.92l1.67-6.26ZM46,18.9a6.27,6.27,0,0,1-.2.9l-1.44,5.36a3.19,3.19,0,0,1-.73,1.51,2,2,0,0,1-1.36.39H40.66a1.74,1.74,0,0,1-1.26-.34,1.34,1.34,0,0,1-.07-1.2l1.55-5.8a2.56,2.56,0,0,1,.69-1.25,1.93,1.93,0,0,1,1.24-.38h1.94a2.68,2.68,0,0,1,.75.07.74.74,0,0,1,.37.31.91.91,0,0,1,.13.43ZM31.56,19l.29-3.64H20.78a13.35,13.35,0,0,0-3.19.28,4.94,4.94,0,0,0-2,1,5.16,5.16,0,0,0-1.74,2.74l-.61,2.29a3.57,3.57,0,0,0,.1,2.74,1.82,1.82,0,0,0,.91.83,4.93,4.93,0,0,0,1.72.22h6.26a1.57,1.57,0,0,1,.87.15c.12.1.14.31.05.62a.9.9,0,0,1-.43.63,2.31,2.31,0,0,1-1.07.17H15.45a11,11,0,0,1-2.1-.14,7,7,0,0,1-1.71-.83l-.35,3.7H23.65a11.09,11.09,0,0,0,2.29-.18,5,5,0,0,0,1.64-.69A5.48,5.48,0,0,0,30,25.49l.55-2.06q1.22-4.23-3.21-4H21.82a2,2,0,0,1-.93-.13c-.14-.09-.17-.28-.1-.55a.82.82,0,0,1,.44-.58,5,5,0,0,1,1-.06h6a8.54,8.54,0,0,1,2.1.16,3,3,0,0,1,1.21.74Z"/></g></g></svg>