<svg xmlns="http://www.w3.org/2000/svg" viewBox="0 0 103.5 123.55"><defs><style>.cls-1{fill:#05714b;}.cls-2{fill:#1c1c1b;}</style></defs><title>Asset 31</title><g id="Layer_2" data-name="Layer 2"><g id="Layer_1-2" data-name="Layer 1"><line class="cls-1" x1="80.3" y1="99.66" x2="80.3" y2="102.91"/><polyline class="cls-1" points="82.83 99.21 83.93 102.06 83.93 102.06"/><path class="cls-1" d="M57,22.35h0a33,33,0,0,0-5.22-.44,31.92,31.92,0,0,0-5.19.44c-.28,0-.38-.2-.17-.34l5.36-4.09s5.2,3.95,5.36,4.09S57.21,22.4,57,22.35ZM48,48h0a.57.57,0,0,0-.34.35c1.09.84,1.82,2.73,4.09,2.73s3-1.89,4.11-2.73a.62.62,0,0,0-.34-.35,17.56,17.56,0,0,1-3.77.35A17.13,17.13,0,0,1,48,48Zm3.75-3.19h0c-.63,0-.76-.23-1.19-.23a2.22,2.22,0,0,0-1.4.63,1.14,1.14,0,0,0,.19.4c.93.15,1.34.65,2.4.65s1.47-.5,2.39-.65a.73.73,0,0,0,.2-.4,2.15,2.15,0,0,0-1.39-.63C52.52,44.53,52.37,44.76,51.74,44.76Zm51.69,9.77h0c-.06,1.24-.18,2.48-.32,3.68-5.86,1-8-4.25-14-4A34,34,0,0,1,90,58.13c5,0,6.95,4.62,12.46,3.92-.29,1.42-.64,2.82-1,4.19-4.35.44-5.89-3.9-10.92-3.78,0,.72.06,1.44.06,2.17,0,.42,0,.81,0,1.2,4.29,0,5.68,3.92,9.77,3.75a42.1,42.1,0,0,1-1.69,4.07c-2.95-.15-3.95-3.93-8.43-3.63-.15,1-.32,1.93-.53,2.87,3.9-.27,4.74,3.31,7.52,3.6-.71,1.28-1.46,2.55-2.29,3.76-1.64-.87-3.07-3.54-6.2-3.71.31-1,.59-2,.83-3A13,13,0,0,1,80.92,70c.87-4.91-6.75-9.89-6.75-13.49,0-3.89,2-6,2-11.33a16.4,16.4,0,0,0-4.78-11,9.44,9.44,0,0,0-1.78-1.44c2.64,3.26,4.66,7.12,4.66,11.58,0,5-2.3,7.57-2.3,12.13S78.65,65,78.65,69.69c0,1.87-.6,3.69-2.56,7.24,3,3,6.92,4.65,9.46,4.65a1.51,1.51,0,0,0,1.56-.9c.25-.55.48-1.13.71-1.68,2.73.1,4,2.58,5.46,3.55-.83,1.1-1.7,2.17-2.59,3.21-1-1.12-2.38-3-4.37-3.52a20.45,20.45,0,0,1-1.13,2.05c1.73.45,2.89,2.19,3.79,3.31a34.83,34.83,0,0,1-3,2.9,9.72,9.72,0,0,0-2.85-3c-.4.57-.84,1.15-1.29,1.7A9,9,0,0,1,84.18,92c-1.21,1-2.48,1.89-3.79,2.78-.65-5.26-7.82-8.86-5.89-14.94a7.78,7.78,0,0,0-1.39,4c0,4.41,4.69,7.9,5.07,12.3-1,.58-2,1.13-3,1.63-.17-4.8-5.14-10.07-5.14-14,0-4.42,5.8-8.86,5.8-14.07s-6.69-8.8-6.69-13.38S72,49.09,72,43.25a15.7,15.7,0,0,0-5.2-11.43A8.51,8.51,0,0,0,65,30.6c3,3.56,4.69,6.8,4.69,11.71,0,5.51-3.25,8.57-3.25,14S73,64.67,73,69.69,66.93,79,66.93,84.15c0,4.69,5.38,9.4,5.45,15-1.16.5-2.36,1-3.6,1.4.7-5.64-5.36-11.46-5.36-16.06,0-5,6.33-9.34,6.33-14.79s-6.42-7.92-6.42-13.5,3.94-8.65,3.94-14.78a14.92,14.92,0,0,0-5.83-11.77c-.08-.06-.14-.13-.23-.19-.32-.22-.59.06-.35.35a15.83,15.83,0,0,1,3.75,10.72c0,5.62-4.53,10.19-4.53,15.65,0,6.42,6.09,8.25,6.09,13.52s-6.53,9.52-6.53,15.11c0,5.19,6.18,11,5.11,17-1.22.31-2.5.59-3.76.82,1.17-7.46-4.89-12.84-4.89-17.7,0-5.3,6.75-10,6.75-15.2,0-4.86-4.85-6.45-5.48-11.44A1.18,1.18,0,0,0,56,57.18a16,16,0,0,1-4.24.84,16.08,16.08,0,0,1-4.23-.84,1.21,1.21,0,0,0-1.4,1.07c-.63,5-5.48,6.58-5.48,11.44,0,5.19,6.77,9.9,6.77,15.2,0,4.86-6.07,10.24-4.92,17.7-1.26-.23-2.52-.51-3.75-.82-1.07-6,5.11-11.78,5.11-17,0-5.59-6.53-9.81-6.53-15.11s6.1-7.1,6.1-13.52c0-5.46-4.54-10-4.54-15.65A15.79,15.79,0,0,1,42.63,29.8c.22-.29,0-.57-.36-.35-.08.06-.14.13-.23.19A14.93,14.93,0,0,0,36.2,41.41c0,6.13,4,9.22,4,14.78s-6.42,8.09-6.42,13.5,6.31,9.76,6.31,14.79c0,4.6-6,10.42-5.36,16.06-1.22-.43-2.41-.9-3.61-1.4.09-5.59,5.47-10.3,5.47-15,0-5.17-6.09-9.41-6.09-14.46S37,61.66,37,56.27s-3.25-8.45-3.25-14c0-4.91,1.72-8.15,4.71-11.71a8.64,8.64,0,0,0-1.78,1.22,15.7,15.7,0,0,0-5.2,11.43c0,5.84,2.84,8.48,2.84,13.06s-6.66,8.19-6.66,13.38,5.79,9.65,5.79,14.07c0,4-5,9.24-5.16,14-1-.5-2-1-3-1.63.36-4.4,5.07-7.89,5.07-12.3a7.78,7.78,0,0,0-1.39-4c1.95,6.08-5.23,9.68-5.89,14.94C21.8,93.89,20.53,93,19.3,92a9.09,9.09,0,0,1,2.42-2.82c-.47-.55-.91-1.13-1.33-1.7a10.08,10.08,0,0,0-2.85,3c-1-.91-2.07-1.87-3-2.9.9-1.12,2.09-2.86,3.79-3.31-.39-.67-.77-1.34-1.12-2.05-2,.55-3.34,2.4-4.37,3.52-.9-1-1.78-2.11-2.6-3.21,1.52-1,2.76-3.45,5.49-3.55.23.55.45,1.13.72,1.68a1.45,1.45,0,0,0,1.56.9c2.51,0,6.42-1.64,9.43-4.65-1.95-3.55-2.54-5.37-2.54-7.24,0-4.69,6.69-8.66,6.69-13.23s-2.31-7.18-2.31-12.13c0-4.46,2-8.32,4.64-11.58a9.77,9.77,0,0,0-1.78,1.44,16.55,16.55,0,0,0-4.74,11c0,5.29,2,7.44,2,11.33,0,3.6-7.62,8.58-6.77,13.49a12.93,12.93,0,0,1-8.61,3.52c.24,1,.54,2,.84,3-3.11.17-4.54,2.84-6.2,3.71C7.76,79,7,77.77,6.29,76.49c2.78-.29,3.62-3.87,7.51-3.6-.21-.94-.37-1.9-.52-2.87-4.46-.3-5.48,3.48-8.42,3.63-.62-1.34-1.19-2.69-1.7-4.07,4.09.17,5.48-3.78,9.78-3.75,0-.39,0-.78,0-1.2,0-.73,0-1.45.06-2.17-5-.12-6.57,4.22-10.93,3.78-.38-1.37-.74-2.77-1-4.19,5.5.7,7.51-3.94,12.46-3.92a36.31,36.31,0,0,1,.88-3.91c-6-.26-8.1,5-14,4C.23,57,.12,55.77.06,54.53c6.79.78,9.36-4.82,15.56-4.13a42.23,42.23,0,0,1,2-4.3C9.87,44.74,7.23,51.24,0,50.24a51.77,51.77,0,0,1,103.5,0c-7.25,1-9.89-5.5-17.67-4.14a35.18,35.18,0,0,1,2,4.3C94.06,49.71,96.62,55.31,103.43,54.53ZM29.49,32.87h0a13.46,13.46,0,0,0-12.35,1.32,13.6,13.6,0,0,0-5.45-8.89.47.47,0,0,0-.76.45C11.53,33.5,7,40.21,1.43,46.1,7.17,47.82,12.06,40.45,19.51,43A38.57,38.57,0,0,1,29.49,32.87Zm22.25-4.69h0c-4.81,0-8.82,2.7-9.88,6.22-.08.26,0,.45.35.3a7.11,7.11,0,0,1,2.9-.57,6,6,0,0,1,4.71,2,8.42,8.42,0,0,1,0,4.88c-.79-.17-1.08-.81-1.88-.81s-1.39.56-2.72.56-1.49-.62-2.36-.62c-1,0-1.24,1.06-1.24,2.25,0,5.34,4.92,12.72,10.15,12.72s10.15-7.38,10.15-12.72c0-1.19-.24-2.23-1.31-2.37a3.29,3.29,0,0,1-2.27.74c-1.35,0-1.72-.56-2.5-.56-.94,0-.85,2-2,2.13a9.5,9.5,0,0,1-.17-6.2,6,6,0,0,1,4.71-2,7.33,7.33,0,0,1,2.93.57c.31.15.4,0,.33-.3C60.58,30.88,56.55,28.18,51.74,28.18Zm7.65,7.67h0A4.45,4.45,0,0,0,56,37.16a1.43,1.43,0,0,0,0,.89c2.1-.73,3.94-.74,4.83.25A1.56,1.56,0,0,0,61.51,37C61.51,36.34,60.82,35.85,59.39,35.85ZM42.59,38.3h0c1-1,3.13-1,5.34-.16.09-1.08-1.87-2.29-3.84-2.29-1.41,0-2.13.49-2.13,1.18A1.64,1.64,0,0,0,42.59,38.3ZM75.7,20.19h0a17.21,17.21,0,0,0-9.76,3.74,38.36,38.36,0,0,1,4.4-8.72,18.68,18.68,0,0,0-11.82,5.3l-2.3-6.06,5.12-4.53-6.85-.46L51.74,3.09,49,9.46l-6.86.46,5.14,4.53L45,20.51a18.7,18.7,0,0,0-11.81-5.3,39.16,39.16,0,0,1,4.39,8.72,17.21,17.21,0,0,0-9.77-3.74,44.91,44.91,0,0,1,5.79,9.39.61.61,0,0,0,.92.3,39,39,0,0,1,34.49,0,.63.63,0,0,0,.94-.3A45.72,45.72,0,0,1,75.7,20.19ZM84,43h0c7.43-2.58,12.32,4.79,18.07,3.07C96.49,40.21,92,33.5,92.56,25.75a.47.47,0,0,0-.76-.45,13.53,13.53,0,0,0-5.43,8.89A13.51,13.51,0,0,0,74,32.87,39.23,39.23,0,0,1,84,43Z"/><polygon class="cls-1" points="80.3 102.91 80.3 102.91 79.8 102.91 79.8 99.66 78.6 99.66 78.6 99.21 81.52 99.21 81.52 99.66 80.3 99.66 80.3 102.91"/><polygon class="cls-1" points="83.93 102.06 83.93 102.06 85.04 99.21 85.86 99.21 85.86 102.91 85.33 102.91 85.33 99.82 84.08 102.91 83.74 102.91 82.52 99.82 82.52 102.91 82.01 102.91 82.01 99.21 82.83 99.21 83.93 102.06"/><path class="cls-2" d="M68.4,119.2h0c0,2.83-1.6,4.35-4.55,4.35s-4.53-1.54-4.53-4.31v-5h3.27v4.87c0,1.34.35,2,1.24,2s1.31-.54,1.31-2.09V114.2H68.4Z"/><polygon class="cls-2" points="21.56 116.53 21.56 116.53 21.56 123.38 18.26 123.38 18.26 116.53 15.49 116.53 15.49 114.2 24.34 114.2 24.34 116.53 21.56 116.53"/><path class="cls-2" d="M29.89,116.3h0l-.81,3.13h1.65ZM32,123.38h0l-.54-1.7H28.35l-.59,1.7H24.48l3.33-9.18H32l3.31,9.18Z"/><path class="cls-2" d="M79,122.65h0l-1-2.36a3.34,3.34,0,0,1-2.14.81,2.41,2.41,0,0,1,0-4.78,3.55,3.55,0,0,1,2.18.9l1-2.32a7.78,7.78,0,0,0-3.7-.88,4.77,4.77,0,1,0,.1,9.53A6.68,6.68,0,0,0,79,122.65Z"/><polygon class="cls-2" points="86.42 123.38 86.42 123.38 84.34 120.04 84.34 123.38 81.14 123.38 81.14 114.2 84.34 114.2 84.34 117.57 86.28 114.2 89.86 114.2 86.85 118.72 90.24 123.38 86.42 123.38"/><path class="cls-2" d="M10,123.55h0c2.08,0,4.25-.73,4.25-3.08,0-2.12-1.8-2.69-3.22-3-1.06-.23-1.57-.34-1.57-.77s.74-.6,1.1-.6a5.13,5.13,0,0,1,2.62.85l.86-2.07a9.71,9.71,0,0,0-3.76-.87c-2.15,0-3.85,1-3.85,3.14,0,1.72,1.32,2.39,2.76,2.72,1,.26,1.63.33,1.63.82s-.5.64-1,.64a4.31,4.31,0,0,1-2.67-1l-1,2A7.13,7.13,0,0,0,10,123.55Z"/><path class="cls-2" d="M95.1,123.55h0c2.08,0,4.23-.73,4.23-3.08,0-2.12-1.79-2.69-3.2-3-1-.23-1.56-.34-1.56-.77s.71-.6,1.1-.6a5,5,0,0,1,2.59.85l.86-2.07a9.48,9.48,0,0,0-3.73-.87c-2.17,0-3.86,1-3.86,3.14,0,1.72,1.3,2.39,2.74,2.72,1,.26,1.63.33,1.63.82s-.47.64-.94.64a4.34,4.34,0,0,1-2.69-1l-1,2A7.07,7.07,0,0,0,95.1,123.55Z"/><path class="cls-2" d="M100.79,115.41h0v0a1.36,1.36,0,0,1,1.38-1.35,1.33,1.33,0,0,1,1.33,1.35,1.36,1.36,0,1,1-2.71,0Zm2.52,0h0a1.15,1.15,0,0,0-1.14-1.17,1.18,1.18,0,0,0-1.2,1.17v0a1.17,1.17,0,1,0,2.34,0Zm-1.68-.73h.62a.69.69,0,0,1,.42.15.44.44,0,0,1,.1.27h0a.4.4,0,0,1-.36.41l.41.56h-.23l-.4-.55h-.37V116h-.19Zm.6.7h0c.19,0,.33-.08.33-.27s-.12-.23-.33-.23h-.41v.5Z"/><path class="cls-2" d="M44,119.94h0a2.72,2.72,0,0,0,1.73-2.59c0-2.16-1.47-3.15-3.59-3.15H37.19v9.18h3.2v-2.72h.79l1.65,2.72h3.43Zm-1.48-2.59h0a.91.91,0,0,1-1,1H40.39v-1.93h1.14a.88.88,0,0,1,1,1Z"/><path class="cls-2" d="M55.15,118.68h0a1.94,1.94,0,0,0,1.77-2c0-1.57-1.18-2.44-3.24-2.44H48.45v9.18h5c2.42,0,3.65-.85,3.65-2.59A2,2,0,0,0,55.15,118.68ZM51.6,116.2h1.16c.6,0,1,.25,1,.79v0c0,.52-.36.82-1,.82H51.6Zm2.21,4.33h0c0,.53-.4.86-1.05.86H51.6v-1.72h1.19c.62,0,1,.27,1,.84Z"/></g></g></svg>