<svg xmlns="http://www.w3.org/2000/svg" viewBox="0 0 159.94 34.13"><defs><style>.cls-1{fill:#5d95b4;}.cls-2{fill:#f6f8f9;}</style></defs><title>Asset 29</title><g id="Layer_2" data-name="Layer 2"><g id="Layer_1-2" data-name="Layer 1"><path class="cls-1" d="M66.15,0c-2,3.68-.16,6.6,0,10.5H59c.15,4.3,3,4.78,6.69,4.78-.74,5.84-1.44,14.53,5.73,16.8,4.25,1.35,9.07,1,13.36-.1,1.42-.36,4-.83,4-2.76,0-1.47-2.08-1.52-3-1.44-3.56.27-7.51,1.93-11,.17-5.13-2.6-3.35-8.12-3.34-12.67,5.12,0,10.17-.36,15.28-.48,1.36,0,4.64-.25,4.29-2.36-.23-1.87-2.88-1.94-4.29-1.92-4.93.15-9.84.46-14.81.46C72.12,5.51,72.36,1.79,66.15,0ZM52.3,24.82c-14,6.33-31.5,4.3-46.3,2.39,1.85-2.36,5.22-3,5.73-6.21a15.1,15.1,0,0,0-10.4,2.87c-2.52,2-1.11,4.86,1.32,6a16.33,16.33,0,0,0,2.87.94c6.93,1.78,13.85,1.61,21,1.61,6.86,0,13.76.13,20.53-1.27,3.32-.64,7.34-1.41,10-3.69,1.44-1.23,2.41-3.14,1.37-5-1.83-3.15-7.74-3.3-10.89-3.92-6.21-1.38-12.45-2.13-18.63-3.34-4.17-.83-7.84-1.44-11.45-3.82,4.93-1.84,10-2.29,15.27-2.79a48.5,48.5,0,0,1,10.5.06c2.59.34,6.06,2.37,8.6,1.48,2-.67,3.35-3,1.36-4.49-2.62-2-6.86-1.9-10-1.9A108.2,108.2,0,0,0,20.32,6C17.46,6.68,9,7.88,10.22,12.41c1,3.92,7.23,5,10.58,5.73,6.15,1.32,12.41,2.41,18.62,3.53C43.71,22.45,48.23,23,52.3,24.82ZM149.71,22c0,1.92-.48,3.82-.19,5.73a7.62,7.62,0,0,0,1,3.34c1.76,2.44,6.33,2.4,8.43.17,1.5-1.6.18-3.45-1.62-3.88a13.42,13.42,0,0,0-1.91-.11c0-3.72-.6-8,.9-11.46.78-1.81,4.12-4.54,3.52-6.57-.72-2.47-6.69-1.07-8.71-1.81-5.77-2-13.25-2.75-18.15,1.8a17.22,17.22,0,0,0-3.35,5.63c-1.71,3.82-4.05,8.59-3.66,12.89.47,5.36,6.06,5.25,9.88,3.72A25.93,25.93,0,0,0,140.64,29,78.71,78.71,0,0,0,149.71,22Zm-42-13.6c-7.3.56-12.41,7.87-15.07,14.08-1.31,3.08-2.11,7.34.75,9.82s7.53,1.87,11,1.64c6.5-.58,14-5.38,16.47-11.46C124.36,14,115.66,7.75,107.69,8.36Z"/><path class="cls-2" d="M132.05,28.17c5.6-1.65,11-6.21,15.27-10.11,1.33-1.2,4.23-3.48,3.28-5.58-1.41-3.12-9.54-2.91-11.87-1.19a11.25,11.25,0,0,0-3,4.46C133.91,19.57,132.14,23.89,132.05,28.17ZM106.26,12.76c-3.82,1.45-7.33,7.83-8.3,11.58-1.09,4.22,1.44,6.08,5.44,5.65a12.94,12.94,0,0,0,3.34-.81c3.81-1.4,7.86-4.92,8.5-9.13C115.94,15.33,110.93,11,106.26,12.76Z"/></g></g></svg>