<svg xmlns="http://www.w3.org/2000/svg" viewBox="0 0 153.01 31.46"><defs><style>.cls-1{fill:#793076;}.cls-1,.cls-2{fill-rule:evenodd;}.cls-2{fill:#e8233e;}</style></defs><title>Asset 21</title><g id="Layer_2" data-name="Layer 2"><g id="Layer_1-2" data-name="Layer 1"><path class="cls-1" d="M114.2,31.46a10.2,10.2,0,0,0-1.6-.42,4.33,4.33,0,0,1-3.16-3.38,12.61,12.61,0,0,1-.23-2.65q0-7.34,0-14.66c0-.65-.18-.81-.79-.77-.87,0-1.74,0-2.62,0-.23,0-.5.05-.53-.3s.27-.22.44-.28a8,8,0,0,1,2.67-.12c.71,0,.85-.21.83-.86,0-2.2,0-4.4,0-6.6V.73a5,5,0,0,0,4.32-.41v.91c0,2.34,0,4.68,0,7,0,.56.15.66.67.65,1.84,0,3.68,0,5.53,0,.58,0,.71-.18.7-.73,0-2.46,0-4.91,0-7.42,1.47.33,2.89.55,4.21-.38.2.14.1.34.1.51,0,2.45,0,4.92,0,7.37,0,.49.13.65.63.65,1.85,0,3.68,0,5.53,0,.4,0,1-.07,1,.42s-.63.28-1,.28c-1.87,0-3.73,0-5.6,0-.47,0-.59.14-.59.6,0,5.43,0,10.86,0,16.3a9.36,9.36,0,0,0,.23,2,3,3,0,0,0,2.54,2.4,3.2,3.2,0,0,0,2.39-.7,4.35,4.35,0,0,0,1.74-2.32,1,1,0,0,0-.11-1,11.73,11.73,0,0,1-2.35-4.88,10.12,10.12,0,0,1,.18-4.89,10.89,10.89,0,0,1,2.28-4.25,11.43,11.43,0,0,1,4.14-3.23,12.67,12.67,0,0,1,5.32-1.33,8.29,8.29,0,0,1,3,.65,17.73,17.73,0,0,1,2.09.93,13,13,0,0,1,3.63,3,11.47,11.47,0,0,1,2.34,4.39,9.9,9.9,0,0,1-1.21,8A12.37,12.37,0,0,1,147.63,29a10.28,10.28,0,0,1-4.4,2,8.48,8.48,0,0,0-1.27.4h-2.54c0-.05-.1-.11-.15-.12a11.82,11.82,0,0,1-6.32-3c-.5-.45-.64-.35-.89.2a4.34,4.34,0,0,1-1.64,1.94,23.75,23.75,0,0,1-2.34,1h-2.69a4.16,4.16,0,0,0-1.13-.41,4,4,0,0,1-3.35-2.35c-.09.14-.25.22-.35.39a4,4,0,0,1-3.08,2.09.56.56,0,0,0-.45.28Zm33.26-11.65c0-.44,0-.94,0-1.43A15.17,15.17,0,0,0,146,11.56,4.6,4.6,0,0,0,144.61,10a7.18,7.18,0,0,0-5.29-1,3.6,3.6,0,0,0-1.62.34,6.76,6.76,0,0,0-3,4.09,29.07,29.07,0,0,0-.48,10.31,6.36,6.36,0,0,0,0,1.49,29.89,29.89,0,0,0,1.52,3.3,4.46,4.46,0,0,0,2.72,2,11.35,11.35,0,0,0,4.07,0,4.72,4.72,0,0,0,3.69-3A18.52,18.52,0,0,0,147.46,19.81Zm-33.92-1.28v7.78a8.31,8.31,0,0,0,.39,2.71,3,3,0,0,0,2.63,1.85,4.43,4.43,0,0,0,3.31-2c.28-.46.76-.92.64-1.55a10.28,10.28,0,0,1-.11-1.84q0-7.59,0-15.2c0-.55-.13-.73-.7-.71-1.84,0-3.68,0-5.52,0-.53,0-.67.15-.66.67C113.56,13,113.54,15.77,113.54,18.53Z"/><path class="cls-2" d="M82.8,29.92c.38.27.79.11,1.19.11,1.32,0,2.65,0,4,0,.44,0,.63-.08.62-.56q0-9.68,0-19.34c0-.43-.12-.57-.56-.56-1,0-1.89,0-2.83,0-.3,0-.5,0-.49-.41s.26-.33.5-.34c2.42,0,4.85,0,7.29,0,.62,0,.46.4.46.71V29.1c0,.93,0,.93.92.93l1.35,0c0,.23,0,.45,0,.68l-20.11,0c-.27,0-.52,0-.51-.39s.32-.32.55-.33c1,0,1.94,0,2.91,0,.35,0,.48-.08.48-.47,0-5.48.05-10.95,0-16.43,0-2.06-.92-3.65-2.78-4a6.6,6.6,0,0,0-5.16,1.21,9,9,0,0,0-3.88,7.38c-.13,3.94,0,7.88,0,11.82,0,.42.15.51.53.5,1,0,1.93,0,2.9,0,.23,0,.48-.06.49.32s-.22.4-.5.4c-3.74,0-7.46,0-11.2,0-.25,0-.45,0-.45-.36s.17-.36.44-.36c.92,0,1.84,0,2.76,0,.59,0,.68-.2.68-.72q0-13.17,0-26.34c0-.6,0-1.19,0-1.77,0-.42-.14-.52-.53-.52-.88,0-1.75,0-2.62,0-.58,0-.85-.1-.71-.72h8.22V13.78a2.66,2.66,0,0,0,.74-1A9.72,9.72,0,0,1,79,9a5.73,5.73,0,0,1,3.8,5.59Q82.78,22.22,82.8,29.92Z"/><path class="cls-2" d="M25.07,31.46c-.82-.31-1.67-.48-2.48-.84a5.43,5.43,0,0,1-3.34-4.69,58.86,58.86,0,0,1-.12-6.64c0-3,0-6,0-9.07,0-.49-.12-.66-.62-.64-.92,0-1.84,0-2.77,0-.26,0-.51,0-.52-.38s.28-.36.53-.37c2.36,0,4.73,0,7.09,0,.53,0,.66.18.66.7,0,5.24,0,10.48,0,15.73a7.29,7.29,0,0,0,.6,3.23,4,4,0,0,0,2.4,2.12c1.73.61,3.11-.14,4.31-1.1a9.15,9.15,0,0,0,3.61-6.63c.33-3.78.06-7.58.13-11.38,0-.62.29-1.45-.13-1.81s-1.17-.1-1.79-.11H31.15c-.29,0-.44-.07-.44-.39s.19-.34.42-.34h7.3c.6,0,.45.41.45.73V28.14c0,.46,0,.91,0,1.36s.16.56.58.54c.66,0,1.32,0,2,0,.22,0,.42,0,.41.31s-.11.41-.42.41q-3.18,0-6.36,0c-.47,0-.4-.3-.4-.57V25.62a2.44,2.44,0,0,0-.63,1A8.49,8.49,0,0,1,29.41,31c-.45.17-1,.09-1.35.43Z"/><path class="cls-2" d="M0,23.52c.57,0,.69.46.82.89a9.21,9.21,0,0,0,3,4.8A6.39,6.39,0,0,0,7,30.58c.4.05.72.32,1.14.3,3.54-.16,5.42-2.44,4.31-6.06-.41-1.34-1.77-1.82-3-2.27C7.7,21.91,6,21.34,4.25,20.71c-3-1.12-4-3.55-3.77-6.39a6.86,6.86,0,0,1,7.06-6.1,8.44,8.44,0,0,1,4.25,1,1.22,1.22,0,0,0,1.39-.17c.18-.16.38-.31.63-.19s.14.37.14.57c0,1.54,0,3.07,0,4.61,0,.22.15.55-.27.6s-.36-.31-.44-.52a20.39,20.39,0,0,0-1-2.4A5,5,0,0,0,6.51,9,4.36,4.36,0,0,0,3,11.24a3.58,3.58,0,0,0,.68,4.13,6.92,6.92,0,0,0,2.6,1.3c1.46.53,2.94,1,4.41,1.47A9.87,9.87,0,0,1,15.23,21a4.56,4.56,0,0,1,1,3.29,6.85,6.85,0,0,1-4.37,6.37c-.83.35-1.69.48-2.51.78H6.94c-1.52-.47-3.05-.95-4.59-1.37a1.37,1.37,0,0,0-1.6.4.75.75,0,0,1-.75.26Z"/><path class="cls-2" d="M49.44,31.46c-1.53-.47-3.06-1-4.61-1.38a1.37,1.37,0,0,0-1.56.37.54.54,0,0,1-.65.13c-.23-.07-.12-.32-.12-.49,0-1.94,0-3.87,0-5.81,0-.26,0-.59.23-.66s.42.31.49.56a10.73,10.73,0,0,0,1.92,3.94,6.83,6.83,0,0,0,4.28,2.47c.34.05.62.23.93.26,1.44.15,4.31-.74,4.66-2.91a7.28,7.28,0,0,0,.05-2.59c-.33-1.57-1.6-2.19-2.91-2.7-1.76-.69-3.57-1.28-5.36-1.93-3.13-1.13-4.13-3.65-3.81-6.54a6.84,6.84,0,0,1,6.77-6,10.54,10.54,0,0,1,4,.75,2,2,0,0,0,2.13,0c.26-.19.53-.11.53.34,0,1.68,0,3.35,0,5,0,.14.05.34-.19.38s-.36-.09-.44-.33a17.88,17.88,0,0,0-1.09-2.6,5.49,5.49,0,0,0-8.12-1.84c-1.82,1.35-1.94,4.23-.43,5.45a5.9,5.9,0,0,0,1.3.78C50,17.3,52.75,17.71,55.19,19a6.12,6.12,0,0,1,3.23,3.31,7,7,0,0,1-3.87,8.3,7.93,7.93,0,0,0-2.12.83Z"/><path class="cls-2" d="M91.39,0c.23.48.76.3,1.13.49a3.07,3.07,0,0,1,.64,5.18,3.32,3.32,0,0,1-3.39.44A3,3,0,0,1,88,3.2,3,3,0,0,1,89.88.36c.31-.15.73,0,.93-.36Z"/><path class="cls-1" d="M101.44,0a5.14,5.14,0,0,1,2.24,1.43,2.82,2.82,0,0,1,.45,3,2.77,2.77,0,0,1-2.45,1.8,2.6,2.6,0,0,1-1.87-.21,3.55,3.55,0,0,1-1.54-1.74c-.51-1.51.41-3.88,2.32-4a.36.36,0,0,0,.29-.28Z"/><path class="cls-1" d="M153,7.65c-.42.45-.6,1-1.19,1.43a2.9,2.9,0,0,1-3.69-.42A2.84,2.84,0,0,1,148.19,5a2.69,2.69,0,0,1,3.59-.55A4.29,4.29,0,0,1,153,6ZM150.31,9a2.53,2.53,0,0,0,2.28-2.2,2.55,2.55,0,0,0-2.38-2.21,2.29,2.29,0,0,0-2.1,2.23A2.21,2.21,0,0,0,150.31,9Z"/><path class="cls-1" d="M95.17,30.73c0-.23,0-.45,0-.68,1.1,0,2.21,0,3.32,0,.45,0,.62-.09.62-.58q0-9.63,0-19.25c0-.52-.17-.65-.65-.63-.94,0-1.89,0-2.83,0-.26,0-.46,0-.47-.35s.19-.37.45-.37c2.45,0,4.91,0,7.36,0,.5,0,.44.28.44.59V17.1c0,4.08,0,8.17,0,12.24,0,.57.15.73.7.7.92,0,1.84,0,2.76,0,.28,0,.51,0,.5.39s-.24.33-.48.33Z"/><path class="cls-1" d="M82.8,29.92q0-7.7,0-15.38c0,1.18,0,2.35,0,3.53Q82.82,24,82.8,29.92Z"/><path class="cls-1" d="M149.14,6.82c0-1.37,0-1.33,1.41-1.45a.78.78,0,0,1,.88.48.79.79,0,0,1-.32,1.05c-.45.18-.28.34-.11.59a5.35,5.35,0,0,1,.29.47.27.27,0,0,1-.13.36c-.16.12-.25,0-.33-.13-.17-.28-.36-.55-.52-.84a.45.45,0,0,0-.51-.26c-.29,0-.14.3-.17.46a2,2,0,0,0,0,.35c0,.18,0,.34-.25.33s-.23-.19-.23-.35ZM150,5.67c-.3-.09-.4.1-.41.5s.17.49.51.45.86,0,.84-.5S150.48,5.7,150,5.67Z"/></g></g></svg>