<svg xmlns="http://www.w3.org/2000/svg" viewBox="0 0 138.38 101.94"><defs><style>.cls-1{fill:#cf9fc8;}.cls-2{fill:#1d1d1b;}</style></defs><title>Asset 20</title><g id="Layer_2" data-name="Layer 2"><g id="Layer_1-2" data-name="Layer 1"><path class="cls-1" d="M74.06,52.48c-.22.39-.46.78-.68,1.18a20.67,20.67,0,0,1-5.44,6.73,6.58,6.58,0,0,1-10.4-2.91c-.47-1.17-.75-2.41-1.17-3.82a10.64,10.64,0,0,0-.82,1,22.06,22.06,0,0,1-5.39,5.64c-5.76,4-10.71-.13-11.6-4.85a25.9,25.9,0,0,1,1-12,89.86,89.86,0,0,1,8.05-19c.54-1,1-2,1.56-3.1A13.68,13.68,0,0,1,54.41,26c.93,1.61.55,3.28-.27,4.88C51.39,36.19,48.07,41.26,46,47A20.11,20.11,0,0,0,44.48,55a7.83,7.83,0,0,0,.24,1.6,2.22,2.22,0,0,0,2.87,1.78,10,10,0,0,0,5.55-3.62,21.6,21.6,0,0,0,4.38-10,56.47,56.47,0,0,1,6.19-16.56c.91-1.64,1.17-1.79,2.94-1.11s3.45,1.53,5.17,2.28c.8.35.85.88.47,1.57-1.08,2-2.16,4-3.22,5.94-2.32,4.4-4.66,8.79-6,13.64a12,12,0,0,0-.32,5.92c.31,1.32,1.15,2,2.39,1.46a12.66,12.66,0,0,0,3.76-2.28A22.79,22.79,0,0,0,75.65,44a147.66,147.66,0,0,1,7.22-21.67c.14-.33.26-.67.38-1a3.14,3.14,0,0,0,0-.44c-2.77-.81-5.82-1.25-7.3-4.24a4.24,4.24,0,0,1-.18-1.46c1.75.49,3.32,1,4.93,1.37a13.86,13.86,0,0,0,3,.28,2.35,2.35,0,0,0,2.39-1.72c1-3.07,2-6.13,2.92-9.23.24-.83.53-1.08,1.26-.7a43.28,43.28,0,0,1,4.17,2.3c2.39,1.64,2.61,4,1.84,6.59-.11.37-.23.73-.41,1.32,1.44-.24,2.68-.44,3.91-.67a113.94,113.94,0,0,1,22.48-2.22,58.86,58.86,0,0,1,9.85.77A7.92,7.92,0,0,1,138,23.5c-.22.74-.56.94-1.26.65-6.45-2.77-13.29-3.46-20.21-3.7-3-.1-6-.29-8.92-.16-4.27.19-8.52.77-12.79.91-1.87.05-2.55,1-3.18,2.42-3.2,7.51-6.53,15-9.66,22.51a21.73,21.73,0,0,0-2,9.19c.08,2.1,1.23,3.1,3.27,2.6,3.06-.74,5.29-2.74,7.35-5a10.18,10.18,0,0,0,2.34-5.58,53.59,53.59,0,0,1,4.41-13.75c1.85-4.06,3.92-8,5.9-12,0-.06.1-.09.28-.24,2,1.24,4,2.56,5.2,4.72a4.92,4.92,0,0,1-.31,4.78c-2.75,5.36-6.07,10.43-8.14,16.13A20.12,20.12,0,0,0,98.75,55a7.65,7.65,0,0,0,.22,1.5,2.23,2.23,0,0,0,3,1.87,10,10,0,0,0,5.45-3.6,21.52,21.52,0,0,0,4.38-10A56.73,56.73,0,0,1,118,28.2c.93-1.66,1.17-1.8,2.94-1.13s3.38,1.51,5.08,2.24c.89.38,1,.91.53,1.71-1.59,2.94-3.2,5.86-4.72,8.84-1.88,3.65-3.77,7.32-4.55,11.39a20.63,20.63,0,0,0-.13,5.27,1.54,1.54,0,0,0,2.22,1.4,15.47,15.47,0,0,0,3.87-2.3c2.63-2.18,4.16-5.17,5.65-8.18.26-.52.29-1.64,1.3-1.18s.2,1.17,0,1.72A30.71,30.71,0,0,1,124,58.78a8.53,8.53,0,0,1-5.35,3.07,6.55,6.55,0,0,1-6.7-4.06c-.53-1.28-.87-2.65-1.36-4.19-.34.45-.59.77-.83,1.11a21,21,0,0,1-5.49,5.68c-5.39,3.6-9.83.1-11.16-3.89-.14-.45-.28-.89-.43-1.33l-.39-.32a2.68,2.68,0,0,1-.32.8,38.34,38.34,0,0,1-2.65,3.17c-2.85,2.92-6.39,3.57-10.23,2.73-2.43-.52-4.43-3.39-4.58-6.29-.05-.88,0-1.78,0-2.67Z"/><path class="cls-1" d="M41.93,10.6a7.37,7.37,0,0,0,.56.63A5.23,5.23,0,0,1,44.2,18c-2.37,5.69-4.87,11.33-7.06,17.09a244.92,244.92,0,0,0-8.87,27.09C27.8,64,27.5,65.94,27.09,68a7.41,7.41,0,0,1-4.62-2.76c-.67-1-.37-2-.23-2.94A206.45,206.45,0,0,1,34.06,16.53c.74-1.88,1.22-3.87,1.8-5.81.22-.71.07-1.23-.79-1.27-8.95-.47-17.7.07-25.2,5.78A15.48,15.48,0,0,0,3.52,29.61c.41,4.84,3.84,8.38,9.06,9.31a16.16,16.16,0,0,0,7.32-.16.62.62,0,0,1,.32,0c.38.1.74.22,1.11.34-.23.28-.42.7-.71.81a15,15,0,0,1-3.23.93c-3.23.39-6.49.47-9.52-.94A12.64,12.64,0,0,1,.18,29.51C-1.07,19.27,4.26,12.32,11.92,8.06A43.09,43.09,0,0,1,28.84,3.18,79.5,79.5,0,0,1,47.71,4a68,68,0,0,0,14.12.35A48.2,48.2,0,0,0,76,1.21C76.85.89,77.61.35,78.46,0a1.27,1.27,0,0,1,1.15.27,8.54,8.54,0,0,1-.52,9,5.64,5.64,0,0,1-2.78,2,49.3,49.3,0,0,1-10.56,2c-6.58.7-12.93-.55-19.29-1.87C45.06,11.14,43.64,10.91,41.93,10.6Z"/><path d="M71.7,97.27c-3.31,3.51-5.72,3.11-7.32-.9a19.34,19.34,0,0,1-3.47,1.79c-2.76.81-4.86-.31-6-2.94C52.54,89.65,56.45,81.5,62.28,80a6.55,6.55,0,0,1,5.27.57c.28.18.75.06,1.13.08l.06-.33a8.84,8.84,0,0,1,.86.46c3,2.09,2.93,3.06,1.47,5.64a44.46,44.46,0,0,0-3,6.5,10.65,10.65,0,0,0-.37,3.75c0,1.1.76,1.43,1.62.78,1.2-.9,2.28-1.9,2.4-3.57A25.52,25.52,0,0,1,74,85.51c.94-2.16,2-4.27,3-6.42a3.79,3.79,0,0,1,2.66,5.37c-1.19,2.36-2.64,4.6-3.77,7a27.72,27.72,0,0,0-1.27,4.3l.49.21c3-6.54,7.28-12.29,11.65-18.11a5.28,5.28,0,0,1,2.62,2.56,3.16,3.16,0,0,1-.21,2.34c-.89,1.82-2,3.52-3,5.32a10.43,10.43,0,0,0-1.6,5.68c.09,1.3.69,1.7,1.75,1,1.56-1,2.74-2.19,2.87-4.38.29-5,2.43-8.92,7.32-10.9,2.83-1.14,5-.18,6.12,2.66a7.72,7.72,0,0,1-.2,6,2.7,2.7,0,0,1-3.59,1.76c-.69-.17-1.36-.41-2-.59a39.38,39.38,0,0,0,1.54-3.8,5.52,5.52,0,0,0-.23-2,5.7,5.7,0,0,0-2,.61c-2.6,2.09-4.31,4.69-4.2,8.19a4.29,4.29,0,0,0,5.77,4.07,15.43,15.43,0,0,0,5.8-3.76,2.42,2.42,0,0,0,.38-1.49,13.42,13.42,0,0,1,5.27-10.42,6.73,6.73,0,0,1,4.92-1.35c3,.28,4.58,3.22,3.36,6.28A8,8,0,0,1,107.27,90a5.52,5.52,0,0,0,1,5.86,4.38,4.38,0,0,0,5.14.74,15,15,0,0,0,5.86-4.22c.16-.2.5-.24.76-.36,0,.2.11.43,0,.57-1.54,3-5,6.33-9.09,6.43a6.07,6.07,0,0,1-6.32-4.18c-.1-.23-.2-.46-.29-.69a24.8,24.8,0,0,1-3.44,2.64,18.14,18.14,0,0,1-5,1.94c-2.56.48-4.88-1.05-6-3.52l-.46-1c-.53.61-1,1.16-1.48,1.69a3.65,3.65,0,0,1-4.11,1.24,3.8,3.8,0,0,1-2.43-3.57,14,14,0,0,1,0-3,18.48,18.48,0,0,0,.33-3l-4.65,9.66a18.34,18.34,0,0,1-1,1.91,2,2,0,0,1-2.23,1A2.25,2.25,0,0,1,72,98.29C71.91,98,71.81,97.66,71.7,97.27ZM56.77,91.46c0,4,1.28,5.4,3.9,5.13a4.5,4.5,0,0,0,3.46-2.72c.51-2.4,1.06-4.79,1.72-7.15.41-1.47,0-2.5-1.61-2.7a4.25,4.25,0,0,0-2.4.35C58.72,86.11,57,88.79,56.77,91.46Zm50.83-3.08c1.7.69,4.48-.9,5.52-3a5.18,5.18,0,0,0,.18-1.74,5.25,5.25,0,0,0-1.74.07C109.46,84.58,108.57,86.5,107.6,88.38Z"/><path d="M34.75,74.3a20.91,20.91,0,0,1,2,.88c2,1.14,2.33,2.55,1.39,4.66-2.18,4.9-4.26,9.84-6.37,14.78a11.47,11.47,0,0,0-.41,1.49c.86.38,1.66.7,2.43,1.09.22.12.34.44.51.67-.29.07-.6.25-.86.19-.72-.16-1.42-.43-2.19-.67-.1.52-.16.86-.28,1.47a8.46,8.46,0,0,1-2.3-1.3c-.7-.79-1.39-.45-1.94-.17s-.14.87.27,1a18.32,18.32,0,0,0,3.49,1.16A17.34,17.34,0,0,0,48.38,91a16.82,16.82,0,0,0,2.55-9.4c-.32-6.26-5.49-10.41-11.87-9.3A23.88,23.88,0,0,0,24.61,81l-.35.38c-2.46-.76-3.48-5-1.11-6.69,5.3-3.72,10.83-6.82,17.55-6.8,7.72,0,13.53,6.11,13.75,13.83.26,8.94-7.6,18.86-18.37,20.15a16.81,16.81,0,0,1-8.14-1,9.25,9.25,0,0,1-1.81-1A2.27,2.27,0,0,1,25,97.45,1.91,1.91,0,0,1,26.85,96c1.08-.12,1.18-.66,1.39-1.59.63-2.74,1.39-5.47,2.28-8.15,1.11-3.33,2.41-6.6,3.62-9.91C34.37,75.76,34.52,75.09,34.75,74.3Z"/><path class="cls-2" d="M127.41,75.39a2.36,2.36,0,0,1,1.11.29,2,2,0,0,1,.85.84,2.3,2.3,0,0,1,.3,1.13,2.27,2.27,0,0,1-.3,1.12,2.1,2.1,0,0,1-.83.84,2.3,2.3,0,0,1-1.13.3,2.27,2.27,0,0,1-1.12-.3,2.12,2.12,0,0,1-.84-.84,2.27,2.27,0,0,1-.3-1.12,2.21,2.21,0,0,1,.31-1.13,2.06,2.06,0,0,1,.84-.84A2.36,2.36,0,0,1,127.41,75.39Zm0,.37a2,2,0,0,0-.92.25,1.71,1.71,0,0,0-.71.7,1.89,1.89,0,0,0,0,1.88,1.75,1.75,0,0,0,.7.7,1.93,1.93,0,0,0,.93.25,2,2,0,0,0,.94-.25,1.81,1.81,0,0,0,.7-.7,2,2,0,0,0,.25-.94,1.88,1.88,0,0,0-.26-.94,1.63,1.63,0,0,0-.7-.7A2,2,0,0,0,127.41,75.76Zm-1,3.14V76.47h.84a1.91,1.91,0,0,1,.62.07.57.57,0,0,1,.3.23.6.6,0,0,1,.12.36.68.68,0,0,1-.19.46.75.75,0,0,1-.51.22.69.69,0,0,1,.21.13,2.94,2.94,0,0,1,.36.48l.29.48H128l-.21-.38a2.18,2.18,0,0,0-.41-.57.49.49,0,0,0-.32-.08h-.23v1Zm.39-1.37h.48a.78.78,0,0,0,.47-.1.34.34,0,0,0,.12-.27.31.31,0,0,0-.06-.19.37.37,0,0,0-.17-.13,1.17,1.17,0,0,0-.39,0h-.45Z"/></g></g></svg>