<svg xmlns="http://www.w3.org/2000/svg" viewBox="0 0 125.07 55"><defs><style>.cls-1{fill:#b0d31e;}.cls-2{fill:#1d1d1b;}</style></defs><title>Asset 20</title><g id="Layer_2" data-name="Layer 2"><g id="Layer_1-2" data-name="Layer 1"><rect class="cls-1" width="125.07" height="55"/><path class="cls-2" d="M25.25,43.64h21l-1.91-21H27.16ZM30,25.52a1,1,0,0,1,.84-1,1,1,0,0,1,1.06,1v1.89a3.82,3.82,0,1,0,7.64,0V25.52a1,1,0,1,1,1.91,0v1.89a5.73,5.73,0,1,1-11.45,0Z"/><polygon class="cls-2" points="35.27 17.87 31.46 17.87 31.46 21.69 35.59 21.69 35.27 17.87"/><path class="cls-2" d="M17.14,24.55a1,1,0,0,0,1-1v-10a5.25,5.25,0,1,1,10.49,0v8.11H30.5V13.58a7.16,7.16,0,1,0-14.31,0v10A1,1,0,0,0,17.14,24.55Z"/><path class="cls-2" d="M25.25,44.59h-1l.09-1,1.91-21,.09-.86h1.34V17.87H19.05V21.7a2.36,2.36,0,0,1,.48,1.42,2.39,2.39,0,1,1-4.77,0,2.42,2.42,0,0,1,.47-1.42V17.87H11.42L9,46.5H37.66l-.16-1.91Z"/><path class="cls-2" d="M54.53,25h2.86a4,4,0,0,1,1.81.39,2.93,2.93,0,0,1,1.23,1.1,3.42,3.42,0,0,1,0,3.32,2.93,2.93,0,0,1-1.23,1.1,4,4,0,0,1-1.81.39H54.53Zm2.79,5.1a2.13,2.13,0,0,0,1.51-.52,2.11,2.11,0,0,0,0-2.86,2.13,2.13,0,0,0-1.51-.52H56v3.9Z"/><path class="cls-2" d="M62,25h1.46v6.3H62Z"/><path class="cls-2" d="M68.93,31.29l-1.22-1.75H66.37v1.75H64.91V25h2.73a3.49,3.49,0,0,1,1.46.28,2.16,2.16,0,0,1,.94.79,2.34,2.34,0,0,1,0,2.43,2.2,2.2,0,0,1-1,.78l1.41,2Zm-.37-4.83a1.53,1.53,0,0,0-1-.28H66.37v2.19h1.19a1.53,1.53,0,0,0,1-.28,1,1,0,0,0,.34-.81A1,1,0,0,0,68.56,26.46Z"/><path class="cls-2" d="M76.41,30.12v1.17H71.53V25h4.76v1.17H73v1.37H75.9v1.13H73v1.46Z"/><path class="cls-2" d="M78.82,31a3.17,3.17,0,0,1-1.22-1.16,3.36,3.36,0,0,1,0-3.36,3.17,3.17,0,0,1,1.22-1.16,3.89,3.89,0,0,1,3.23-.13,2.91,2.91,0,0,1,1.12.83l-.94.86a2,2,0,0,0-1.58-.74,2.15,2.15,0,0,0-1.05.26,1.82,1.82,0,0,0-.71.72,2.21,2.21,0,0,0,0,2.08,1.82,1.82,0,0,0,.71.72,2.15,2.15,0,0,0,1.05.26,2,2,0,0,0,1.58-.75l.94.86a2.91,2.91,0,0,1-1.12.84,3.72,3.72,0,0,1-1.48.29A3.62,3.62,0,0,1,78.82,31Z"/><path class="cls-2" d="M85.39,26.18h-2V25h5.49v1.19h-2v5.11H85.39Z"/><path class="cls-2" d="M90.84,31a3.27,3.27,0,0,1-1.23-4.51,3.06,3.06,0,0,1,1.23-1.16,3.84,3.84,0,0,1,3.53,0,3.25,3.25,0,0,1,1.23,4.5A3.29,3.29,0,0,1,94.37,31a3.92,3.92,0,0,1-3.53,0Zm2.78-1.08a1.8,1.8,0,0,0,.7-.72,2.21,2.21,0,0,0,0-2.08,1.8,1.8,0,0,0-.7-.72,2.05,2.05,0,0,0-1-.26,2,2,0,0,0-1,.26,1.82,1.82,0,0,0-.71.72,2.29,2.29,0,0,0,0,2.08,1.82,1.82,0,0,0,.71.72,2,2,0,0,0,1,.26A2.05,2.05,0,0,0,93.62,29.9Z"/><path class="cls-2" d="M101.17,31.29,100,29.54H98.61v1.75H97.15V25h2.73a3.41,3.41,0,0,1,1.45.28,2.25,2.25,0,0,1,1,3.22,2.26,2.26,0,0,1-1,.78l1.41,2Zm-.37-4.83a1.53,1.53,0,0,0-1-.28H98.61v2.19H99.8a1.53,1.53,0,0,0,1-.28,1,1,0,0,0,.34-.81A1,1,0,0,0,100.8,26.46Z"/><path class="cls-2" d="M103.77,25h1.46v6.3h-1.46Z"/><path class="cls-2" d="M108,31a3.29,3.29,0,0,1-1.23-1.17,3.21,3.21,0,0,1,1.23-4.5,3.62,3.62,0,0,1,1.77-.43,3.56,3.56,0,0,1,1.76.43,3.25,3.25,0,0,1,1.24,4.5A3.25,3.25,0,0,1,111.53,31a3.66,3.66,0,0,1-1.76.42A3.73,3.73,0,0,1,108,31Zm2.78-1.08a1.8,1.8,0,0,0,.7-.72,2.21,2.21,0,0,0,0-2.08,1.8,1.8,0,0,0-.7-.72,2.09,2.09,0,0,0-2,0,1.8,1.8,0,0,0-.7.72,2.21,2.21,0,0,0,0,2.08,1.8,1.8,0,0,0,.7.72,2.09,2.09,0,0,0,2,0Z"/></g></g></svg>