<svg xmlns="http://www.w3.org/2000/svg" viewBox="0 0 35.42 42.83"><defs><style>.cls-1{fill:#fff;}</style></defs><title>Asset 17</title><g id="Layer_2" data-name="Layer 2"><g id="Layer_1-2" data-name="Layer 1"><path class="cls-1" d="M9.68,0a6.81,6.81,0,0,0,0,13.62h6.81V6.81A6.82,6.82,0,0,0,9.68,0Z"/><path class="cls-1" d="M26.24,0a6.82,6.82,0,0,0-6.81,6.81v6.81h6.81A6.81,6.81,0,1,0,26.24,0Z"/><path class="cls-1" d="M2.87,23.38a6.81,6.81,0,1,0,13.62,0V16.57H9.68A6.81,6.81,0,0,0,2.87,23.38Z"/><path class="cls-1" d="M26.24,16.57H19.43v6.81a6.82,6.82,0,1,0,6.81-6.81Z"/><path class="cls-1" d="M1.52,42.44A2.86,2.86,0,0,1,.4,41.35,3,3,0,0,1,0,39.8a3,3,0,0,1,.4-1.55,2.84,2.84,0,0,1,1.12-1.08,3.3,3.3,0,0,1,1.6-.39A3.23,3.23,0,0,1,4.34,37a2.52,2.52,0,0,1,1,.65l-.4.4a2.37,2.37,0,0,0-1.76-.71,2.64,2.64,0,0,0-1.28.32,2.51,2.51,0,0,0-.9,3.4,2.38,2.38,0,0,0,.9.88,2.54,2.54,0,0,0,1.28.33,2.32,2.32,0,0,0,1.76-.72l.4.4a2.48,2.48,0,0,1-1,.65,3.23,3.23,0,0,1-1.22.23A3.23,3.23,0,0,1,1.52,42.44Z"/><path class="cls-1" d="M10.83,42.23v.55H6.63v-6h4.08v.55H7.26v2.11h3.07V40H7.26v2.21Z"/><path class="cls-1" d="M16.37,42.78,15,40.87l-.47,0h-1.6v1.89h-.63v-6h2.23a2.65,2.65,0,0,1,1.78.55A1.84,1.84,0,0,1,17,38.87a1.84,1.84,0,0,1-1.35,1.87l1.45,2ZM15.87,40a1.53,1.53,0,0,0,0-2.21,2.05,2.05,0,0,0-1.35-.38H12.94v3h1.58A2.05,2.05,0,0,0,15.87,40Z"/><path class="cls-1" d="M22.51,42.78l-1.36-1.91-.48,0H19.08v1.89h-.63v-6h2.22a2.66,2.66,0,0,1,1.79.55,1.84,1.84,0,0,1,.64,1.49,1.84,1.84,0,0,1-1.35,1.87l1.45,2ZM22,40a1.53,1.53,0,0,0,0-2.21,2.05,2.05,0,0,0-1.35-.38H19.08v3h1.58A2.05,2.05,0,0,0,22,40Z"/><path class="cls-1" d="M28.32,41.19H25l-.71,1.59h-.65l2.72-6H27l2.71,6H29Zm-.23-.51-1.43-3.19-1.42,3.19Z"/><path class="cls-1" d="M34.74,42.78l-1.36-1.91-.48,0H31.31v1.89h-.63v-6H32.9a2.63,2.63,0,0,1,1.78.55,1.82,1.82,0,0,1,.65,1.49A2,2,0,0,1,35,40.05a2,2,0,0,1-1,.69l1.45,2ZM34.24,40a1.56,1.56,0,0,0,0-2.21,2.09,2.09,0,0,0-1.35-.38H31.31v3h1.58A2.09,2.09,0,0,0,34.24,40Z"/></g></g></svg>