<svg xmlns="http://www.w3.org/2000/svg" viewBox="0 0 30.19 42.83"><defs><style>.cls-1{fill:#797fbb;}</style></defs><title>Asset 21</title><g id="Layer_2" data-name="Layer 2"><g id="Layer_1-2" data-name="Layer 1"><path class="cls-1" d="M6.81,0a6.81,6.81,0,0,0,0,13.62h6.81V6.81A6.82,6.82,0,0,0,6.81,0Z"/><path class="cls-1" d="M23.38,0a6.82,6.82,0,0,0-6.81,6.81v6.81h6.81A6.81,6.81,0,1,0,23.38,0Z"/><path class="cls-1" d="M0,23.38a6.81,6.81,0,1,0,13.62,0V16.57H6.81A6.82,6.82,0,0,0,0,23.38Z"/><path class="cls-1" d="M23.38,16.57H16.57v6.81a6.81,6.81,0,1,0,6.81-6.81Z"/><path class="cls-1" d="M8.27,36.83v6h-.6V38L5.33,42H5l-2.34-4v4.73H2.1v-6h.52L5.2,41.24l2.55-4.41Z"/><path class="cls-1" d="M14.41,42.23v.55h-4.2v-6h4.07v.55H10.83v2.11h3.08V40H10.83v2.21Z"/><path class="cls-1" d="M20.85,36.83v6h-.51L16.51,38v4.83h-.62v-6h.51l3.83,4.83V36.83Z"/><path class="cls-1" d="M23.38,42.16a2.64,2.64,0,0,1-.64-1.92V36.83h.63v3.38a2.24,2.24,0,0,0,.46,1.55,2.06,2.06,0,0,0,2.71,0A2.24,2.24,0,0,0,27,40.21V36.83h.61v3.41A2.64,2.64,0,0,1,27,42.16a2.37,2.37,0,0,1-1.8.67A2.37,2.37,0,0,1,23.38,42.16ZM25.8,35.3h.8l-1.37,1.05h-.6Z"/></g></g></svg>