<svg xmlns="http://www.w3.org/2000/svg" viewBox="0 0 125.07 55"><defs><style>.cls-1{fill:#b0d31e;}.cls-2{fill:#1d1d1b;}</style></defs><title>Asset 19</title><g id="Layer_2" data-name="Layer 2"><g id="Layer_1-2" data-name="Layer 1"><rect class="cls-1" width="125.07" height="55"/><path class="cls-2" d="M22.29,22.11a.94.94,0,1,0,1.3.32A.94.94,0,0,0,22.29,22.11Z"/><path class="cls-2" d="M31,25.64a.94.94,0,1,0,1.3.32A.94.94,0,0,0,31,25.64Z"/><path class="cls-2" d="M40.37,27,31.58,12.42A1.86,1.86,0,0,0,29,11.78L6.38,25.46a1.89,1.89,0,0,0-.64,2.59l2.44,4a1,1,0,0,0,1.3.32,2.83,2.83,0,1,1,2.93,4.85.94.94,0,0,0-.32,1.29l2.44,4a1.87,1.87,0,0,0,2.6.64L39.74,29.54A1.86,1.86,0,0,0,40.37,27ZM14.05,24.89l1.61-1,1,1.62L15,26.5ZM17,29.73l-1-1.61,1.61-1,1,1.62Zm1,1.62,1.62-1,1,1.62-1.61,1Zm2.93,4.84-1-1.61,1.61-1,1,1.62Zm3.36-10.85a2.83,2.83,0,1,1,1-3.89A2.82,2.82,0,0,1,24.24,25.34Zm2.3,7.43a.93.93,0,0,1-.63.13,1,1,0,0,1-.8-1.07l2.22-14.58a1,1,0,0,1,1.07-.79.94.94,0,0,1,.79,1.08L27,32.11A.9.9,0,0,1,26.54,32.77ZM33,28.87A2.83,2.83,0,1,1,34,25,2.83,2.83,0,0,1,33,28.87Z"/><path class="cls-2" d="M50.29,25.27a2.25,2.25,0,0,1,1,3.22,2.07,2.07,0,0,1-1,.79,3.57,3.57,0,0,1-1.45.27H47.57v1.74H46.11V25h2.73A3.41,3.41,0,0,1,50.29,25.27Zm-.53,2.81a1,1,0,0,0,.34-.8,1,1,0,0,0-.34-.82,1.53,1.53,0,0,0-1-.28H47.57v2.19h1.19A1.53,1.53,0,0,0,49.76,28.08Z"/><path class="cls-2" d="M56.63,31.29l-1.22-1.75H54.07v1.75H52.61V25h2.73a3.41,3.41,0,0,1,1.45.28,2.25,2.25,0,0,1,1,3.22,2.26,2.26,0,0,1-1,.78l1.41,2Zm-.37-4.83a1.53,1.53,0,0,0-1-.28H54.07v2.19h1.19a1.53,1.53,0,0,0,1-.28,1,1,0,0,0,.34-.81A1,1,0,0,0,56.26,26.46Z"/><path class="cls-2" d="M60.51,31a3.27,3.27,0,0,1-1.23-4.51,3.06,3.06,0,0,1,1.23-1.16,3.84,3.84,0,0,1,3.53,0,3.13,3.13,0,0,1,1.23,1.16,3.26,3.26,0,0,1,0,3.34A3.22,3.22,0,0,1,64,31a3.92,3.92,0,0,1-3.53,0Zm2.78-1.08a1.8,1.8,0,0,0,.7-.72,2.21,2.21,0,0,0,0-2.08,1.8,1.8,0,0,0-.7-.72,2.09,2.09,0,0,0-2,0,1.82,1.82,0,0,0-.71.72,2.29,2.29,0,0,0,0,2.08,1.82,1.82,0,0,0,.71.72,2.09,2.09,0,0,0,2,0Z"/><path class="cls-2" d="M72.56,31.29V27.51l-1.86,3.11H70l-1.85-3v3.7H66.82V25H68l2.36,3.92L72.71,25h1.2v6.3Z"/><path class="cls-2" d="M76.7,31a3.22,3.22,0,0,1-1.23-1.17,3.32,3.32,0,0,1,0-3.34,3.13,3.13,0,0,1,1.23-1.16,3.6,3.6,0,0,1,1.77-.43,3.56,3.56,0,0,1,1.76.43,3.22,3.22,0,0,1,1.24,1.16,3.32,3.32,0,0,1,0,3.34A3.32,3.32,0,0,1,80.23,31a3.66,3.66,0,0,1-1.76.42A3.7,3.7,0,0,1,76.7,31Zm2.78-1.08a1.8,1.8,0,0,0,.7-.72,2.21,2.21,0,0,0,0-2.08,1.8,1.8,0,0,0-.7-.72,2.09,2.09,0,0,0-2,0,1.89,1.89,0,0,0-.71.72,2.29,2.29,0,0,0,0,2.08,1.89,1.89,0,0,0,.71.72,2.09,2.09,0,0,0,2,0Z"/><path class="cls-2" d="M84.29,31a3.19,3.19,0,0,1-1.23-1.16,3.43,3.43,0,0,1,0-3.36,3.19,3.19,0,0,1,1.23-1.16A3.62,3.62,0,0,1,86,24.88a3.72,3.72,0,0,1,1.48.29,3,3,0,0,1,1.11.83l-.94.86a2,2,0,0,0-1.58-.74,2.08,2.08,0,0,0-1,.26,1.78,1.78,0,0,0-.72.72,2.21,2.21,0,0,0,0,2.08,1.78,1.78,0,0,0,.72.72,2.08,2.08,0,0,0,1,.26,2,2,0,0,0,1.58-.75l.94.86a2.84,2.84,0,0,1-1.12.84A3.72,3.72,0,0,1,86,31.4,3.61,3.61,0,0,1,84.29,31Z"/><path class="cls-2" d="M89.61,25h1.46v6.3H89.61Z"/><path class="cls-2" d="M93.84,31a3.29,3.29,0,0,1-1.23-1.17,3.39,3.39,0,0,1,0-3.34,3.19,3.19,0,0,1,1.23-1.16,3.62,3.62,0,0,1,1.77-.43,3.57,3.57,0,0,1,1.77.43,3.25,3.25,0,0,1,1.23,4.5A3.29,3.29,0,0,1,97.38,31a3.67,3.67,0,0,1-1.77.42A3.73,3.73,0,0,1,93.84,31Zm2.78-1.08a1.82,1.82,0,0,0,.71-.72,2.29,2.29,0,0,0,0-2.08,1.82,1.82,0,0,0-.71-.72,2.07,2.07,0,0,0-2,0,1.82,1.82,0,0,0-.71.72,2.21,2.21,0,0,0,0,2.08,1.82,1.82,0,0,0,.71.72,2.07,2.07,0,0,0,2,0Z"/><path class="cls-2" d="M105.94,25v6.3h-1.2l-3.14-3.83v3.83h-1.44V25h1.2l3.14,3.82V25Z"/><path class="cls-2" d="M112.31,30.12v1.17h-4.88V25h4.76v1.17h-3.31v1.37h2.92v1.13h-2.92v1.46Z"/><path class="cls-2" d="M114.1,31.2a3.5,3.5,0,0,1-1.13-.53l.5-1.1a3.32,3.32,0,0,0,1,.48,3.64,3.64,0,0,0,1.12.18,1.73,1.73,0,0,0,.92-.19.56.56,0,0,0,.29-.49.45.45,0,0,0-.17-.37,1.37,1.37,0,0,0-.45-.24c-.18-.06-.43-.13-.74-.2a8.38,8.38,0,0,1-1.18-.34,1.89,1.89,0,0,1-.79-.55,1.48,1.48,0,0,1-.33-1,1.75,1.75,0,0,1,.3-1,2,2,0,0,1,.89-.71,3.75,3.75,0,0,1,1.47-.26,4.58,4.58,0,0,1,1.17.15,3.29,3.29,0,0,1,1,.41l-.45,1.11a3.5,3.5,0,0,0-1.74-.5,1.68,1.68,0,0,0-.91.2.61.61,0,0,0-.29.52.5.5,0,0,0,.34.48,4.79,4.79,0,0,0,1,.31,10.35,10.35,0,0,1,1.18.35,1.9,1.9,0,0,1,.78.54,1.41,1.41,0,0,1,.33,1,1.72,1.72,0,0,1-.3,1,2,2,0,0,1-.9.71,3.79,3.79,0,0,1-1.47.26A5.27,5.27,0,0,1,114.1,31.2Z"/></g></g></svg>