<svg xmlns="http://www.w3.org/2000/svg" viewBox="0 0 125.07 55"><defs><style>.cls-1{fill:#b0d31e;}.cls-2{fill:#1d1d1b;}</style></defs><title>Asset 18</title><g id="Layer_2" data-name="Layer 2"><g id="Layer_1-2" data-name="Layer 1"><rect class="cls-1" width="125.07" height="55"/><path class="cls-2" d="M31.18,45.39c-4.95,0-9-2.36-9-5.26,0-2.15,2.26-4.08,5.66-4.88l3.32,5.47,3.32-5.47c3.4.8,5.66,2.73,5.66,4.88C40.16,43,36.13,45.39,31.18,45.39Z"/><path class="cls-2" d="M31.18,12.94a5.73,5.73,0,1,0,5.72,5.73A5.73,5.73,0,0,0,31.18,12.94Z"/><path class="cls-2" d="M31.18,8.57a10.25,10.25,0,0,0-8.93,15.28l8.93,14.71,8.94-14.73A10.23,10.23,0,0,0,31.18,8.57Zm0,16.94A6.85,6.85,0,1,1,38,18.67,6.85,6.85,0,0,1,31.18,25.51Z"/><path class="cls-2" d="M52.06,30.88a2.88,2.88,0,0,1-.75-2.13V25.22h1.45v3.47c0,1.13.47,1.7,1.41,1.7a1.33,1.33,0,0,0,1-.41,1.93,1.93,0,0,0,.36-1.29V25.22H57v3.53a2.88,2.88,0,0,1-.75,2.13,3.31,3.31,0,0,1-4.2,0Z"/><path class="cls-2" d="M63.92,28.81a1.56,1.56,0,0,1,.31,1,1.46,1.46,0,0,1-.64,1.27,3.28,3.28,0,0,1-1.88.45H58.45v-6.3h3.08a3,3,0,0,1,1.77.44,1.39,1.39,0,0,1,.61,1.2,1.53,1.53,0,0,1-.22.82,1.44,1.44,0,0,1-.61.56A1.71,1.71,0,0,1,63.92,28.81Zm-4-2.49V27.8h1.45a1.44,1.44,0,0,0,.82-.19.69.69,0,0,0,0-1.11,1.53,1.53,0,0,0-.82-.18Zm2.57,3.91a.65.65,0,0,0,.29-.58c0-.52-.39-.79-1.16-.79H59.9v1.56h1.7A1.61,1.61,0,0,0,62.47,30.23Z"/><path class="cls-2" d="M65.34,25.22h1.45v6.3H65.34Z"/><path class="cls-2" d="M69.56,31.21a3.1,3.1,0,0,1-1.22-1.16,3.36,3.36,0,0,1,0-3.36,3.1,3.1,0,0,1,1.22-1.16,3.62,3.62,0,0,1,1.75-.42,3.69,3.69,0,0,1,1.48.29,3,3,0,0,1,1.11.83l-.93.86a2,2,0,0,0-1.59-.74,2.11,2.11,0,0,0-1,.26,1.85,1.85,0,0,0-.72.72,2.29,2.29,0,0,0,0,2.08,1.85,1.85,0,0,0,.72.72,2.11,2.11,0,0,0,1,.26A2,2,0,0,0,73,29.64l.93.86a2.88,2.88,0,0,1-1.11.84,3.77,3.77,0,0,1-1.49.29A3.61,3.61,0,0,1,69.56,31.21Z"/><path class="cls-2" d="M78.91,30.17H76l-.55,1.35h-1.5l2.81-6.3h1.44L81,31.52H79.47Zm-.46-1.11-1-2.41-1,2.41Z"/><path class="cls-2" d="M82.84,31.21a3.19,3.19,0,0,1-1.23-1.16,3.43,3.43,0,0,1,0-3.36,3.19,3.19,0,0,1,1.23-1.16,3.62,3.62,0,0,1,1.75-.42,3.72,3.72,0,0,1,1.48.29,3,3,0,0,1,1.11.83l-.94.86a2,2,0,0,0-1.58-.74,2.15,2.15,0,0,0-1,.26,1.82,1.82,0,0,0-.71.72,2.21,2.21,0,0,0,0,2.08,1.82,1.82,0,0,0,.71.72,2.15,2.15,0,0,0,1,.26,2,2,0,0,0,1.58-.75l.94.86a2.84,2.84,0,0,1-1.12.84,3.72,3.72,0,0,1-1.48.29A3.61,3.61,0,0,1,82.84,31.21Z"/><path class="cls-2" d="M88.16,25.22h1.46v6.3H88.16Z"/><path class="cls-2" d="M92.39,31.2A3.19,3.19,0,0,1,91.16,30a3.39,3.39,0,0,1,0-3.34,3.29,3.29,0,0,1,1.23-1.17,3.94,3.94,0,0,1,3.54,0,3.29,3.29,0,0,1,1.23,1.17,3.32,3.32,0,0,1,0,3.34,3.19,3.19,0,0,1-1.23,1.16,3.86,3.86,0,0,1-3.54,0Zm2.78-1.07a1.82,1.82,0,0,0,.71-.72,2.29,2.29,0,0,0,0-2.08,1.82,1.82,0,0,0-.71-.72,2.09,2.09,0,0,0-2,0,1.8,1.8,0,0,0-.7.72,2.21,2.21,0,0,0,0,2.08,1.8,1.8,0,0,0,.7.72,2.09,2.09,0,0,0,2,0Zm-.61-6.72h1.51l-1.63,1.3h-1.1Z"/><path class="cls-2" d="M104.49,25.22v6.3h-1.2l-3.14-3.83v3.83H98.71v-6.3h1.2L103.05,29V25.22Z"/></g></g></svg>